<svg width="423" height="57" viewBox="0 0 423 57" fill="none" xmlns="http://www.w3.org/2000/svg">
<rect width="423" height="57" rx="6" fill="black"/>
<path d="M196.976 35L194.416 30.552H193.024V35H191.2V23.88H195.04C195.893 23.88 196.613 24.0293 197.2 24.328C197.797 24.6267 198.24 25.0267 198.528 25.528C198.827 26.0293 198.976 26.5893 198.976 27.208C198.976 27.9333 198.763 28.5947 198.336 29.192C197.92 29.7787 197.275 30.1787 196.4 30.392L199.152 35H196.976ZM193.024 29.096H195.04C195.723 29.096 196.235 28.9253 196.576 28.584C196.928 28.2427 197.104 27.784 197.104 27.208C197.104 26.632 196.933 26.184 196.592 25.864C196.251 25.5333 195.733 25.368 195.04 25.368H193.024V29.096ZM209.389 30.376C209.389 30.7067 209.368 31.0053 209.325 31.272H202.589C202.643 31.976 202.904 32.5413 203.373 32.968C203.843 33.3947 204.419 33.608 205.101 33.608C206.083 33.608 206.776 33.1973 207.181 32.376H209.149C208.883 33.1867 208.397 33.8533 207.693 34.376C207 34.888 206.136 35.144 205.101 35.144C204.259 35.144 203.501 34.9573 202.829 34.584C202.168 34.2 201.645 33.6667 201.261 32.984C200.888 32.2907 200.701 31.4907 200.701 30.584C200.701 29.6773 200.883 28.8827 201.245 28.2C201.619 27.5067 202.136 26.9733 202.797 26.6C203.469 26.2267 204.237 26.04 205.101 26.04C205.933 26.04 206.675 26.2213 207.325 26.584C207.976 26.9467 208.483 27.4587 208.845 28.12C209.208 28.7707 209.389 29.5227 209.389 30.376ZM207.485 29.8C207.475 29.128 207.235 28.5893 206.765 28.184C206.296 27.7787 205.715 27.576 205.021 27.576C204.392 27.576 203.853 27.7787 203.405 28.184C202.957 28.5787 202.691 29.1173 202.605 29.8H207.485ZM214.736 26.04C215.419 26.04 216.022 26.1787 216.544 26.456C217.078 26.7227 217.494 27.0587 217.792 27.464V26.184H219.632V35.144C219.632 35.9547 219.462 36.6747 219.12 37.304C218.779 37.944 218.283 38.4453 217.632 38.808C216.992 39.1707 216.224 39.352 215.328 39.352C214.134 39.352 213.142 39.0693 212.352 38.504C211.563 37.9493 211.115 37.192 211.008 36.232H212.816C212.955 36.6907 213.248 37.0587 213.696 37.336C214.155 37.624 214.699 37.768 215.328 37.768C216.064 37.768 216.656 37.544 217.104 37.096C217.563 36.648 217.792 35.9973 217.792 35.144V33.672C217.483 34.088 217.062 34.44 216.528 34.728C216.006 35.0053 215.408 35.144 214.736 35.144C213.968 35.144 213.264 34.952 212.624 34.568C211.995 34.1733 211.494 33.6293 211.12 32.936C210.758 32.232 210.576 31.4373 210.576 30.552C210.576 29.6667 210.758 28.8827 211.12 28.2C211.494 27.5173 211.995 26.9893 212.624 26.616C213.264 26.232 213.968 26.04 214.736 26.04ZM217.792 30.584C217.792 29.976 217.664 29.448 217.408 29C217.163 28.552 216.838 28.2107 216.432 27.976C216.027 27.7413 215.59 27.624 215.12 27.624C214.651 27.624 214.214 27.7413 213.808 27.976C213.403 28.2 213.072 28.536 212.816 28.984C212.571 29.4213 212.448 29.944 212.448 30.552C212.448 31.16 212.571 31.6933 212.816 32.152C213.072 32.6107 213.403 32.9627 213.808 33.208C214.224 33.4427 214.662 33.56 215.12 33.56C215.59 33.56 216.027 33.4427 216.432 33.208C216.838 32.9733 217.163 32.632 217.408 32.184C217.664 31.7253 217.792 31.192 217.792 30.584ZM222.956 25.016C222.625 25.016 222.348 24.904 222.124 24.68C221.9 24.456 221.788 24.1787 221.788 23.848C221.788 23.5173 221.9 23.24 222.124 23.016C222.348 22.792 222.625 22.68 222.956 22.68C223.276 22.68 223.548 22.792 223.772 23.016C223.996 23.24 224.108 23.5173 224.108 23.848C224.108 24.1787 223.996 24.456 223.772 24.68C223.548 24.904 223.276 25.016 222.956 25.016ZM223.852 26.184V35H222.028V26.184H223.852ZM229.447 35.144C228.754 35.144 228.13 35.0213 227.575 34.776C227.031 34.52 226.599 34.1787 226.279 33.752C225.959 33.3147 225.788 32.8293 225.767 32.296H227.655C227.687 32.6693 227.863 32.984 228.183 33.24C228.514 33.4853 228.924 33.608 229.415 33.608C229.927 33.608 230.322 33.512 230.599 33.32C230.887 33.1173 231.031 32.8613 231.031 32.552C231.031 32.2213 230.871 31.976 230.551 31.816C230.242 31.656 229.746 31.48 229.063 31.288C228.402 31.1067 227.863 30.9307 227.447 30.76C227.031 30.5893 226.668 30.328 226.359 29.976C226.06 29.624 225.911 29.16 225.911 28.584C225.911 28.1147 226.05 27.688 226.327 27.304C226.604 26.9093 226.999 26.6 227.511 26.376C228.034 26.152 228.631 26.04 229.303 26.04C230.306 26.04 231.111 26.296 231.719 26.808C232.338 27.3093 232.668 27.9973 232.711 28.872H230.887C230.855 28.4773 230.695 28.1627 230.407 27.928C230.119 27.6933 229.73 27.576 229.239 27.576C228.759 27.576 228.391 27.6667 228.135 27.848C227.879 28.0293 227.751 28.2693 227.751 28.568C227.751 28.8027 227.836 29 228.007 29.16C228.178 29.32 228.386 29.448 228.631 29.544C228.876 29.6293 229.239 29.7413 229.719 29.88C230.359 30.0507 230.882 30.2267 231.287 30.408C231.703 30.5787 232.06 30.8347 232.359 31.176C232.658 31.5173 232.812 31.9707 232.823 32.536C232.823 33.0373 232.684 33.4853 232.407 33.88C232.13 34.2747 231.735 34.584 231.223 34.808C230.722 35.032 230.13 35.144 229.447 35.144ZM236.922 27.672V32.552C236.922 32.8827 236.996 33.1227 237.146 33.272C237.306 33.4107 237.572 33.48 237.946 33.48H239.066V35H237.626C236.804 35 236.175 34.808 235.738 34.424C235.3 34.04 235.082 33.416 235.082 32.552V27.672H234.042V26.184H235.082V23.992H236.922V26.184H239.066V27.672H236.922ZM248.827 30.376C248.827 30.7067 248.806 31.0053 248.763 31.272H242.027C242.08 31.976 242.342 32.5413 242.811 32.968C243.28 33.3947 243.856 33.608 244.539 33.608C245.52 33.608 246.214 33.1973 246.619 32.376H248.587C248.32 33.1867 247.835 33.8533 247.131 34.376C246.438 34.888 245.574 35.144 244.539 35.144C243.696 35.144 242.939 34.9573 242.267 34.584C241.606 34.2 241.083 33.6667 240.699 32.984C240.326 32.2907 240.139 31.4907 240.139 30.584C240.139 29.6773 240.32 28.8827 240.683 28.2C241.056 27.5067 241.574 26.9733 242.235 26.6C242.907 26.2267 243.675 26.04 244.539 26.04C245.371 26.04 246.112 26.2213 246.763 26.584C247.414 26.9467 247.92 27.4587 248.283 28.12C248.646 28.7707 248.827 29.5227 248.827 30.376ZM246.923 29.8C246.912 29.128 246.672 28.5893 246.203 28.184C245.734 27.7787 245.152 27.576 244.459 27.576C243.83 27.576 243.291 27.7787 242.843 28.184C242.395 28.5787 242.128 29.1173 242.043 29.8H246.923ZM252.446 27.464C252.713 27.016 253.065 26.6693 253.502 26.424C253.95 26.168 254.478 26.04 255.086 26.04V27.928H254.622C253.907 27.928 253.363 28.1093 252.99 28.472C252.627 28.8347 252.446 29.464 252.446 30.36V35H250.622V26.184H252.446V27.464Z" fill="white"/>
</svg>
