<svg width="277" height="47" viewBox="0 0 277 47" fill="none" xmlns="http://www.w3.org/2000/svg">
<path d="M13.516 34L8.556 25.382H5.859V34H2.325V12.455H9.765C11.4183 12.455 12.8133 12.7443 13.95 13.323C15.1073 13.9017 15.965 14.6767 16.523 15.648C17.1017 16.6193 17.391 17.7043 17.391 18.903C17.391 20.3083 16.9777 21.5897 16.151 22.747C15.345 23.8837 14.0947 24.6587 12.4 25.072L17.732 34H13.516ZM5.859 22.561H9.765C11.0877 22.561 12.0797 22.2303 12.741 21.569C13.423 20.9077 13.764 20.019 13.764 18.903C13.764 17.787 13.4333 16.919 12.772 16.299C12.1107 15.6583 11.1083 15.338 9.765 15.338H5.859V22.561ZM37.5669 25.041C37.5669 25.6817 37.5256 26.2603 37.4429 26.777H24.3919C24.4952 28.141 25.0016 29.2363 25.9109 30.063C26.8202 30.8897 27.9362 31.303 29.2589 31.303C31.1602 31.303 32.5036 30.5073 33.2889 28.916H37.1019C36.5852 30.4867 35.6449 31.7783 34.2809 32.791C32.9376 33.783 31.2636 34.279 29.2589 34.279C27.6262 34.279 26.1589 33.9173 24.8569 33.194C23.5756 32.45 22.5629 31.4167 21.8189 30.094C21.0956 28.7507 20.7339 27.2007 20.7339 25.444C20.7339 23.6873 21.0852 22.1477 21.7879 20.825C22.5112 19.4817 23.5136 18.4483 24.7949 17.725C26.0969 17.0017 27.5849 16.64 29.2589 16.64C30.8709 16.64 32.3072 16.9913 33.5679 17.694C34.8286 18.3967 35.8102 19.3887 36.5129 20.67C37.2156 21.9307 37.5669 23.3877 37.5669 25.041ZM33.8779 23.925C33.8572 22.623 33.3922 21.5793 32.4829 20.794C31.5736 20.0087 30.4472 19.616 29.1039 19.616C27.8846 19.616 26.8409 20.0087 25.9729 20.794C25.1049 21.5587 24.5882 22.6023 24.4229 23.925H33.8779ZM47.9267 16.64C49.2494 16.64 50.4171 16.9087 51.4297 17.446C52.4631 17.9627 53.2691 18.6137 53.8477 19.399V16.919H57.4127V34.279C57.4127 35.8497 57.0821 37.2447 56.4207 38.464C55.7594 39.704 54.7984 40.6753 53.5377 41.378C52.2977 42.0807 50.8097 42.432 49.0737 42.432C46.7591 42.432 44.8371 41.8843 43.3077 40.789C41.7784 39.7143 40.9104 38.247 40.7037 36.387H44.2067C44.4754 37.2757 45.0437 37.9887 45.9117 38.526C46.8004 39.084 47.8544 39.363 49.0737 39.363C50.4997 39.363 51.6467 38.929 52.5147 38.061C53.4034 37.193 53.8477 35.9323 53.8477 34.279V31.427C53.2484 32.233 52.4321 32.915 51.3987 33.473C50.3861 34.0103 49.2287 34.279 47.9267 34.279C46.4387 34.279 45.0747 33.907 43.8347 33.163C42.6154 32.3983 41.6441 31.3443 40.9207 30.001C40.2181 28.637 39.8667 27.0973 39.8667 25.382C39.8667 23.6667 40.2181 22.1477 40.9207 20.825C41.6441 19.5023 42.6154 18.4793 43.8347 17.756C45.0747 17.012 46.4387 16.64 47.9267 16.64ZM53.8477 25.444C53.8477 24.266 53.5997 23.243 53.1037 22.375C52.6284 21.507 51.9981 20.8457 51.2127 20.391C50.4274 19.9363 49.5801 19.709 48.6707 19.709C47.7614 19.709 46.9141 19.9363 46.1287 20.391C45.3434 20.825 44.7027 21.476 44.2067 22.344C43.7314 23.1913 43.4937 24.204 43.4937 25.382C43.4937 26.56 43.7314 27.5933 44.2067 28.482C44.7027 29.3707 45.3434 30.0527 46.1287 30.528C46.9347 30.9827 47.7821 31.21 48.6707 31.21C49.5801 31.21 50.4274 30.9827 51.2127 30.528C51.9981 30.0733 52.6284 29.412 53.1037 28.544C53.5997 27.6553 53.8477 26.622 53.8477 25.444ZM63.8525 14.656C63.2118 14.656 62.6745 14.439 62.2405 14.005C61.8065 13.571 61.5895 13.0337 61.5895 12.393C61.5895 11.7523 61.8065 11.215 62.2405 10.781C62.6745 10.347 63.2118 10.13 63.8525 10.13C64.4725 10.13 64.9995 10.347 65.4335 10.781C65.8675 11.215 66.0845 11.7523 66.0845 12.393C66.0845 13.0337 65.8675 13.571 65.4335 14.005C64.9995 14.439 64.4725 14.656 63.8525 14.656ZM65.5885 16.919V34H62.0545V16.919H65.5885ZM76.4283 34.279C75.085 34.279 73.876 34.0413 72.8013 33.566C71.7473 33.07 70.9103 32.4087 70.2903 31.582C69.6703 30.7347 69.3397 29.7943 69.2983 28.761H72.9563C73.0183 29.4843 73.3593 30.094 73.9793 30.59C74.62 31.0653 75.4157 31.303 76.3663 31.303C77.3583 31.303 78.123 31.117 78.6603 30.745C79.2183 30.3523 79.4973 29.8563 79.4973 29.257C79.4973 28.6163 79.1873 28.141 78.5673 27.831C77.968 27.521 77.007 27.18 75.6843 26.808C74.403 26.4567 73.3593 26.1157 72.5533 25.785C71.7473 25.4543 71.0447 24.948 70.4453 24.266C69.8667 23.584 69.5773 22.685 69.5773 21.569C69.5773 20.6597 69.846 19.833 70.3833 19.089C70.9207 18.3243 71.6853 17.725 72.6773 17.291C73.69 16.857 74.8473 16.64 76.1493 16.64C78.092 16.64 79.6523 17.136 80.8303 18.128C82.029 19.0993 82.6697 20.4323 82.7523 22.127H79.2183C79.1563 21.3623 78.8463 20.7527 78.2883 20.298C77.7303 19.8433 76.976 19.616 76.0253 19.616C75.0953 19.616 74.3823 19.7917 73.8863 20.143C73.3903 20.4943 73.1423 20.9593 73.1423 21.538C73.1423 21.9927 73.3077 22.375 73.6383 22.685C73.969 22.995 74.372 23.243 74.8473 23.429C75.3227 23.5943 76.0253 23.8113 76.9553 24.08C78.1953 24.4107 79.208 24.7517 79.9933 25.103C80.7993 25.4337 81.4917 25.9297 82.0703 26.591C82.649 27.2523 82.9487 28.1307 82.9693 29.226C82.9693 30.1973 82.7007 31.0653 82.1633 31.83C81.626 32.5947 80.8613 33.194 79.8693 33.628C78.898 34.062 77.751 34.279 76.4283 34.279ZM90.9109 19.802V29.257C90.9109 29.8977 91.0556 30.3627 91.3449 30.652C91.6549 30.9207 92.1716 31.055 92.8949 31.055H95.0649V34H92.2749C90.6836 34 89.4642 33.628 88.6169 32.884C87.7696 32.14 87.3459 30.931 87.3459 29.257V19.802H85.3309V16.919H87.3459V12.672H90.9109V16.919H95.0649V19.802H90.9109ZM101.856 19.399C102.373 18.531 103.055 17.8593 103.902 17.384C104.77 16.888 105.793 16.64 106.971 16.64V20.298H106.072C104.687 20.298 103.633 20.6493 102.91 21.352C102.207 22.0547 101.856 23.274 101.856 25.01V34H98.3221V16.919H101.856V19.399ZM109.042 25.382C109.042 23.6667 109.393 22.1477 110.096 20.825C110.819 19.5023 111.79 18.4793 113.01 17.756C114.25 17.012 115.614 16.64 117.102 16.64C118.445 16.64 119.613 16.9087 120.605 17.446C121.617 17.9627 122.423 18.6137 123.023 19.399V16.919H126.588V34H123.023V31.458C122.423 32.264 121.607 32.9357 120.574 33.473C119.54 34.0103 118.362 34.279 117.04 34.279C115.572 34.279 114.229 33.907 113.01 33.163C111.79 32.3983 110.819 31.3443 110.096 30.001C109.393 28.637 109.042 27.0973 109.042 25.382ZM123.023 25.444C123.023 24.266 122.775 23.243 122.279 22.375C121.803 21.507 121.173 20.8457 120.388 20.391C119.602 19.9363 118.755 19.709 117.846 19.709C116.936 19.709 116.089 19.9363 115.304 20.391C114.518 20.825 113.878 21.476 113.382 22.344C112.906 23.1913 112.669 24.204 112.669 25.382C112.669 26.56 112.906 27.5933 113.382 28.482C113.878 29.3707 114.518 30.0527 115.304 30.528C116.11 30.9827 116.957 31.21 117.846 31.21C118.755 31.21 119.602 30.9827 120.388 30.528C121.173 30.0733 121.803 29.412 122.279 28.544C122.775 27.6553 123.023 26.622 123.023 25.444ZM135.352 19.802V29.257C135.352 29.8977 135.497 30.3627 135.786 30.652C136.096 30.9207 136.613 31.055 137.336 31.055H139.506V34H136.716C135.125 34 133.906 33.628 133.058 32.884C132.211 32.14 131.787 30.931 131.787 29.257V19.802H129.772V16.919H131.787V12.672H135.352V16.919H139.506V19.802H135.352ZM144.561 14.656C143.921 14.656 143.383 14.439 142.949 14.005C142.515 13.571 142.298 13.0337 142.298 12.393C142.298 11.7523 142.515 11.215 142.949 10.781C143.383 10.347 143.921 10.13 144.561 10.13C145.181 10.13 145.708 10.347 146.142 10.781C146.576 11.215 146.793 11.7523 146.793 12.393C146.793 13.0337 146.576 13.571 146.142 14.005C145.708 14.439 145.181 14.656 144.561 14.656ZM146.297 16.919V34H142.763V16.919H146.297ZM158.346 34.279C156.734 34.279 155.277 33.9173 153.975 33.194C152.673 32.45 151.65 31.4167 150.906 30.094C150.162 28.7507 149.79 27.2007 149.79 25.444C149.79 23.708 150.173 22.1683 150.937 20.825C151.702 19.4817 152.746 18.4483 154.068 17.725C155.391 17.0017 156.869 16.64 158.501 16.64C160.134 16.64 161.612 17.0017 162.934 17.725C164.257 18.4483 165.301 19.4817 166.065 20.825C166.83 22.1683 167.212 23.708 167.212 25.444C167.212 27.18 166.82 28.7197 166.034 30.063C165.249 31.4063 164.174 32.45 162.81 33.194C161.467 33.9173 159.979 34.279 158.346 34.279ZM158.346 31.21C159.256 31.21 160.103 30.993 160.888 30.559C161.694 30.125 162.345 29.474 162.841 28.606C163.337 27.738 163.585 26.684 163.585 25.444C163.585 24.204 163.348 23.1603 162.872 22.313C162.397 21.445 161.767 20.794 160.981 20.36C160.196 19.926 159.349 19.709 158.439 19.709C157.53 19.709 156.683 19.926 155.897 20.36C155.133 20.794 154.523 21.445 154.068 22.313C153.614 23.1603 153.386 24.204 153.386 25.444C153.386 27.2833 153.851 28.7093 154.781 29.722C155.732 30.714 156.92 31.21 158.346 31.21ZM179.324 16.64C180.667 16.64 181.866 16.919 182.92 17.477C183.995 18.035 184.832 18.8617 185.431 19.957C186.03 21.0523 186.33 22.375 186.33 23.925V34H182.827V24.452C182.827 22.9227 182.445 21.755 181.68 20.949C180.915 20.1223 179.872 19.709 178.549 19.709C177.226 19.709 176.172 20.1223 175.387 20.949C174.622 21.755 174.24 22.9227 174.24 24.452V34H170.706V16.919H174.24V18.872C174.819 18.1693 175.552 17.6217 176.441 17.229C177.35 16.8363 178.311 16.64 179.324 16.64ZM211.569 12.455V15.338H202.424V21.693H209.554V24.576H202.424V34H198.89V12.455H211.569ZM222.254 34.279C220.642 34.279 219.185 33.9173 217.883 33.194C216.581 32.45 215.558 31.4167 214.814 30.094C214.07 28.7507 213.698 27.2007 213.698 25.444C213.698 23.708 214.08 22.1683 214.845 20.825C215.609 19.4817 216.653 18.4483 217.976 17.725C219.298 17.0017 220.776 16.64 222.409 16.64C224.041 16.64 225.519 17.0017 226.842 17.725C228.164 18.4483 229.208 19.4817 229.973 20.825C230.737 22.1683 231.12 23.708 231.12 25.444C231.12 27.18 230.727 28.7197 229.942 30.063C229.156 31.4063 228.082 32.45 226.718 33.194C225.374 33.9173 223.886 34.279 222.254 34.279ZM222.254 31.21C223.163 31.21 224.01 30.993 224.796 30.559C225.602 30.125 226.253 29.474 226.749 28.606C227.245 27.738 227.493 26.684 227.493 25.444C227.493 24.204 227.255 23.1603 226.78 22.313C226.304 21.445 225.674 20.794 224.889 20.36C224.103 19.926 223.256 19.709 222.347 19.709C221.437 19.709 220.59 19.926 219.805 20.36C219.04 20.794 218.43 21.445 217.976 22.313C217.521 23.1603 217.294 24.204 217.294 25.444C217.294 27.2833 217.759 28.7093 218.689 29.722C219.639 30.714 220.828 31.21 222.254 31.21ZM238.147 19.399C238.664 18.531 239.346 17.8593 240.193 17.384C241.061 16.888 242.084 16.64 243.262 16.64V20.298H242.363C240.978 20.298 239.924 20.6493 239.201 21.352C238.498 22.0547 238.147 23.274 238.147 25.01V34H234.613V16.919H238.147V19.399ZM267.188 16.64C268.531 16.64 269.73 16.919 270.784 17.477C271.858 18.035 272.695 18.8617 273.295 19.957C273.915 21.0523 274.225 22.375 274.225 23.925V34H270.722V24.452C270.722 22.9227 270.339 21.755 269.575 20.949C268.81 20.1223 267.766 19.709 266.444 19.709C265.121 19.709 264.067 20.1223 263.282 20.949C262.517 21.755 262.135 22.9227 262.135 24.452V34H258.632V24.452C258.632 22.9227 258.249 21.755 257.485 20.949C256.72 20.1223 255.676 19.709 254.354 19.709C253.031 19.709 251.977 20.1223 251.192 20.949C250.427 21.755 250.045 22.9227 250.045 24.452V34H246.511V16.919H250.045V18.872C250.623 18.1693 251.357 17.6217 252.246 17.229C253.134 16.8363 254.085 16.64 255.098 16.64C256.462 16.64 257.681 16.9293 258.756 17.508C259.83 18.0867 260.657 18.9237 261.236 20.019C261.752 18.9857 262.558 18.1693 263.654 17.57C264.749 16.95 265.927 16.64 267.188 16.64Z" fill="black"/>
</svg>
