<svg width="24" height="26" viewBox="0 0 24 26" fill="none" xmlns="http://www.w3.org/2000/svg">
<g clip-path="url(#clip0_103_7)">
<path d="M11.8174 8.8822L15.253 12.6041L15.2693 12.4091C15.2693 10.4536 13.8024 8.86447 11.9973 8.86447L11.8174 8.8822Z" fill="#011729"/>
<path d="M11.9973 6.50137C15.0076 6.50137 17.4507 9.14806 17.4507 12.4091C17.4507 13.1712 17.3089 13.8979 17.0635 14.5654L20.2537 18.0215C21.9006 16.5327 23.1985 14.6068 24.0001 12.4091C22.1078 7.22215 17.4561 3.54752 11.9974 3.54752C10.4704 3.54752 9.009 3.84288 7.65112 4.37458L10.007 6.9208C10.6231 6.66088 11.2939 6.50137 11.9973 6.50137Z" fill="#011729"/>
<path d="M1.09064 3.28176L3.57735 5.97569L4.07362 6.51332C2.27403 8.03752 0.850716 10.0639 0 12.4092C1.88686 17.5962 6.54397 21.2709 11.9973 21.2709C13.6878 21.2709 15.302 20.9164 16.7799 20.2724L17.2434 20.7746L20.4227 24.2247L21.8133 22.7242L2.48124 1.77528L1.09064 3.28176ZM7.12204 9.80984L8.80711 11.6353C8.75803 11.8894 8.72531 12.1434 8.72531 12.4092C8.72531 14.3647 10.1922 15.9539 11.9973 15.9539C12.2427 15.9539 12.4772 15.9184 12.7062 15.8653L14.3913 17.6908C13.666 18.0807 12.8589 18.317 11.9973 18.317C8.98707 18.317 6.54397 15.6703 6.54397 12.4092C6.54397 11.4758 6.76212 10.6015 7.12204 9.80984Z" fill="#011729"/>
</g>
<defs>
<clipPath id="clip0_103_7">
<rect width="24" height="26" fill="white"/>
</clipPath>
</defs>
</svg>
