<svg width="285" height="82" viewBox="0 0 285 82" fill="none" xmlns="http://www.w3.org/2000/svg">
<g filter="url(#filter0_d_1_6)">
<path d="M22.2 55.2H43.6V72H7.45058e-08V1.2H22.2V55.2ZM85.0859 72.7C78.4193 72.7 72.2859 71.1333 66.6859 68C61.1526 64.8667 56.7526 60.5333 53.4859 55C50.2193 49.4667 48.5859 43.2333 48.5859 36.3C48.5859 29.3667 50.2193 23.1333 53.4859 17.6C56.7526 12.0667 61.1526 7.76666 66.6859 4.7C72.2859 1.56666 78.4193 -2.86102e-06 85.0859 -2.86102e-06C91.7526 -2.86102e-06 97.8526 1.56666 103.386 4.7C108.919 7.76666 113.286 12.0667 116.486 17.6C119.753 23.1333 121.386 29.3667 121.386 36.3C121.386 43.2333 119.753 49.4667 116.486 55C113.286 60.5333 108.886 64.8667 103.286 68C97.7526 71.1333 91.6859 72.7 85.0859 72.7ZM85.0859 52C89.4859 52 92.8859 50.6 95.2859 47.8C97.6859 44.9333 98.8859 41.1 98.8859 36.3C98.8859 31.4333 97.6859 27.6 95.2859 24.8C92.8859 21.9333 89.4859 20.5 85.0859 20.5C80.6193 20.5 77.1859 21.9333 74.7859 24.8C72.3859 27.6 71.1859 31.4333 71.1859 36.3C71.1859 41.1 72.3859 44.9333 74.7859 47.8C77.1859 50.6 80.6193 52 85.0859 52ZM172.795 25.4C171.928 24 170.695 22.9333 169.095 22.2C167.495 21.4 165.561 21 163.295 21C159.028 21 155.728 22.4 153.395 25.2C151.061 27.9333 149.895 31.7 149.895 36.5C149.895 42.0333 151.195 46.1667 153.795 48.9C156.395 51.6333 160.395 53 165.795 53C170.928 53 175.061 50.9333 178.195 46.8H160.495V31.1H196.595V53.3C193.528 58.5667 189.295 63.1 183.895 66.9C178.495 70.6333 171.661 72.5 163.395 72.5C156.061 72.5 149.661 71 144.195 68C138.795 64.9333 134.628 60.6667 131.695 55.2C128.828 49.7333 127.395 43.5 127.395 36.5C127.395 29.5 128.828 23.2667 131.695 17.8C134.628 12.3333 138.795 8.1 144.195 5.1C149.595 2.03333 155.928 0.499997 163.195 0.499997C172.461 0.499997 179.995 2.73333 185.795 7.2C191.661 11.6667 195.128 17.7333 196.195 25.4H172.795ZM239.09 72.7C232.423 72.7 226.29 71.1333 220.69 68C215.157 64.8667 210.757 60.5333 207.49 55C204.223 49.4667 202.59 43.2333 202.59 36.3C202.59 29.3667 204.223 23.1333 207.49 17.6C210.757 12.0667 215.157 7.76666 220.69 4.7C226.29 1.56666 232.423 -2.86102e-06 239.09 -2.86102e-06C245.757 -2.86102e-06 251.857 1.56666 257.39 4.7C262.923 7.76666 267.29 12.0667 270.49 17.6C273.757 23.1333 275.39 29.3667 275.39 36.3C275.39 43.2333 273.757 49.4667 270.49 55C267.29 60.5333 262.89 64.8667 257.29 68C251.757 71.1333 245.69 72.7 239.09 72.7ZM239.09 52C243.49 52 246.89 50.6 249.29 47.8C251.69 44.9333 252.89 41.1 252.89 36.3C252.89 31.4333 251.69 27.6 249.29 24.8C246.89 21.9333 243.49 20.5 239.09 20.5C234.623 20.5 231.19 21.9333 228.79 24.8C226.39 27.6 225.19 31.4333 225.19 36.3C225.19 41.1 226.39 44.9333 228.79 47.8C231.19 50.6 234.623 52 239.09 52Z" fill="black"/>
</g>
<defs>
<filter id="filter0_d_1_6" x="0" y="0" width="284.39" height="81.7" filterUnits="userSpaceOnUse" color-interpolation-filters="sRGB">
<feFlood flood-opacity="0" result="BackgroundImageFix"/>
<feColorMatrix in="SourceAlpha" type="matrix" values="0 0 0 0 0 0 0 0 0 0 0 0 0 0 0 0 0 0 127 0" result="hardAlpha"/>
<feOffset dx="5" dy="5"/>
<feGaussianBlur stdDeviation="2"/>
<feComposite in2="hardAlpha" operator="out"/>
<feColorMatrix type="matrix" values="0 0 0 0 0 0 0 0 0 0 0 0 0 0 0 0 0 0 0.25 0"/>
<feBlend mode="normal" in2="BackgroundImageFix" result="effect1_dropShadow_1_6"/>
<feBlend mode="normal" in="SourceGraphic" in2="effect1_dropShadow_1_6" result="shape"/>
</filter>
</defs>
</svg>
