<svg width="75" height="13" viewBox="0 0 75 13" fill="none" xmlns="http://www.w3.org/2000/svg">
<path d="M7.688 4.112C7.688 5.04 7.368 5.81333 6.728 6.432C6.09867 7.04 5.13333 7.344 3.832 7.344H1.688V12H0.232V0.848H3.832C5.09067 0.848 6.04533 1.152 6.696 1.76C7.35733 2.368 7.688 3.152 7.688 4.112ZM3.832 6.144C4.64267 6.144 5.24 5.968 5.624 5.616C6.008 5.264 6.2 4.76267 6.2 4.112C6.2 2.736 5.41067 2.048 3.832 2.048H1.688V6.144H3.832ZM8.95363 7.584C8.95363 6.688 9.13496 5.904 9.49763 5.232C9.86029 4.54933 10.3563 4.02133 10.9856 3.648C11.6256 3.27467 12.335 3.088 13.1136 3.088C13.8816 3.088 14.5483 3.25333 15.1136 3.584C15.679 3.91467 16.1003 4.33067 16.3776 4.832V3.232H17.8496V12H16.3776V10.368C16.0896 10.88 15.6576 11.3067 15.0816 11.648C14.5163 11.9787 13.855 12.144 13.0976 12.144C12.319 12.144 11.615 11.952 10.9856 11.568C10.3563 11.184 9.86029 10.6453 9.49763 9.952C9.13496 9.25867 8.95363 8.46933 8.95363 7.584ZM16.3776 7.6C16.3776 6.93867 16.2443 6.36267 15.9776 5.872C15.711 5.38133 15.3483 5.008 14.8896 4.752C14.4416 4.48533 13.9456 4.352 13.4016 4.352C12.8576 4.352 12.3616 4.48 11.9136 4.736C11.4656 4.992 11.1083 5.36533 10.8416 5.856C10.575 6.34667 10.4416 6.92267 10.4416 7.584C10.4416 8.256 10.575 8.84267 10.8416 9.344C11.1083 9.83467 11.4656 10.2133 11.9136 10.48C12.3616 10.736 12.8576 10.864 13.4016 10.864C13.9456 10.864 14.4416 10.736 14.8896 10.48C15.3483 10.2133 15.711 9.83467 15.9776 9.344C16.2443 8.84267 16.3776 8.26133 16.3776 7.6ZM23.4141 12.144C22.7421 12.144 22.1395 12.032 21.6061 11.808C21.0728 11.5733 20.6515 11.2533 20.3421 10.848C20.0328 10.432 19.8621 9.95733 19.8301 9.424H21.3341C21.3768 9.86133 21.5795 10.2187 21.9421 10.496C22.3155 10.7733 22.8008 10.912 23.3981 10.912C23.9528 10.912 24.3901 10.7893 24.7101 10.544C25.0301 10.2987 25.1901 9.98933 25.1901 9.616C25.1901 9.232 25.0195 8.94933 24.6781 8.768C24.3368 8.576 23.8088 8.38933 23.0941 8.208C22.4435 8.03733 21.9101 7.86667 21.4941 7.696C21.0888 7.51467 20.7368 7.25333 20.4381 6.912C20.1501 6.56 20.0061 6.10133 20.0061 5.536C20.0061 5.088 20.1395 4.67733 20.4061 4.304C20.6728 3.93067 21.0515 3.63733 21.5421 3.424C22.0328 3.2 22.5928 3.088 23.2221 3.088C24.1928 3.088 24.9768 3.33333 25.5741 3.824C26.1715 4.31467 26.4915 4.98667 26.5341 5.84H25.0781C25.0461 5.38133 24.8595 5.01333 24.5181 4.736C24.1875 4.45867 23.7395 4.32 23.1741 4.32C22.6515 4.32 22.2355 4.432 21.9261 4.656C21.6168 4.88 21.4621 5.17333 21.4621 5.536C21.4621 5.824 21.5528 6.064 21.7341 6.256C21.9261 6.43733 22.1608 6.58667 22.4381 6.704C22.7261 6.81067 23.1208 6.93333 23.6221 7.072C24.2515 7.24267 24.7635 7.41333 25.1581 7.584C25.5528 7.744 25.8888 7.98933 26.1661 8.32C26.4541 8.65067 26.6035 9.08267 26.6141 9.616C26.6141 10.096 26.4808 10.528 26.2141 10.912C25.9475 11.296 25.5688 11.6 25.0781 11.824C24.5981 12.0373 24.0435 12.144 23.4141 12.144ZM31.7735 12.144C31.1015 12.144 30.4988 12.032 29.9655 11.808C29.4322 11.5733 29.0108 11.2533 28.7015 10.848C28.3922 10.432 28.2215 9.95733 28.1895 9.424H29.6935C29.7362 9.86133 29.9388 10.2187 30.3015 10.496C30.6748 10.7733 31.1602 10.912 31.7575 10.912C32.3122 10.912 32.7495 10.7893 33.0695 10.544C33.3895 10.2987 33.5495 9.98933 33.5495 9.616C33.5495 9.232 33.3788 8.94933 33.0375 8.768C32.6962 8.576 32.1682 8.38933 31.4535 8.208C30.8028 8.03733 30.2695 7.86667 29.8535 7.696C29.4482 7.51467 29.0962 7.25333 28.7975 6.912C28.5095 6.56 28.3655 6.10133 28.3655 5.536C28.3655 5.088 28.4988 4.67733 28.7655 4.304C29.0322 3.93067 29.4108 3.63733 29.9015 3.424C30.3922 3.2 30.9522 3.088 31.5815 3.088C32.5522 3.088 33.3362 3.33333 33.9335 3.824C34.5308 4.31467 34.8508 4.98667 34.8935 5.84H33.4375C33.4055 5.38133 33.2188 5.01333 32.8775 4.736C32.5468 4.45867 32.0988 4.32 31.5335 4.32C31.0108 4.32 30.5948 4.432 30.2855 4.656C29.9762 4.88 29.8215 5.17333 29.8215 5.536C29.8215 5.824 29.9122 6.064 30.0935 6.256C30.2855 6.43733 30.5202 6.58667 30.7975 6.704C31.0855 6.81067 31.4802 6.93333 31.9815 7.072C32.6108 7.24267 33.1228 7.41333 33.5175 7.584C33.9122 7.744 34.2482 7.98933 34.5255 8.32C34.8135 8.65067 34.9628 9.08267 34.9735 9.616C34.9735 10.096 34.8402 10.528 34.5735 10.912C34.3068 11.296 33.9282 11.6 33.4375 11.824C32.9575 12.0373 32.4028 12.144 31.7735 12.144ZM48.7089 3.232L45.9729 12H44.4689L42.3569 5.04L40.2449 12H38.7409L35.9889 3.232H37.4769L39.4929 10.592L41.6689 3.232H43.1569L45.2849 10.608L47.2689 3.232H48.7089ZM53.9779 12.144C53.1565 12.144 52.4099 11.9573 51.7379 11.584C51.0765 11.2107 50.5539 10.6827 50.1699 10C49.7965 9.30667 49.6099 8.50667 49.6099 7.6C49.6099 6.704 49.8019 5.91467 50.1859 5.232C50.5805 4.53867 51.1139 4.01067 51.7859 3.648C52.4579 3.27467 53.2099 3.088 54.0419 3.088C54.8739 3.088 55.6259 3.27467 56.2979 3.648C56.9699 4.01067 57.4979 4.53333 57.8819 5.216C58.2765 5.89867 58.4739 6.69333 58.4739 7.6C58.4739 8.50667 58.2712 9.30667 57.8659 10C57.4712 10.6827 56.9325 11.2107 56.2499 11.584C55.5672 11.9573 54.8099 12.144 53.9779 12.144ZM53.9779 10.864C54.5005 10.864 54.9912 10.7413 55.4499 10.496C55.9085 10.2507 56.2765 9.88267 56.5539 9.392C56.8419 8.90133 56.9859 8.304 56.9859 7.6C56.9859 6.896 56.8472 6.29867 56.5699 5.808C56.2925 5.31733 55.9299 4.95467 55.4819 4.72C55.0339 4.47467 54.5485 4.352 54.0259 4.352C53.4925 4.352 53.0019 4.47467 52.5539 4.72C52.1165 4.95467 51.7645 5.31733 51.4979 5.808C51.2312 6.29867 51.0979 6.896 51.0979 7.6C51.0979 8.31467 51.2259 8.91733 51.4819 9.408C51.7485 9.89867 52.1005 10.2667 52.5379 10.512C52.9752 10.7467 53.4552 10.864 53.9779 10.864ZM61.8443 4.656C62.1003 4.15467 62.4629 3.76533 62.9323 3.488C63.4123 3.21067 63.9936 3.072 64.6763 3.072V4.576H64.2923C62.6603 4.576 61.8443 5.46133 61.8443 7.232V12H60.3883V3.232H61.8443V4.656ZM65.813 7.584C65.813 6.688 65.9943 5.904 66.357 5.232C66.7197 4.54933 67.2157 4.02133 67.845 3.648C68.485 3.27467 69.1997 3.088 69.989 3.088C70.6717 3.088 71.3063 3.248 71.893 3.568C72.4797 3.87733 72.9277 4.288 73.237 4.8V0.16H74.709V12H73.237V10.352C72.949 10.8747 72.5223 11.3067 71.957 11.648C71.3917 11.9787 70.7303 12.144 69.973 12.144C69.1943 12.144 68.485 11.952 67.845 11.568C67.2157 11.184 66.7197 10.6453 66.357 9.952C65.9943 9.25867 65.813 8.46933 65.813 7.584ZM73.237 7.6C73.237 6.93867 73.1037 6.36267 72.837 5.872C72.5703 5.38133 72.2077 5.008 71.749 4.752C71.301 4.48533 70.805 4.352 70.261 4.352C69.717 4.352 69.221 4.48 68.773 4.736C68.325 4.992 67.9677 5.36533 67.701 5.856C67.4343 6.34667 67.301 6.92267 67.301 7.584C67.301 8.256 67.4343 8.84267 67.701 9.344C67.9677 9.83467 68.325 10.2133 68.773 10.48C69.221 10.736 69.717 10.864 70.261 10.864C70.805 10.864 71.301 10.736 71.749 10.48C72.2077 10.2133 72.5703 9.83467 72.837 9.344C73.1037 8.84267 73.237 8.26133 73.237 7.6Z" fill="black"/>
</svg>
