<svg width="66" height="18" viewBox="0 0 66 18" fill="none" xmlns="http://www.w3.org/2000/svg">
<path d="M5.864 13L3.4 8.648H2.344V13H0.104V1.832H4.296C5.16 1.832 5.896 1.98667 6.504 2.296C7.112 2.59467 7.56533 3.00533 7.864 3.528C8.17333 4.04 8.328 4.616 8.328 5.256C8.328 5.992 8.11467 6.65867 7.688 7.256C7.26133 7.84267 6.62667 8.248 5.784 8.472L8.456 13H5.864ZM2.344 6.968H4.216C4.824 6.968 5.27733 6.824 5.576 6.536C5.87467 6.23733 6.024 5.82667 6.024 5.304C6.024 4.792 5.87467 4.39733 5.576 4.12C5.27733 3.832 4.824 3.688 4.216 3.688H2.344V6.968ZM18.594 8.376C18.594 8.696 18.5727 8.984 18.53 9.24H12.05C12.1033 9.88 12.3273 10.3813 12.722 10.744C13.1167 11.1067 13.602 11.288 14.178 11.288C15.01 11.288 15.602 10.9307 15.954 10.216H18.37C18.114 11.0693 17.6233 11.7733 16.898 12.328C16.1727 12.872 15.282 13.144 14.226 13.144C13.3727 13.144 12.6047 12.9573 11.922 12.584C11.25 12.2 10.722 11.6613 10.338 10.968C9.96467 10.2747 9.778 9.47467 9.778 8.568C9.778 7.65067 9.96467 6.84533 10.338 6.152C10.7113 5.45867 11.234 4.92533 11.906 4.552C12.578 4.17867 13.3513 3.992 14.226 3.992C15.0687 3.992 15.8207 4.17333 16.482 4.536C17.154 4.89867 17.6713 5.416 18.034 6.088C18.4073 6.74933 18.594 7.512 18.594 8.376ZM16.274 7.736C16.2633 7.16 16.0553 6.70133 15.65 6.36C15.2447 6.008 14.7487 5.832 14.162 5.832C13.6073 5.832 13.138 6.00267 12.754 6.344C12.3807 6.67467 12.1513 7.13867 12.066 7.736H16.274ZM23.701 3.992C24.3623 3.992 24.9437 4.12533 25.445 4.392C25.9463 4.648 26.341 4.984 26.629 5.4V4.136H28.885V13.064C28.885 13.8853 28.7197 14.616 28.389 15.256C28.0583 15.9067 27.5623 16.4187 26.901 16.792C26.2397 17.176 25.4397 17.368 24.501 17.368C23.2423 17.368 22.2077 17.0747 21.397 16.488C20.597 15.9013 20.1437 15.1013 20.037 14.088H22.261C22.3783 14.4933 22.629 14.8133 23.013 15.048C23.4077 15.2933 23.8823 15.416 24.437 15.416C25.0877 15.416 25.6157 15.2187 26.021 14.824C26.4263 14.44 26.629 13.8533 26.629 13.064V11.688C26.341 12.104 25.941 12.4507 25.429 12.728C24.9277 13.0053 24.3517 13.144 23.701 13.144C22.9543 13.144 22.2717 12.952 21.653 12.568C21.0343 12.184 20.5437 11.6453 20.181 10.952C19.829 10.248 19.653 9.44267 19.653 8.536C19.653 7.64 19.829 6.84533 20.181 6.152C20.5437 5.45867 21.029 4.92533 21.637 4.552C22.2557 4.17867 22.9437 3.992 23.701 3.992ZM26.629 8.568C26.629 8.024 26.5223 7.56 26.309 7.176C26.0957 6.78133 25.8077 6.48267 25.445 6.28C25.0823 6.06667 24.693 5.96 24.277 5.96C23.861 5.96 23.477 6.06133 23.125 6.264C22.773 6.46667 22.485 6.76533 22.261 7.16C22.0477 7.544 21.941 8.00267 21.941 8.536C21.941 9.06933 22.0477 9.53867 22.261 9.944C22.485 10.3387 22.773 10.6427 23.125 10.856C23.4877 11.0693 23.8717 11.176 24.277 11.176C24.693 11.176 25.0823 11.0747 25.445 10.872C25.8077 10.6587 26.0957 10.36 26.309 9.976C26.5223 9.58133 26.629 9.112 26.629 8.568ZM32.2088 3.08C31.8141 3.08 31.4834 2.95733 31.2168 2.712C30.9608 2.456 30.8328 2.14133 30.8328 1.768C30.8328 1.39467 30.9608 1.08533 31.2168 0.839999C31.4834 0.583999 31.8141 0.455999 32.2088 0.455999C32.6034 0.455999 32.9288 0.583999 33.1848 0.839999C33.4514 1.08533 33.5848 1.39467 33.5848 1.768C33.5848 2.14133 33.4514 2.456 33.1848 2.712C32.9288 2.95733 32.6034 3.08 32.2088 3.08ZM33.3128 4.136V13H31.0728V4.136H33.3128ZM38.9179 13.144C38.1925 13.144 37.5419 13.016 36.9659 12.76C36.3899 12.4933 35.9312 12.136 35.5899 11.688C35.2592 11.24 35.0779 10.744 35.0459 10.2H37.3019C37.3445 10.5413 37.5099 10.824 37.7979 11.048C38.0965 11.272 38.4645 11.384 38.9019 11.384C39.3285 11.384 39.6592 11.2987 39.8939 11.128C40.1392 10.9573 40.2619 10.7387 40.2619 10.472C40.2619 10.184 40.1125 9.97067 39.8139 9.832C39.5259 9.68267 39.0619 9.52267 38.4219 9.352C37.7605 9.192 37.2165 9.02667 36.7899 8.856C36.3739 8.68533 36.0112 8.424 35.7019 8.072C35.4032 7.72 35.2539 7.24533 35.2539 6.648C35.2539 6.15733 35.3925 5.70933 35.6699 5.304C35.9579 4.89867 36.3632 4.57867 36.8859 4.344C37.4192 4.10933 38.0432 3.992 38.7579 3.992C39.8139 3.992 40.6565 4.25867 41.2859 4.792C41.9152 5.31467 42.2619 6.024 42.3259 6.92H40.1819C40.1499 6.568 40.0005 6.29067 39.7339 6.088C39.4779 5.87467 39.1312 5.768 38.6939 5.768C38.2885 5.768 37.9739 5.84267 37.7499 5.992C37.5365 6.14133 37.4299 6.34933 37.4299 6.616C37.4299 6.91467 37.5792 7.144 37.8779 7.304C38.1765 7.45333 38.6405 7.608 39.2699 7.768C39.9099 7.928 40.4379 8.09333 40.8539 8.264C41.2699 8.43467 41.6272 8.70133 41.9259 9.064C42.2352 9.416 42.3952 9.88533 42.4059 10.472C42.4059 10.984 42.2619 11.4427 41.9739 11.848C41.6965 12.2533 41.2912 12.5733 40.7579 12.808C40.2352 13.032 39.6219 13.144 38.9179 13.144ZM46.8526 5.976V10.264C46.8526 10.5627 46.922 10.7813 47.0606 10.92C47.21 11.048 47.4553 11.112 47.7966 11.112H48.8366V13H47.4286C45.5406 13 44.5966 12.0827 44.5966 10.248V5.976H43.5406V4.136H44.5966V1.944H46.8526V4.136H48.8366V5.976H46.8526ZM58.6878 8.376C58.6878 8.696 58.6664 8.984 58.6238 9.24H52.1438C52.1971 9.88 52.4211 10.3813 52.8158 10.744C53.2104 11.1067 53.6958 11.288 54.2718 11.288C55.1038 11.288 55.6958 10.9307 56.0478 10.216H58.4638C58.2078 11.0693 57.7171 11.7733 56.9918 12.328C56.2664 12.872 55.3758 13.144 54.3198 13.144C53.4664 13.144 52.6984 12.9573 52.0158 12.584C51.3438 12.2 50.8158 11.6613 50.4318 10.968C50.0584 10.2747 49.8717 9.47467 49.8717 8.568C49.8717 7.65067 50.0584 6.84533 50.4318 6.152C50.8051 5.45867 51.3278 4.92533 51.9998 4.552C52.6718 4.17867 53.4451 3.992 54.3198 3.992C55.1624 3.992 55.9144 4.17333 56.5758 4.536C57.2478 4.89867 57.7651 5.416 58.1278 6.088C58.5011 6.74933 58.6878 7.512 58.6878 8.376ZM56.3678 7.736C56.3571 7.16 56.1491 6.70133 55.7438 6.36C55.3384 6.008 54.8424 5.832 54.2558 5.832C53.7011 5.832 53.2318 6.00267 52.8478 6.344C52.4744 6.67467 52.2451 7.13867 52.1598 7.736H56.3678ZM62.5628 5.512C62.8508 5.04267 63.2241 4.67467 63.6828 4.408C64.1521 4.14133 64.6854 4.008 65.2828 4.008V6.36H64.6908C63.9868 6.36 63.4534 6.52533 63.0908 6.856C62.7388 7.18667 62.5628 7.76267 62.5628 8.584V13H60.3228V4.136H62.5628V5.512Z" fill="#6F6F6F"/>
</svg>
