<svg width="89" height="10" viewBox="0 0 89 10" fill="none" xmlns="http://www.w3.org/2000/svg">
<path d="M5.424 9L3.348 5.496H1.8V9H0.96V0.611999H3.48C4.416 0.611999 5.124 0.835999 5.604 1.284C6.092 1.732 6.336 2.32 6.336 3.048C6.336 3.656 6.16 4.176 5.808 4.608C5.464 5.032 4.952 5.308 4.272 5.436L6.432 9H5.424ZM1.8 4.812H3.492C4.148 4.812 4.64 4.652 4.968 4.332C5.304 4.012 5.472 3.584 5.472 3.048C5.472 2.496 5.312 2.072 4.992 1.776C4.672 1.472 4.168 1.32 3.48 1.32H1.8V4.812ZM13.931 5.388C13.931 5.676 13.923 5.896 13.907 6.048H8.47097C8.49497 6.544 8.61497 6.968 8.83097 7.32C9.04697 7.672 9.33097 7.94 9.68297 8.124C10.035 8.3 10.419 8.388 10.835 8.388C11.379 8.388 11.835 8.256 12.203 7.992C12.579 7.728 12.827 7.372 12.947 6.924H13.835C13.675 7.564 13.331 8.088 12.803 8.496C12.283 8.896 11.627 9.096 10.835 9.096C10.219 9.096 9.66697 8.96 9.17897 8.688C8.69097 8.408 8.30697 8.016 8.02697 7.512C7.75497 7 7.61897 6.404 7.61897 5.724C7.61897 5.044 7.75497 4.448 8.02697 3.936C8.29897 3.424 8.67897 3.032 9.16697 2.76C9.65497 2.488 10.211 2.352 10.835 2.352C11.459 2.352 12.003 2.488 12.467 2.76C12.939 3.032 13.299 3.4 13.547 3.864C13.803 4.32 13.931 4.828 13.931 5.388ZM13.079 5.364C13.087 4.876 12.987 4.46 12.779 4.116C12.579 3.772 12.303 3.512 11.951 3.336C11.599 3.16 11.215 3.072 10.799 3.072C10.175 3.072 9.64297 3.272 9.20297 3.672C8.76297 4.072 8.51897 4.636 8.47097 5.364H13.079ZM23.2678 2.328C24.0358 2.328 24.6598 2.572 25.1398 3.06C25.6278 3.54 25.8718 4.24 25.8718 5.16V9H25.0438V5.256C25.0438 4.544 24.8718 4 24.5278 3.624C24.1838 3.248 23.7158 3.06 23.1238 3.06C22.5078 3.06 22.0158 3.264 21.6478 3.672C21.2798 4.08 21.0958 4.672 21.0958 5.448V9H20.2678V5.256C20.2678 4.544 20.0958 4 19.7518 3.624C19.4078 3.248 18.9358 3.06 18.3358 3.06C17.7198 3.06 17.2278 3.264 16.8598 3.672C16.4918 4.08 16.3078 4.672 16.3078 5.448V9H15.4678V2.448H16.3078V3.576C16.5158 3.168 16.8118 2.86 17.1958 2.652C17.5798 2.436 18.0078 2.328 18.4798 2.328C19.0478 2.328 19.5438 2.464 19.9678 2.736C20.3998 3.008 20.7118 3.408 20.9038 3.936C21.0798 3.416 21.3798 3.02 21.8038 2.748C22.2358 2.468 22.7238 2.328 23.2678 2.328ZM33.6653 5.388C33.6653 5.676 33.6573 5.896 33.6413 6.048H28.2053C28.2293 6.544 28.3493 6.968 28.5653 7.32C28.7813 7.672 29.0653 7.94 29.4173 8.124C29.7693 8.3 30.1533 8.388 30.5693 8.388C31.1133 8.388 31.5693 8.256 31.9373 7.992C32.3133 7.728 32.5613 7.372 32.6813 6.924H33.5693C33.4093 7.564 33.0653 8.088 32.5373 8.496C32.0173 8.896 31.3613 9.096 30.5693 9.096C29.9533 9.096 29.4013 8.96 28.9133 8.688C28.4253 8.408 28.0413 8.016 27.7613 7.512C27.4893 7 27.3533 6.404 27.3533 5.724C27.3533 5.044 27.4893 4.448 27.7613 3.936C28.0333 3.424 28.4133 3.032 28.9013 2.76C29.3893 2.488 29.9453 2.352 30.5693 2.352C31.1933 2.352 31.7373 2.488 32.2013 2.76C32.6733 3.032 33.0333 3.4 33.2813 3.864C33.5373 4.32 33.6653 4.828 33.6653 5.388ZM32.8133 5.364C32.8213 4.876 32.7213 4.46 32.5133 4.116C32.3133 3.772 32.0373 3.512 31.6853 3.336C31.3333 3.16 30.9493 3.072 30.5333 3.072C29.9093 3.072 29.3773 3.272 28.9373 3.672C28.4973 4.072 28.2533 4.636 28.2053 5.364H32.8133ZM43.0022 2.328C43.7702 2.328 44.3942 2.572 44.8742 3.06C45.3622 3.54 45.6062 4.24 45.6062 5.16V9H44.7782V5.256C44.7782 4.544 44.6062 4 44.2622 3.624C43.9182 3.248 43.4502 3.06 42.8582 3.06C42.2422 3.06 41.7502 3.264 41.3822 3.672C41.0142 4.08 40.8302 4.672 40.8302 5.448V9H40.0022V5.256C40.0022 4.544 39.8302 4 39.4862 3.624C39.1422 3.248 38.6702 3.06 38.0702 3.06C37.4542 3.06 36.9622 3.264 36.5942 3.672C36.2262 4.08 36.0422 4.672 36.0422 5.448V9H35.2022V2.448H36.0422V3.576C36.2502 3.168 36.5462 2.86 36.9302 2.652C37.3142 2.436 37.7422 2.328 38.2142 2.328C38.7822 2.328 39.2782 2.464 39.7022 2.736C40.1342 3.008 40.4462 3.408 40.6382 3.936C40.8142 3.416 41.1142 3.02 41.5382 2.748C41.9702 2.468 42.4582 2.328 43.0022 2.328ZM53.3997 5.388C53.3997 5.676 53.3917 5.896 53.3757 6.048H47.9397C47.9637 6.544 48.0837 6.968 48.2997 7.32C48.5157 7.672 48.7997 7.94 49.1517 8.124C49.5037 8.3 49.8877 8.388 50.3037 8.388C50.8477 8.388 51.3037 8.256 51.6717 7.992C52.0477 7.728 52.2957 7.372 52.4157 6.924H53.3037C53.1437 7.564 52.7997 8.088 52.2717 8.496C51.7517 8.896 51.0957 9.096 50.3037 9.096C49.6877 9.096 49.1357 8.96 48.6477 8.688C48.1597 8.408 47.7757 8.016 47.4957 7.512C47.2237 7 47.0877 6.404 47.0877 5.724C47.0877 5.044 47.2237 4.448 47.4957 3.936C47.7677 3.424 48.1477 3.032 48.6357 2.76C49.1237 2.488 49.6797 2.352 50.3037 2.352C50.9277 2.352 51.4717 2.488 51.9357 2.76C52.4077 3.032 52.7677 3.4 53.0157 3.864C53.2717 4.32 53.3997 4.828 53.3997 5.388ZM52.5477 5.364C52.5557 4.876 52.4557 4.46 52.2477 4.116C52.0477 3.772 51.7717 3.512 51.4197 3.336C51.0677 3.16 50.6837 3.072 50.2677 3.072C49.6437 3.072 49.1117 3.272 48.6717 3.672C48.2317 4.072 47.9877 4.636 47.9397 5.364H52.5477ZM55.7646 3.9C55.9806 3.444 56.3126 3.072 56.7606 2.784C57.2166 2.496 57.7526 2.352 58.3686 2.352C58.9686 2.352 59.5046 2.492 59.9766 2.772C60.4486 3.044 60.8166 3.436 61.0806 3.948C61.3526 4.452 61.4886 5.04 61.4886 5.712C61.4886 6.384 61.3526 6.976 61.0806 7.488C60.8166 8 60.4446 8.396 59.9646 8.676C59.4926 8.956 58.9606 9.096 58.3686 9.096C57.7446 9.096 57.2046 8.956 56.7486 8.676C56.3006 8.388 55.9726 8.016 55.7646 7.56V9H54.9366V0.12H55.7646V3.9ZM60.6366 5.712C60.6366 5.168 60.5286 4.7 60.3126 4.308C60.1046 3.908 59.8166 3.604 59.4486 3.396C59.0806 3.188 58.6646 3.084 58.2006 3.084C57.7526 3.084 57.3406 3.192 56.9646 3.408C56.5966 3.624 56.3046 3.932 56.0886 4.332C55.8726 4.732 55.7646 5.196 55.7646 5.724C55.7646 6.252 55.8726 6.716 56.0886 7.116C56.3046 7.516 56.5966 7.824 56.9646 8.04C57.3406 8.256 57.7526 8.364 58.2006 8.364C58.6646 8.364 59.0806 8.26 59.4486 8.052C59.8166 7.836 60.1046 7.528 60.3126 7.128C60.5286 6.72 60.6366 6.248 60.6366 5.712ZM63.8742 3.612C64.0582 3.204 64.3382 2.888 64.7142 2.664C65.0982 2.44 65.5662 2.328 66.1182 2.328V3.204H65.8902C65.2822 3.204 64.7942 3.368 64.4262 3.696C64.0582 4.024 63.8742 4.572 63.8742 5.34V9H63.0342V2.448H63.8742V3.612ZM78.4748 2.328C79.2428 2.328 79.8668 2.572 80.3468 3.06C80.8348 3.54 81.0788 4.24 81.0788 5.16V9H80.2508V5.256C80.2508 4.544 80.0788 4 79.7348 3.624C79.3908 3.248 78.9228 3.06 78.3308 3.06C77.7148 3.06 77.2228 3.264 76.8548 3.672C76.4868 4.08 76.3028 4.672 76.3028 5.448V9H75.4748V5.256C75.4748 4.544 75.3028 4 74.9588 3.624C74.6148 3.248 74.1428 3.06 73.5428 3.06C72.9268 3.06 72.4348 3.264 72.0668 3.672C71.6988 4.08 71.5148 4.672 71.5148 5.448V9H70.6748V2.448H71.5148V3.576C71.7228 3.168 72.0188 2.86 72.4028 2.652C72.7868 2.436 73.2148 2.328 73.6868 2.328C74.2548 2.328 74.7508 2.464 75.1748 2.736C75.6068 3.008 75.9188 3.408 76.1108 3.936C76.2868 3.416 76.5868 3.02 77.0108 2.748C77.4428 2.468 77.9308 2.328 78.4748 2.328ZM88.8724 5.388C88.8724 5.676 88.8644 5.896 88.8484 6.048H83.4124C83.4364 6.544 83.5564 6.968 83.7724 7.32C83.9884 7.672 84.2724 7.94 84.6244 8.124C84.9764 8.3 85.3604 8.388 85.7764 8.388C86.3204 8.388 86.7764 8.256 87.1444 7.992C87.5204 7.728 87.7684 7.372 87.8884 6.924H88.7764C88.6164 7.564 88.2724 8.088 87.7444 8.496C87.2244 8.896 86.5684 9.096 85.7764 9.096C85.1604 9.096 84.6084 8.96 84.1204 8.688C83.6324 8.408 83.2484 8.016 82.9684 7.512C82.6964 7 82.5604 6.404 82.5604 5.724C82.5604 5.044 82.6964 4.448 82.9684 3.936C83.2404 3.424 83.6204 3.032 84.1084 2.76C84.5964 2.488 85.1524 2.352 85.7764 2.352C86.4004 2.352 86.9444 2.488 87.4084 2.76C87.8804 3.032 88.2404 3.4 88.4884 3.864C88.7444 4.32 88.8724 4.828 88.8724 5.388ZM88.0204 5.364C88.0284 4.876 87.9284 4.46 87.7204 4.116C87.5204 3.772 87.2444 3.512 86.8924 3.336C86.5404 3.16 86.1564 3.072 85.7404 3.072C85.1164 3.072 84.5844 3.272 84.1444 3.672C83.7044 4.072 83.4604 4.636 83.4124 5.364H88.0204Z" fill="black"/>
</svg>
