<svg width="367" height="72" viewBox="0 0 367 72" fill="none" xmlns="http://www.w3.org/2000/svg">
<path d="M9.424 34.217C7.97733 34.217 6.67533 33.969 5.518 33.473C4.36067 32.9563 3.45133 32.233 2.79 31.303C2.12867 30.373 1.798 29.288 1.798 28.048H5.58C5.66267 28.978 6.02433 29.7427 6.665 30.342C7.32633 30.9413 8.246 31.241 9.424 31.241C10.6433 31.241 11.594 30.9517 12.276 30.373C12.958 29.7737 13.299 29.009 13.299 28.079C13.299 27.3557 13.082 26.7667 12.648 26.312C12.2347 25.8573 11.7077 25.506 11.067 25.258C10.447 25.01 9.579 24.7413 8.463 24.452C7.05767 24.08 5.91067 23.708 5.022 23.336C4.154 22.9433 3.41 22.344 2.79 21.538C2.17 20.732 1.86 19.6573 1.86 18.314C1.86 17.074 2.17 15.989 2.79 15.059C3.41 14.129 4.278 13.416 5.394 12.92C6.51 12.424 7.80167 12.176 9.269 12.176C11.3563 12.176 13.0613 12.703 14.384 13.757C15.7273 14.7903 16.4713 16.2163 16.616 18.035H12.71C12.648 17.2497 12.276 16.578 11.594 16.02C10.912 15.462 10.013 15.183 8.897 15.183C7.88433 15.183 7.05767 15.4413 6.417 15.958C5.77633 16.4747 5.456 17.2187 5.456 18.19C5.456 18.8513 5.65233 19.399 6.045 19.833C6.45833 20.2463 6.975 20.577 7.595 20.825C8.215 21.073 9.06233 21.3417 10.137 21.631C11.563 22.0237 12.7203 22.4163 13.609 22.809C14.5183 23.2017 15.283 23.8113 15.903 24.638C16.5437 25.444 16.864 26.529 16.864 27.893C16.864 28.9883 16.5643 30.0217 15.965 30.993C15.3863 31.9643 14.5287 32.7497 13.392 33.349C12.276 33.9277 10.9533 34.217 9.424 34.217ZM22.832 14.656C22.1913 14.656 21.654 14.439 21.22 14.005C20.786 13.571 20.569 13.0337 20.569 12.393C20.569 11.7523 20.786 11.215 21.22 10.781C21.654 10.347 22.1913 10.13 22.832 10.13C23.452 10.13 23.979 10.347 24.413 10.781C24.847 11.215 25.064 11.7523 25.064 12.393C25.064 13.0337 24.847 13.571 24.413 14.005C23.979 14.439 23.452 14.656 22.832 14.656ZM24.568 16.919V34H21.034V16.919H24.568ZM36.0898 16.64C37.4125 16.64 38.5801 16.9087 39.5928 17.446C40.6261 17.9627 41.4321 18.6137 42.0108 19.399V16.919H45.5758V34.279C45.5758 35.8497 45.2451 37.2447 44.5838 38.464C43.9225 39.704 42.9615 40.6753 41.7008 41.378C40.4608 42.0807 38.9728 42.432 37.2368 42.432C34.9221 42.432 33.0001 41.8843 31.4708 40.789C29.9415 39.7143 29.0735 38.247 28.8668 36.387H32.3698C32.6385 37.2757 33.2068 37.9887 34.0748 38.526C34.9635 39.084 36.0175 39.363 37.2368 39.363C38.6628 39.363 39.8098 38.929 40.6778 38.061C41.5665 37.193 42.0108 35.9323 42.0108 34.279V31.427C41.4115 32.233 40.5951 32.915 39.5618 33.473C38.5491 34.0103 37.3918 34.279 36.0898 34.279C34.6018 34.279 33.2378 33.907 31.9978 33.163C30.7785 32.3983 29.8071 31.3443 29.0838 30.001C28.3811 28.637 28.0298 27.0973 28.0298 25.382C28.0298 23.6667 28.3811 22.1477 29.0838 20.825C29.8071 19.5023 30.7785 18.4793 31.9978 17.756C33.2378 17.012 34.6018 16.64 36.0898 16.64ZM42.0108 25.444C42.0108 24.266 41.7628 23.243 41.2668 22.375C40.7915 21.507 40.1611 20.8457 39.3758 20.391C38.5905 19.9363 37.7431 19.709 36.8338 19.709C35.9245 19.709 35.0771 19.9363 34.2918 20.391C33.5065 20.825 32.8658 21.476 32.3698 22.344C31.8945 23.1913 31.6568 24.204 31.6568 25.382C31.6568 26.56 31.8945 27.5933 32.3698 28.482C32.8658 29.3707 33.5065 30.0527 34.2918 30.528C35.0978 30.9827 35.9451 31.21 36.8338 31.21C37.7431 31.21 38.5905 30.9827 39.3758 30.528C40.1611 30.0733 40.7915 29.412 41.2668 28.544C41.7628 27.6553 42.0108 26.622 42.0108 25.444ZM58.8356 16.64C60.1789 16.64 61.3776 16.919 62.4316 17.477C63.5062 18.035 64.3432 18.8617 64.9426 19.957C65.5419 21.0523 65.8416 22.375 65.8416 23.925V34H62.3386V24.452C62.3386 22.9227 61.9562 21.755 61.1916 20.949C60.4269 20.1223 59.3832 19.709 58.0606 19.709C56.7379 19.709 55.6839 20.1223 54.8986 20.949C54.1339 21.755 53.7516 22.9227 53.7516 24.452V34H50.2176V16.919H53.7516V18.872C54.3302 18.1693 55.0639 17.6217 55.9526 17.229C56.8619 16.8363 57.8229 16.64 58.8356 16.64ZM80.2001 14.656C79.5595 14.656 79.0221 14.439 78.5881 14.005C78.1541 13.571 77.9371 13.0337 77.9371 12.393C77.9371 11.7523 78.1541 11.215 78.5881 10.781C79.0221 10.347 79.5595 10.13 80.2001 10.13C80.8201 10.13 81.3471 10.347 81.7811 10.781C82.2151 11.215 82.4321 11.7523 82.4321 12.393C82.4321 13.0337 82.2151 13.571 81.7811 14.005C81.3471 14.439 80.8201 14.656 80.2001 14.656ZM81.9361 16.919V34H78.4021V16.919H81.9361ZM95.194 16.64C96.5373 16.64 97.736 16.919 98.79 17.477C99.8646 18.035 100.702 18.8617 101.301 19.957C101.9 21.0523 102.2 22.375 102.2 23.925V34H98.697V24.452C98.697 22.9227 98.3146 21.755 97.55 20.949C96.7853 20.1223 95.7416 19.709 94.419 19.709C93.0963 19.709 92.0423 20.1223 91.257 20.949C90.4923 21.755 90.11 22.9227 90.11 24.452V34H86.576V16.919H90.11V18.872C90.6886 18.1693 91.4223 17.6217 92.311 17.229C93.2203 16.8363 94.1813 16.64 95.194 16.64ZM118.884 19.802V29.257C118.884 29.8977 119.028 30.3627 119.318 30.652C119.628 30.9207 120.144 31.055 120.868 31.055H123.038V34H120.248C118.656 34 117.437 33.628 116.59 32.884C115.742 32.14 115.319 30.931 115.319 29.257V19.802H113.304V16.919H115.319V12.672H118.884V16.919H123.038V19.802H118.884ZM133.704 34.279C132.092 34.279 130.635 33.9173 129.333 33.194C128.031 32.45 127.008 31.4167 126.264 30.094C125.52 28.7507 125.148 27.2007 125.148 25.444C125.148 23.708 125.53 22.1683 126.295 20.825C127.059 19.4817 128.103 18.4483 129.426 17.725C130.748 17.0017 132.226 16.64 133.859 16.64C135.491 16.64 136.969 17.0017 138.292 17.725C139.614 18.4483 140.658 19.4817 141.423 20.825C142.187 22.1683 142.57 23.708 142.57 25.444C142.57 27.18 142.177 28.7197 141.392 30.063C140.606 31.4063 139.532 32.45 138.168 33.194C136.824 33.9173 135.336 34.279 133.704 34.279ZM133.704 31.21C134.613 31.21 135.46 30.993 136.246 30.559C137.052 30.125 137.703 29.474 138.199 28.606C138.695 27.738 138.943 26.684 138.943 25.444C138.943 24.204 138.705 23.1603 138.23 22.313C137.754 21.445 137.124 20.794 136.339 20.36C135.553 19.926 134.706 19.709 133.797 19.709C132.887 19.709 132.04 19.926 131.255 20.36C130.49 20.794 129.88 21.445 129.426 22.313C128.971 23.1603 128.744 24.204 128.744 25.444C128.744 27.2833 129.209 28.7093 130.139 29.722C131.089 30.714 132.278 31.21 133.704 31.21ZM169.492 16.919L159.014 42.029H155.356L158.828 33.721L152.101 16.919H156.038L160.843 29.939L165.834 16.919H169.492ZM179.568 34.279C177.956 34.279 176.499 33.9173 175.197 33.194C173.895 32.45 172.872 31.4167 172.128 30.094C171.384 28.7507 171.012 27.2007 171.012 25.444C171.012 23.708 171.394 22.1683 172.159 20.825C172.924 19.4817 173.967 18.4483 175.29 17.725C176.613 17.0017 178.09 16.64 179.723 16.64C181.356 16.64 182.833 17.0017 184.156 17.725C185.479 18.4483 186.522 19.4817 187.287 20.825C188.052 22.1683 188.434 23.708 188.434 25.444C188.434 27.18 188.041 28.7197 187.256 30.063C186.471 31.4063 185.396 32.45 184.032 33.194C182.689 33.9173 181.201 34.279 179.568 34.279ZM179.568 31.21C180.477 31.21 181.325 30.993 182.11 30.559C182.916 30.125 183.567 29.474 184.063 28.606C184.559 27.738 184.807 26.684 184.807 25.444C184.807 24.204 184.569 23.1603 184.094 22.313C183.619 21.445 182.988 20.794 182.203 20.36C181.418 19.926 180.57 19.709 179.661 19.709C178.752 19.709 177.904 19.926 177.119 20.36C176.354 20.794 175.745 21.445 175.29 22.313C174.835 23.1603 174.608 24.204 174.608 25.444C174.608 27.2833 175.073 28.7093 176.003 29.722C176.954 30.714 178.142 31.21 179.568 31.21ZM207.397 16.919V34H203.863V31.985C203.305 32.6877 202.571 33.2457 201.662 33.659C200.773 34.0517 199.822 34.248 198.81 34.248C197.466 34.248 196.257 33.969 195.183 33.411C194.129 32.853 193.292 32.0263 192.672 30.931C192.072 29.8357 191.773 28.513 191.773 26.963V16.919H195.276V26.436C195.276 27.9653 195.658 29.1433 196.423 29.97C197.187 30.776 198.231 31.179 199.554 31.179C200.876 31.179 201.92 30.776 202.685 29.97C203.47 29.1433 203.863 27.9653 203.863 26.436V16.919H207.397ZM215.593 19.399C216.11 18.531 216.792 17.8593 217.639 17.384C218.507 16.888 219.53 16.64 220.708 16.64V20.298H219.809C218.425 20.298 217.371 20.6493 216.647 21.352C215.945 22.0547 215.593 23.274 215.593 25.01V34H212.059V16.919H215.593V19.399ZM230.832 25.382C230.832 23.6667 231.183 22.1477 231.886 20.825C232.609 19.5023 233.58 18.4793 234.8 17.756C236.04 17.012 237.404 16.64 238.892 16.64C240.235 16.64 241.403 16.9087 242.395 17.446C243.407 17.9627 244.213 18.6137 244.813 19.399V16.919H248.378V34H244.813V31.458C244.213 32.264 243.397 32.9357 242.364 33.473C241.33 34.0103 240.152 34.279 238.83 34.279C237.362 34.279 236.019 33.907 234.8 33.163C233.58 32.3983 232.609 31.3443 231.886 30.001C231.183 28.637 230.832 27.0973 230.832 25.382ZM244.813 25.444C244.813 24.266 244.565 23.243 244.069 22.375C243.593 21.507 242.963 20.8457 242.178 20.391C241.392 19.9363 240.545 19.709 239.636 19.709C238.726 19.709 237.879 19.9363 237.094 20.391C236.308 20.825 235.668 21.476 235.172 22.344C234.696 23.1913 234.459 24.204 234.459 25.382C234.459 26.56 234.696 27.5933 235.172 28.482C235.668 29.3707 236.308 30.0527 237.094 30.528C237.9 30.9827 238.747 31.21 239.636 31.21C240.545 31.21 241.392 30.9827 242.178 30.528C242.963 30.0733 243.593 29.412 244.069 28.544C244.565 27.6553 244.813 26.622 244.813 25.444ZM251.841 25.444C251.841 23.6873 252.193 22.1477 252.895 20.825C253.619 19.4817 254.611 18.4483 255.871 17.725C257.132 17.0017 258.579 16.64 260.211 16.64C262.278 16.64 263.983 17.136 265.326 18.128C266.69 19.0993 267.61 20.4943 268.085 22.313H264.272C263.962 21.4657 263.466 20.8043 262.784 20.329C262.102 19.8537 261.245 19.616 260.211 19.616C258.765 19.616 257.607 20.1327 256.739 21.166C255.892 22.1787 255.468 23.6047 255.468 25.444C255.468 27.2833 255.892 28.7197 256.739 29.753C257.607 30.7863 258.765 31.303 260.211 31.303C262.257 31.303 263.611 30.404 264.272 28.606H268.085C267.589 30.342 266.659 31.7267 265.295 32.76C263.931 33.7727 262.237 34.279 260.211 34.279C258.579 34.279 257.132 33.9173 255.871 33.194C254.611 32.45 253.619 31.4167 252.895 30.094C252.193 28.7507 251.841 27.2007 251.841 25.444ZM270.429 25.444C270.429 23.6873 270.781 22.1477 271.483 20.825C272.207 19.4817 273.199 18.4483 274.459 17.725C275.72 17.0017 277.167 16.64 278.799 16.64C280.866 16.64 282.571 17.136 283.914 18.128C285.278 19.0993 286.198 20.4943 286.673 22.313H282.86C282.55 21.4657 282.054 20.8043 281.372 20.329C280.69 19.8537 279.833 19.616 278.799 19.616C277.353 19.616 276.195 20.1327 275.327 21.166C274.48 22.1787 274.056 23.6047 274.056 25.444C274.056 27.2833 274.48 28.7197 275.327 29.753C276.195 30.7863 277.353 31.303 278.799 31.303C280.845 31.303 282.199 30.404 282.86 28.606H286.673C286.177 30.342 285.247 31.7267 283.883 32.76C282.519 33.7727 280.825 34.279 278.799 34.279C277.167 34.279 275.72 33.9173 274.459 33.194C273.199 32.45 272.207 31.4167 271.483 30.094C270.781 28.7507 270.429 27.2007 270.429 25.444ZM297.604 34.279C295.992 34.279 294.535 33.9173 293.233 33.194C291.931 32.45 290.908 31.4167 290.164 30.094C289.42 28.7507 289.048 27.2007 289.048 25.444C289.048 23.708 289.43 22.1683 290.195 20.825C290.96 19.4817 292.003 18.4483 293.326 17.725C294.649 17.0017 296.126 16.64 297.759 16.64C299.392 16.64 300.869 17.0017 302.192 17.725C303.515 18.4483 304.558 19.4817 305.323 20.825C306.088 22.1683 306.47 23.708 306.47 25.444C306.47 27.18 306.077 28.7197 305.292 30.063C304.507 31.4063 303.432 32.45 302.068 33.194C300.725 33.9173 299.237 34.279 297.604 34.279ZM297.604 31.21C298.513 31.21 299.361 30.993 300.146 30.559C300.952 30.125 301.603 29.474 302.099 28.606C302.595 27.738 302.843 26.684 302.843 25.444C302.843 24.204 302.605 23.1603 302.13 22.313C301.655 21.445 301.024 20.794 300.239 20.36C299.454 19.926 298.606 19.709 297.697 19.709C296.788 19.709 295.94 19.926 295.155 20.36C294.39 20.794 293.781 21.445 293.326 22.313C292.871 23.1603 292.644 24.204 292.644 25.444C292.644 27.2833 293.109 28.7093 294.039 29.722C294.99 30.714 296.178 31.21 297.604 31.21ZM325.433 16.919V34H321.899V31.985C321.341 32.6877 320.607 33.2457 319.698 33.659C318.809 34.0517 317.858 34.248 316.846 34.248C315.502 34.248 314.293 33.969 313.219 33.411C312.165 32.853 311.328 32.0263 310.708 30.931C310.108 29.8357 309.809 28.513 309.809 26.963V16.919H313.312V26.436C313.312 27.9653 313.694 29.1433 314.459 29.97C315.223 30.776 316.267 31.179 317.59 31.179C318.912 31.179 319.956 30.776 320.721 29.97C321.506 29.1433 321.899 27.9653 321.899 26.436V16.919H325.433ZM338.714 16.64C340.057 16.64 341.256 16.919 342.31 17.477C343.384 18.035 344.221 18.8617 344.821 19.957C345.42 21.0523 345.72 22.375 345.72 23.925V34H342.217V24.452C342.217 22.9227 341.834 21.755 341.07 20.949C340.305 20.1223 339.261 19.709 337.939 19.709C336.616 19.709 335.562 20.1223 334.777 20.949C334.012 21.755 333.63 22.9227 333.63 24.452V34H330.096V16.919H333.63V18.872C334.208 18.1693 334.942 17.6217 335.831 17.229C336.74 16.8363 337.701 16.64 338.714 16.64ZM354.35 19.802V29.257C354.35 29.8977 354.495 30.3627 354.784 30.652C355.094 30.9207 355.611 31.055 356.334 31.055H358.504V34H355.714C354.123 34 352.904 33.628 352.056 32.884C351.209 32.14 350.785 30.931 350.785 29.257V19.802H348.77V16.919H350.785V12.672H354.35V16.919H358.504V19.802H354.35ZM363.188 34.217C362.547 34.217 362.01 34 361.576 33.566C361.142 33.132 360.925 32.5947 360.925 31.954C360.925 31.3133 361.142 30.776 361.576 30.342C362.01 29.908 362.547 29.691 363.188 29.691C363.808 29.691 364.335 29.908 364.769 30.342C365.203 30.776 365.42 31.3133 365.42 31.954C365.42 32.5947 365.203 33.132 364.769 33.566C364.335 34 363.808 34.217 363.188 34.217Z" fill="black"/>
<path d="M10.176 68.112L7.952 65.888C7.408 66.0373 6.85333 66.112 6.288 66.112C5.25333 66.112 4.30933 65.872 3.456 65.392C2.60267 64.9013 1.92533 64.224 1.424 63.36C0.933333 62.4853 0.688 61.504 0.688 60.416C0.688 59.328 0.933333 58.352 1.424 57.488C1.92533 56.6133 2.60267 55.936 3.456 55.456C4.30933 54.9653 5.25333 54.72 6.288 54.72C7.33333 54.72 8.28267 54.9653 9.136 55.456C9.98933 55.936 10.6613 56.608 11.152 57.472C11.6427 58.336 11.888 59.3173 11.888 60.416C11.888 61.4827 11.6533 62.4427 11.184 63.296C10.7147 64.1493 10.0693 64.8213 9.248 65.312L12.064 68.112H10.176ZM2.176 60.416C2.176 61.3013 2.352 62.08 2.704 62.752C3.06667 63.424 3.55733 63.9413 4.176 64.304C4.80533 64.6667 5.50933 64.848 6.288 64.848C7.06667 64.848 7.76533 64.6667 8.384 64.304C9.01333 63.9413 9.504 63.424 9.856 62.752C10.2187 62.08 10.4 61.3013 10.4 60.416C10.4 59.52 10.2187 58.7413 9.856 58.08C9.504 57.408 9.01867 56.8907 8.4 56.528C7.78133 56.1653 7.07733 55.984 6.288 55.984C5.49867 55.984 4.79467 56.1653 4.176 56.528C3.55733 56.8907 3.06667 57.408 2.704 58.08C2.352 58.7413 2.176 59.52 2.176 60.416ZM22.7854 68.112L20.5614 65.888C20.0174 66.0373 19.4627 66.112 18.8974 66.112C17.8627 66.112 16.9187 65.872 16.0654 65.392C15.212 64.9013 14.5347 64.224 14.0334 63.36C13.5427 62.4853 13.2974 61.504 13.2974 60.416C13.2974 59.328 13.5427 58.352 14.0334 57.488C14.5347 56.6133 15.212 55.936 16.0654 55.456C16.9187 54.9653 17.8627 54.72 18.8974 54.72C19.9427 54.72 20.892 54.9653 21.7454 55.456C22.5987 55.936 23.2707 56.608 23.7614 57.472C24.252 58.336 24.4974 59.3173 24.4974 60.416C24.4974 61.4827 24.2627 62.4427 23.7934 63.296C23.324 64.1493 22.6787 64.8213 21.8574 65.312L24.6734 68.112H22.7854ZM14.7854 60.416C14.7854 61.3013 14.9614 62.08 15.3134 62.752C15.676 63.424 16.1667 63.9413 16.7854 64.304C17.4147 64.6667 18.1187 64.848 18.8974 64.848C19.676 64.848 20.3747 64.6667 20.9934 64.304C21.6227 63.9413 22.1134 63.424 22.4654 62.752C22.828 62.08 23.0094 61.3013 23.0094 60.416C23.0094 59.52 22.828 58.7413 22.4654 58.08C22.1134 57.408 21.628 56.8907 21.0094 56.528C20.3907 56.1653 19.6867 55.984 18.8974 55.984C18.108 55.984 17.404 56.1653 16.7854 56.528C16.1667 56.8907 15.676 57.408 15.3134 58.08C14.9614 58.7413 14.7854 59.52 14.7854 60.416ZM35.3948 68.112L33.1708 65.888C32.6268 66.0373 32.0721 66.112 31.5068 66.112C30.4721 66.112 29.5281 65.872 28.6748 65.392C27.8214 64.9013 27.1441 64.224 26.6428 63.36C26.1521 62.4853 25.9068 61.504 25.9068 60.416C25.9068 59.328 26.1521 58.352 26.6428 57.488C27.1441 56.6133 27.8214 55.936 28.6748 55.456C29.5281 54.9653 30.4721 54.72 31.5068 54.72C32.5521 54.72 33.5014 54.9653 34.3548 55.456C35.2081 55.936 35.8801 56.608 36.3708 57.472C36.8614 58.336 37.1068 59.3173 37.1068 60.416C37.1068 61.4827 36.8721 62.4427 36.4028 63.296C35.9334 64.1493 35.2881 64.8213 34.4668 65.312L37.2828 68.112H35.3948ZM27.3948 60.416C27.3948 61.3013 27.5708 62.08 27.9228 62.752C28.2854 63.424 28.7761 63.9413 29.3948 64.304C30.0241 64.6667 30.7281 64.848 31.5068 64.848C32.2854 64.848 32.9841 64.6667 33.6028 64.304C34.2321 63.9413 34.7228 63.424 35.0748 62.752C35.4374 62.08 35.6188 61.3013 35.6188 60.416C35.6188 59.52 35.4374 58.7413 35.0748 58.08C34.7228 57.408 34.2374 56.8907 33.6188 56.528C33.0001 56.1653 32.2961 55.984 31.5068 55.984C30.7174 55.984 30.0134 56.1653 29.3948 56.528C28.7761 56.8907 28.2854 57.408 27.9228 58.08C27.5708 58.7413 27.3948 59.52 27.3948 60.416Z" fill="black"/>
</svg>
