<svg width="423" height="57" viewBox="0 0 423 57" fill="none" xmlns="http://www.w3.org/2000/svg">
<rect width="423" height="57" rx="6" fill="black"/>
<path d="M164.152 30.288C164.749 30.3947 165.256 30.7093 165.672 31.232C166.088 31.7547 166.296 32.3467 166.296 33.008C166.296 33.5733 166.147 34.0853 165.848 34.544C165.56 34.992 165.139 35.3493 164.584 35.616C164.029 35.872 163.384 36 162.648 36H158.2V24.88H162.44C163.197 24.88 163.848 25.008 164.392 25.264C164.936 25.52 165.347 25.8667 165.624 26.304C165.901 26.7307 166.04 27.2107 166.04 27.744C166.04 28.384 165.869 28.9173 165.528 29.344C165.187 29.7707 164.728 30.0853 164.152 30.288ZM160.024 29.552H162.28C162.877 29.552 163.341 29.4187 163.672 29.152C164.013 28.8747 164.184 28.48 164.184 27.968C164.184 27.4667 164.013 27.0773 163.672 26.8C163.341 26.512 162.877 26.368 162.28 26.368H160.024V29.552ZM162.488 34.512C163.107 34.512 163.592 34.3627 163.944 34.064C164.296 33.7653 164.472 33.3493 164.472 32.816C164.472 32.272 164.285 31.84 163.912 31.52C163.539 31.2 163.043 31.04 162.424 31.04H160.024V34.512H162.488ZM167.67 31.552C167.67 30.6667 167.851 29.8827 168.214 29.2C168.587 28.5173 169.089 27.9893 169.718 27.616C170.358 27.232 171.062 27.04 171.83 27.04C172.523 27.04 173.126 27.1787 173.638 27.456C174.161 27.7227 174.577 28.0587 174.886 28.464V27.184H176.726V36H174.886V34.688C174.577 35.104 174.155 35.4507 173.622 35.728C173.089 36.0053 172.481 36.144 171.798 36.144C171.041 36.144 170.347 35.952 169.718 35.568C169.089 35.1733 168.587 34.6293 168.214 33.936C167.851 33.232 167.67 32.4373 167.67 31.552ZM174.886 31.584C174.886 30.976 174.758 30.448 174.502 30C174.257 29.552 173.931 29.2107 173.526 28.976C173.121 28.7413 172.683 28.624 172.214 28.624C171.745 28.624 171.307 28.7413 170.902 28.976C170.497 29.2 170.166 29.536 169.91 29.984C169.665 30.4213 169.542 30.944 169.542 31.552C169.542 32.16 169.665 32.6933 169.91 33.152C170.166 33.6107 170.497 33.9627 170.902 34.208C171.318 34.4427 171.755 34.56 172.214 34.56C172.683 34.56 173.121 34.4427 173.526 34.208C173.931 33.9733 174.257 33.632 174.502 33.184C174.758 32.7253 174.886 32.192 174.886 31.584ZM178.514 31.584C178.514 30.6773 178.695 29.8827 179.058 29.2C179.431 28.5067 179.943 27.9733 180.594 27.6C181.245 27.2267 181.991 27.04 182.834 27.04C183.901 27.04 184.781 27.296 185.474 27.808C186.178 28.3093 186.653 29.0293 186.898 29.968H184.93C184.77 29.5307 184.514 29.1893 184.162 28.944C183.81 28.6987 183.367 28.576 182.834 28.576C182.087 28.576 181.49 28.8427 181.042 29.376C180.605 29.8987 180.386 30.6347 180.386 31.584C180.386 32.5333 180.605 33.2747 181.042 33.808C181.49 34.3413 182.087 34.608 182.834 34.608C183.89 34.608 184.589 34.144 184.93 33.216H186.898C186.642 34.112 186.162 34.8267 185.458 35.36C184.754 35.8827 183.879 36.144 182.834 36.144C181.991 36.144 181.245 35.9573 180.594 35.584C179.943 35.2 179.431 34.6667 179.058 33.984C178.695 33.2907 178.514 32.4907 178.514 31.584ZM192.204 31.6L196.268 36H193.804L190.54 32.208V36H188.716V24.16H190.54V31.04L193.74 27.184H196.268L192.204 31.6ZM208.915 24.88V26.368H205.955V36H204.131V26.368H201.155V24.88H208.915ZM214.587 36.144C213.755 36.144 213.003 35.9573 212.331 35.584C211.659 35.2 211.131 34.6667 210.747 33.984C210.363 33.2907 210.171 32.4907 210.171 31.584C210.171 30.688 210.368 29.8933 210.763 29.2C211.157 28.5067 211.696 27.9733 212.379 27.6C213.061 27.2267 213.824 27.04 214.667 27.04C215.509 27.04 216.272 27.2267 216.955 27.6C217.637 27.9733 218.176 28.5067 218.571 29.2C218.965 29.8933 219.163 30.688 219.163 31.584C219.163 32.48 218.96 33.2747 218.555 33.968C218.149 34.6613 217.595 35.2 216.891 35.584C216.197 35.9573 215.429 36.144 214.587 36.144ZM214.587 34.56C215.056 34.56 215.493 34.448 215.899 34.224C216.315 34 216.651 33.664 216.907 33.216C217.163 32.768 217.291 32.224 217.291 31.584C217.291 30.944 217.168 30.4053 216.923 29.968C216.677 29.52 216.352 29.184 215.947 28.96C215.541 28.736 215.104 28.624 214.635 28.624C214.165 28.624 213.728 28.736 213.323 28.96C212.928 29.184 212.613 29.52 212.379 29.968C212.144 30.4053 212.027 30.944 212.027 31.584C212.027 32.5333 212.267 33.2693 212.747 33.792C213.237 34.304 213.851 34.56 214.587 34.56ZM226.946 34.528H230.706V36H225.122V24.88H226.946V34.528ZM236.055 36.144C235.223 36.144 234.471 35.9573 233.799 35.584C233.127 35.2 232.599 34.6667 232.215 33.984C231.831 33.2907 231.639 32.4907 231.639 31.584C231.639 30.688 231.837 29.8933 232.231 29.2C232.626 28.5067 233.165 27.9733 233.847 27.6C234.53 27.2267 235.293 27.04 236.135 27.04C236.978 27.04 237.741 27.2267 238.423 27.6C239.106 27.9733 239.645 28.5067 240.039 29.2C240.434 29.8933 240.631 30.688 240.631 31.584C240.631 32.48 240.429 33.2747 240.023 33.968C239.618 34.6613 239.063 35.2 238.359 35.584C237.666 35.9573 236.898 36.144 236.055 36.144ZM236.055 34.56C236.525 34.56 236.962 34.448 237.367 34.224C237.783 34 238.119 33.664 238.375 33.216C238.631 32.768 238.759 32.224 238.759 31.584C238.759 30.944 238.637 30.4053 238.391 29.968C238.146 29.52 237.821 29.184 237.415 28.96C237.01 28.736 236.573 28.624 236.103 28.624C235.634 28.624 235.197 28.736 234.791 28.96C234.397 29.184 234.082 29.52 233.847 29.968C233.613 30.4053 233.495 30.944 233.495 31.584C233.495 32.5333 233.735 33.2693 234.215 33.792C234.706 34.304 235.319 34.56 236.055 34.56ZM245.986 27.04C246.669 27.04 247.272 27.1787 247.794 27.456C248.328 27.7227 248.744 28.0587 249.042 28.464V27.184H250.882V36.144C250.882 36.9547 250.712 37.6747 250.37 38.304C250.029 38.944 249.533 39.4453 248.882 39.808C248.242 40.1707 247.474 40.352 246.578 40.352C245.384 40.352 244.392 40.0693 243.602 39.504C242.813 38.9493 242.365 38.192 242.258 37.232H244.066C244.205 37.6907 244.498 38.0587 244.946 38.336C245.405 38.624 245.949 38.768 246.578 38.768C247.314 38.768 247.906 38.544 248.354 38.096C248.813 37.648 249.042 36.9973 249.042 36.144V34.672C248.733 35.088 248.312 35.44 247.778 35.728C247.256 36.0053 246.658 36.144 245.986 36.144C245.218 36.144 244.514 35.952 243.874 35.568C243.245 35.1733 242.744 34.6293 242.37 33.936C242.008 33.232 241.826 32.4373 241.826 31.552C241.826 30.6667 242.008 29.8827 242.37 29.2C242.744 28.5173 243.245 27.9893 243.874 27.616C244.514 27.232 245.218 27.04 245.986 27.04ZM249.042 31.584C249.042 30.976 248.914 30.448 248.658 30C248.413 29.552 248.088 29.2107 247.682 28.976C247.277 28.7413 246.84 28.624 246.37 28.624C245.901 28.624 245.464 28.7413 245.058 28.976C244.653 29.2 244.322 29.536 244.066 29.984C243.821 30.4213 243.698 30.944 243.698 31.552C243.698 32.16 243.821 32.6933 244.066 33.152C244.322 33.6107 244.653 33.9627 245.058 34.208C245.474 34.4427 245.912 34.56 246.37 34.56C246.84 34.56 247.277 34.4427 247.682 34.208C248.088 33.9733 248.413 33.632 248.658 33.184C248.914 32.7253 249.042 32.192 249.042 31.584ZM254.206 26.016C253.875 26.016 253.598 25.904 253.374 25.68C253.15 25.456 253.038 25.1787 253.038 24.848C253.038 24.5173 253.15 24.24 253.374 24.016C253.598 23.792 253.875 23.68 254.206 23.68C254.526 23.68 254.798 23.792 255.022 24.016C255.246 24.24 255.358 24.5173 255.358 24.848C255.358 25.1787 255.246 25.456 255.022 25.68C254.798 25.904 254.526 26.016 254.206 26.016ZM255.102 27.184V36H253.278V27.184H255.102ZM261.945 27.04C262.638 27.04 263.257 27.184 263.801 27.472C264.356 27.76 264.788 28.1867 265.097 28.752C265.406 29.3173 265.561 30 265.561 30.8V36H263.753V31.072C263.753 30.2827 263.556 29.68 263.161 29.264C262.766 28.8373 262.228 28.624 261.545 28.624C260.862 28.624 260.318 28.8373 259.913 29.264C259.518 29.68 259.321 30.2827 259.321 31.072V36H257.497V27.184H259.321V28.192C259.62 27.8293 259.998 27.5467 260.457 27.344C260.926 27.1413 261.422 27.04 261.945 27.04Z" fill="white"/>
</svg>
