<svg width="42" height="14" viewBox="0 0 42 14" fill="none" xmlns="http://www.w3.org/2000/svg">
<path d="M1.688 3.032V6.76H5.752V7.96H1.688V11.8H6.232V13H0.232V1.832H6.232V3.032H1.688ZM18.9791 4.072C19.6618 4.072 20.2698 4.216 20.8031 4.504C21.3365 4.78133 21.7578 5.20267 22.0671 5.768C22.3765 6.33333 22.5311 7.02133 22.5311 7.832V13H21.0911V8.04C21.0911 7.16533 20.8725 6.49867 20.4351 6.04C20.0085 5.57067 19.4271 5.336 18.6911 5.336C17.9338 5.336 17.3311 5.58133 16.8831 6.072C16.4351 6.552 16.2111 7.25067 16.2111 8.168V13H14.7711V8.04C14.7711 7.16533 14.5525 6.49867 14.1151 6.04C13.6885 5.57067 13.1071 5.336 12.3711 5.336C11.6138 5.336 11.0111 5.58133 10.5631 6.072C10.1151 6.552 9.89113 7.25067 9.89113 8.168V13H8.43513V4.232H9.89113V5.496C10.1791 5.03733 10.5631 4.68533 11.0431 4.44C11.5338 4.19467 12.0725 4.072 12.6591 4.072C13.3951 4.072 14.0458 4.23733 14.6111 4.568C15.1765 4.89867 15.5978 5.384 15.8751 6.024C16.1205 5.40533 16.5258 4.92533 17.0911 4.584C17.6565 4.24267 18.2858 4.072 18.9791 4.072ZM24.3755 8.584C24.3755 7.688 24.5568 6.904 24.9195 6.232C25.2822 5.54933 25.7782 5.02133 26.4075 4.648C27.0475 4.27467 27.7568 4.088 28.5355 4.088C29.3035 4.088 29.9702 4.25333 30.5355 4.584C31.1008 4.91467 31.5222 5.33067 31.7995 5.832V4.232H33.2715V13H31.7995V11.368C31.5115 11.88 31.0795 12.3067 30.5035 12.648C29.9382 12.9787 29.2768 13.144 28.5195 13.144C27.7408 13.144 27.0368 12.952 26.4075 12.568C25.7782 12.184 25.2822 11.6453 24.9195 10.952C24.5568 10.2587 24.3755 9.46933 24.3755 8.584ZM31.7995 8.6C31.7995 7.93867 31.6662 7.36267 31.3995 6.872C31.1328 6.38133 30.7702 6.008 30.3115 5.752C29.8635 5.48533 29.3675 5.352 28.8235 5.352C28.2795 5.352 27.7835 5.48 27.3355 5.736C26.8875 5.992 26.5302 6.36533 26.2635 6.856C25.9968 7.34667 25.8635 7.92267 25.8635 8.584C25.8635 9.256 25.9968 9.84267 26.2635 10.344C26.5302 10.8347 26.8875 11.2133 27.3355 11.48C27.7835 11.736 28.2795 11.864 28.8235 11.864C29.3675 11.864 29.8635 11.736 30.3115 11.48C30.7702 11.2133 31.1328 10.8347 31.3995 10.344C31.6662 9.84267 31.7995 9.26133 31.7995 8.6ZM36.484 2.808C36.2067 2.808 35.972 2.712 35.78 2.52C35.588 2.328 35.492 2.09333 35.492 1.816C35.492 1.53867 35.588 1.304 35.78 1.112C35.972 0.919999 36.2067 0.823999 36.484 0.823999C36.7507 0.823999 36.9747 0.919999 37.156 1.112C37.348 1.304 37.444 1.53867 37.444 1.816C37.444 2.09333 37.348 2.328 37.156 2.52C36.9747 2.712 36.7507 2.808 36.484 2.808ZM37.188 4.232V13H35.732V4.232H37.188ZM41.1255 1.16V13H39.6695V1.16H41.1255Z" fill="black"/>
</svg>
