<svg width="242" height="24" viewBox="0 0 242 24" fill="none" xmlns="http://www.w3.org/2000/svg">
<path d="M15.391 7.872C15.391 8.96733 15.1327 10.0007 14.616 10.972C14.0993 11.9433 13.2727 12.739 12.136 13.359C10.9993 13.9583 9.54233 14.258 7.765 14.258H3.859V23H0.325V1.455H7.765C9.41833 1.455 10.8133 1.74433 11.95 2.323C13.1073 2.881 13.965 3.64567 14.523 4.617C15.1017 5.58833 15.391 6.67333 15.391 7.872ZM7.765 11.375C9.10833 11.375 10.1107 11.0753 10.772 10.476C11.4333 9.856 11.764 8.988 11.764 7.872C11.764 5.516 10.431 4.338 7.765 4.338H3.859V11.375H7.765ZM17.5835 14.382C17.5835 12.6667 17.9349 11.1477 18.6375 9.825C19.3609 8.50233 20.3322 7.47933 21.5515 6.756C22.7915 6.012 24.1555 5.64 25.6435 5.64C26.9869 5.64 28.1545 5.90867 29.1465 6.446C30.1592 6.96267 30.9652 7.61367 31.5645 8.399V5.919H35.1295V23H31.5645V20.458C30.9652 21.264 30.1489 21.9357 29.1155 22.473C28.0822 23.0103 26.9042 23.279 25.5815 23.279C24.1142 23.279 22.7709 22.907 21.5515 22.163C20.3322 21.3983 19.3609 20.3443 18.6375 19.001C17.9349 17.637 17.5835 16.0973 17.5835 14.382ZM31.5645 14.444C31.5645 13.266 31.3165 12.243 30.8205 11.375C30.3452 10.507 29.7149 9.84567 28.9295 9.391C28.1442 8.93633 27.2969 8.709 26.3875 8.709C25.4782 8.709 24.6309 8.93633 23.8455 9.391C23.0602 9.825 22.4195 10.476 21.9235 11.344C21.4482 12.1913 21.2105 13.204 21.2105 14.382C21.2105 15.56 21.4482 16.5933 21.9235 17.482C22.4195 18.3707 23.0602 19.0527 23.8455 19.528C24.6515 19.9827 25.4989 20.21 26.3875 20.21C27.2969 20.21 28.1442 19.9827 28.9295 19.528C29.7149 19.0733 30.3452 18.412 30.8205 17.544C31.3165 16.6553 31.5645 15.622 31.5645 14.444ZM45.9713 23.279C44.628 23.279 43.419 23.0413 42.3443 22.566C41.2903 22.07 40.4533 21.4087 39.8333 20.582C39.2133 19.7347 38.8826 18.7943 38.8413 17.761H42.4993C42.5613 18.4843 42.9023 19.094 43.5223 19.59C44.163 20.0653 44.9586 20.303 45.9093 20.303C46.9013 20.303 47.666 20.117 48.2033 19.745C48.7613 19.3523 49.0403 18.8563 49.0403 18.257C49.0403 17.6163 48.7303 17.141 48.1103 16.831C47.511 16.521 46.55 16.18 45.2273 15.808C43.946 15.4567 42.9023 15.1157 42.0963 14.785C41.2903 14.4543 40.5876 13.948 39.9883 13.266C39.4096 12.584 39.1203 11.685 39.1203 10.569C39.1203 9.65967 39.389 8.833 39.9263 8.089C40.4636 7.32433 41.2283 6.725 42.2203 6.291C43.233 5.857 44.3903 5.64 45.6923 5.64C47.635 5.64 49.1953 6.136 50.3733 7.128C51.572 8.09933 52.2126 9.43233 52.2953 11.127H48.7613C48.6993 10.3623 48.3893 9.75267 47.8313 9.298C47.2733 8.84333 46.519 8.616 45.5683 8.616C44.6383 8.616 43.9253 8.79167 43.4293 9.143C42.9333 9.49433 42.6853 9.95933 42.6853 10.538C42.6853 10.9927 42.8506 11.375 43.1813 11.685C43.512 11.995 43.915 12.243 44.3903 12.429C44.8656 12.5943 45.5683 12.8113 46.4983 13.08C47.7383 13.4107 48.751 13.7517 49.5363 14.103C50.3423 14.4337 51.0346 14.9297 51.6133 15.591C52.192 16.2523 52.4916 17.1307 52.5123 18.226C52.5123 19.1973 52.2436 20.0653 51.7063 20.83C51.169 21.5947 50.4043 22.194 49.4123 22.628C48.441 23.062 47.294 23.279 45.9713 23.279ZM62.5309 23.279C61.1875 23.279 59.9785 23.0413 58.9039 22.566C57.8499 22.07 57.0129 21.4087 56.3929 20.582C55.7729 19.7347 55.4422 18.7943 55.4009 17.761H59.0589C59.1209 18.4843 59.4619 19.094 60.0819 19.59C60.7225 20.0653 61.5182 20.303 62.4689 20.303C63.4609 20.303 64.2255 20.117 64.7629 19.745C65.3209 19.3523 65.5999 18.8563 65.5999 18.257C65.5999 17.6163 65.2899 17.141 64.6699 16.831C64.0705 16.521 63.1095 16.18 61.7869 15.808C60.5055 15.4567 59.4619 15.1157 58.6559 14.785C57.8499 14.4543 57.1472 13.948 56.5479 13.266C55.9692 12.584 55.6799 11.685 55.6799 10.569C55.6799 9.65967 55.9485 8.833 56.4859 8.089C57.0232 7.32433 57.7879 6.725 58.7799 6.291C59.7925 5.857 60.9499 5.64 62.2519 5.64C64.1945 5.64 65.7549 6.136 66.9329 7.128C68.1315 8.09933 68.7722 9.43233 68.8549 11.127H65.3209C65.2589 10.3623 64.9489 9.75267 64.3909 9.298C63.8329 8.84333 63.0785 8.616 62.1279 8.616C61.1979 8.616 60.4849 8.79167 59.9889 9.143C59.4929 9.49433 59.2449 9.95933 59.2449 10.538C59.2449 10.9927 59.4102 11.375 59.7409 11.685C60.0715 11.995 60.4745 12.243 60.9499 12.429C61.4252 12.5943 62.1279 12.8113 63.0579 13.08C64.2979 13.4107 65.3105 13.7517 66.0959 14.103C66.9019 14.4337 67.5942 14.9297 68.1729 15.591C68.7515 16.2523 69.0512 17.1307 69.0719 18.226C69.0719 19.1973 68.8032 20.0653 68.2659 20.83C67.7285 21.5947 66.9639 22.194 65.9719 22.628C65.0005 23.062 63.8535 23.279 62.5309 23.279ZM95.8304 5.919L90.5294 23H86.8094L83.3684 10.383L79.9274 23H76.2074L70.8754 5.919H74.4714L78.0364 19.652L81.6634 5.919H85.3524L88.8244 19.59L92.3584 5.919H95.8304ZM105.88 23.279C104.268 23.279 102.811 22.9173 101.509 22.194C100.207 21.45 99.1845 20.4167 98.4405 19.094C97.6965 17.7507 97.3245 16.2007 97.3245 14.444C97.3245 12.708 97.7068 11.1683 98.4715 9.825C99.2362 8.48167 100.28 7.44833 101.602 6.725C102.925 6.00167 104.403 5.64 106.035 5.64C107.668 5.64 109.146 6.00167 110.468 6.725C111.791 7.44833 112.835 8.48167 113.599 9.825C114.364 11.1683 114.746 12.708 114.746 14.444C114.746 16.18 114.354 17.7197 113.568 19.063C112.783 20.4063 111.708 21.45 110.344 22.194C109.001 22.9173 107.513 23.279 105.88 23.279ZM105.88 20.21C106.79 20.21 107.637 19.993 108.422 19.559C109.228 19.125 109.879 18.474 110.375 17.606C110.871 16.738 111.119 15.684 111.119 14.444C111.119 13.204 110.882 12.1603 110.406 11.313C109.931 10.445 109.301 9.794 108.515 9.36C107.73 8.926 106.883 8.709 105.973 8.709C105.064 8.709 104.217 8.926 103.431 9.36C102.667 9.794 102.057 10.445 101.602 11.313C101.148 12.1603 100.92 13.204 100.92 14.444C100.92 16.2833 101.385 17.7093 102.315 18.722C103.266 19.714 104.454 20.21 105.88 20.21ZM121.774 8.399C122.291 7.531 122.973 6.85933 123.82 6.384C124.688 5.888 125.711 5.64 126.889 5.64V9.298H125.99C124.605 9.298 123.551 9.64933 122.828 10.352C122.125 11.0547 121.774 12.274 121.774 14.01V23H118.24V5.919H121.774V8.399ZM128.96 14.382C128.96 12.6667 129.311 11.1477 130.014 9.825C130.737 8.50233 131.708 7.47933 132.928 6.756C134.168 6.012 135.542 5.64 137.051 5.64C138.167 5.64 139.262 5.888 140.337 6.384C141.432 6.85933 142.3 7.5 142.941 8.306V0.0599997H146.506V23H142.941V20.427C142.362 21.2537 141.556 21.9357 140.523 22.473C139.51 23.0103 138.342 23.279 137.02 23.279C135.532 23.279 134.168 22.907 132.928 22.163C131.708 21.3983 130.737 20.3443 130.014 19.001C129.311 17.637 128.96 16.0973 128.96 14.382ZM142.941 14.444C142.941 13.266 142.693 12.243 142.197 11.375C141.721 10.507 141.091 9.84567 140.306 9.391C139.52 8.93633 138.673 8.709 137.764 8.709C136.854 8.709 136.007 8.93633 135.222 9.391C134.436 9.825 133.796 10.476 133.3 11.344C132.824 12.1913 132.587 13.204 132.587 14.382C132.587 15.56 132.824 16.5933 133.3 17.482C133.796 18.3707 134.436 19.0527 135.222 19.528C136.028 19.9827 136.875 20.21 137.764 20.21C138.673 20.21 139.52 19.9827 140.306 19.528C141.091 19.0733 141.721 18.412 142.197 17.544C142.693 16.6553 142.941 15.622 142.941 14.444ZM170.391 23L165.431 14.382H162.734V23H159.2V1.455H166.64C168.293 1.455 169.688 1.74433 170.825 2.323C171.982 2.90166 172.84 3.67667 173.398 4.648C173.977 5.61933 174.266 6.70433 174.266 7.903C174.266 9.30833 173.853 10.5897 173.026 11.747C172.22 12.8837 170.97 13.6587 169.275 14.072L174.607 23H170.391ZM162.734 11.561H166.64C167.963 11.561 168.955 11.2303 169.616 10.569C170.298 9.90767 170.639 9.019 170.639 7.903C170.639 6.787 170.308 5.919 169.647 5.299C168.986 4.65833 167.983 4.338 166.64 4.338H162.734V11.561ZM194.442 14.041C194.442 14.6817 194.401 15.2603 194.318 15.777H181.267C181.37 17.141 181.877 18.2363 182.786 19.063C183.695 19.8897 184.811 20.303 186.134 20.303C188.035 20.303 189.379 19.5073 190.164 17.916H193.977C193.46 19.4867 192.52 20.7783 191.156 21.791C189.813 22.783 188.139 23.279 186.134 23.279C184.501 23.279 183.034 22.9173 181.732 22.194C180.451 21.45 179.438 20.4167 178.694 19.094C177.971 17.7507 177.609 16.2007 177.609 14.444C177.609 12.6873 177.96 11.1477 178.663 9.825C179.386 8.48167 180.389 7.44833 181.67 6.725C182.972 6.00167 184.46 5.64 186.134 5.64C187.746 5.64 189.182 5.99133 190.443 6.694C191.704 7.39667 192.685 8.38867 193.388 9.67C194.091 10.9307 194.442 12.3877 194.442 14.041ZM190.753 12.925C190.732 11.623 190.267 10.5793 189.358 9.794C188.449 9.00867 187.322 8.616 185.979 8.616C184.76 8.616 183.716 9.00867 182.848 9.794C181.98 10.5587 181.463 11.6023 181.298 12.925H190.753ZM204.12 23.279C202.776 23.279 201.567 23.0413 200.493 22.566C199.439 22.07 198.602 21.4087 197.982 20.582C197.362 19.7347 197.031 18.7943 196.99 17.761H200.648C200.71 18.4843 201.051 19.094 201.671 19.59C202.311 20.0653 203.107 20.303 204.058 20.303C205.05 20.303 205.814 20.117 206.352 19.745C206.91 19.3523 207.189 18.8563 207.189 18.257C207.189 17.6163 206.879 17.141 206.259 16.831C205.659 16.521 204.698 16.18 203.376 15.808C202.094 15.4567 201.051 15.1157 200.245 14.785C199.439 14.4543 198.736 13.948 198.137 13.266C197.558 12.584 197.269 11.685 197.269 10.569C197.269 9.65967 197.537 8.833 198.075 8.089C198.612 7.32433 199.377 6.725 200.369 6.291C201.381 5.857 202.539 5.64 203.841 5.64C205.783 5.64 207.344 6.136 208.522 7.128C209.72 8.09933 210.361 9.43233 210.444 11.127H206.91C206.848 10.3623 206.538 9.75267 205.98 9.298C205.422 8.84333 204.667 8.616 203.717 8.616C202.787 8.616 202.074 8.79167 201.578 9.143C201.082 9.49433 200.834 9.95933 200.834 10.538C200.834 10.9927 200.999 11.375 201.33 11.685C201.66 11.995 202.063 12.243 202.539 12.429C203.014 12.5943 203.717 12.8113 204.647 13.08C205.887 13.4107 206.899 13.7517 207.685 14.103C208.491 14.4337 209.183 14.9297 209.762 15.591C210.34 16.2523 210.64 17.1307 210.661 18.226C210.661 19.1973 210.392 20.0653 209.855 20.83C209.317 21.5947 208.553 22.194 207.561 22.628C206.589 23.062 205.442 23.279 204.12 23.279ZM230.134 14.041C230.134 14.6817 230.093 15.2603 230.01 15.777H216.959C217.063 17.141 217.569 18.2363 218.478 19.063C219.388 19.8897 220.504 20.303 221.826 20.303C223.728 20.303 225.071 19.5073 225.856 17.916H229.669C229.153 19.4867 228.212 20.7783 226.848 21.791C225.505 22.783 223.831 23.279 221.826 23.279C220.194 23.279 218.726 22.9173 217.424 22.194C216.143 21.45 215.13 20.4167 214.386 19.094C213.663 17.7507 213.301 16.2007 213.301 14.444C213.301 12.6873 213.653 11.1477 214.355 9.825C215.079 8.48167 216.081 7.44833 217.362 6.725C218.664 6.00167 220.152 5.64 221.826 5.64C223.438 5.64 224.875 5.99133 226.135 6.694C227.396 7.39667 228.378 8.38867 229.08 9.67C229.783 10.9307 230.134 12.3877 230.134 14.041ZM226.445 12.925C226.425 11.623 225.96 10.5793 225.05 9.794C224.141 9.00867 223.015 8.616 221.671 8.616C220.452 8.616 219.408 9.00867 218.54 9.794C217.672 10.5587 217.156 11.6023 216.99 12.925H226.445ZM237.735 8.802V18.257C237.735 18.8977 237.88 19.3627 238.169 19.652C238.479 19.9207 238.996 20.055 239.719 20.055H241.889V23H239.099C237.508 23 236.288 22.628 235.441 21.884C234.594 21.14 234.17 19.931 234.17 18.257V8.802H232.155V5.919H234.17V1.672H237.735V5.919H241.889V8.802H237.735Z" fill="black"/>
</svg>
