<svg width="386" height="62" viewBox="0 0 386 62" fill="none" xmlns="http://www.w3.org/2000/svg">
<path d="M8.688 5.112C8.688 6.04 8.368 6.81333 7.728 7.432C7.09867 8.04 6.13333 8.344 4.832 8.344H2.688V13H1.232V1.848H4.832C6.09067 1.848 7.04533 2.152 7.696 2.76C8.35733 3.368 8.688 4.152 8.688 5.112ZM4.832 7.144C5.64267 7.144 6.24 6.968 6.624 6.616C7.008 6.264 7.2 5.76267 7.2 5.112C7.2 3.736 6.41067 3.048 4.832 3.048H2.688V7.144H4.832ZM11.9536 1.16V13H10.4976V1.16H11.9536ZM22.4351 8.28C22.4351 8.55733 22.4191 8.85067 22.3871 9.16H15.3791C15.4325 10.024 15.7258 10.7013 16.2591 11.192C16.8031 11.672 17.4591 11.912 18.2271 11.912C18.8565 11.912 19.3791 11.768 19.7951 11.48C20.2218 11.1813 20.5205 10.7867 20.6911 10.296H22.2591C22.0245 11.1387 21.5551 11.8267 20.8511 12.36C20.1471 12.8827 19.2725 13.144 18.2271 13.144C17.3951 13.144 16.6485 12.9573 15.9871 12.584C15.3365 12.2107 14.8245 11.6827 14.4511 11C14.0778 10.3067 13.8911 9.50667 13.8911 8.6C13.8911 7.69333 14.0725 6.89867 14.4351 6.216C14.7978 5.53333 15.3045 5.01067 15.9551 4.648C16.6165 4.27467 17.3738 4.088 18.2271 4.088C19.0591 4.088 19.7951 4.26933 20.4351 4.632C21.0751 4.99467 21.5658 5.496 21.9071 6.136C22.2591 6.76533 22.4351 7.48 22.4351 8.28ZM20.9311 7.976C20.9311 7.42133 20.8085 6.94667 20.5631 6.552C20.3178 6.14667 19.9818 5.84267 19.5551 5.64C19.1391 5.42667 18.6751 5.32 18.1631 5.32C17.4271 5.32 16.7978 5.55467 16.2751 6.024C15.7631 6.49333 15.4698 7.144 15.3951 7.976H20.9311ZM23.813 8.584C23.813 7.688 23.9943 6.904 24.357 6.232C24.7197 5.54933 25.2157 5.02133 25.845 4.648C26.485 4.27467 27.1943 4.088 27.973 4.088C28.741 4.088 29.4077 4.25333 29.973 4.584C30.5383 4.91467 30.9597 5.33067 31.237 5.832V4.232H32.709V13H31.237V11.368C30.949 11.88 30.517 12.3067 29.941 12.648C29.3757 12.9787 28.7143 13.144 27.957 13.144C27.1783 13.144 26.4743 12.952 25.845 12.568C25.2157 12.184 24.7197 11.6453 24.357 10.952C23.9943 10.2587 23.813 9.46933 23.813 8.584ZM31.237 8.6C31.237 7.93867 31.1037 7.36267 30.837 6.872C30.5703 6.38133 30.2077 6.008 29.749 5.752C29.301 5.48533 28.805 5.352 28.261 5.352C27.717 5.352 27.221 5.48 26.773 5.736C26.325 5.992 25.9677 6.36533 25.701 6.856C25.4343 7.34667 25.301 7.92267 25.301 8.584C25.301 9.256 25.4343 9.84267 25.701 10.344C25.9677 10.8347 26.325 11.2133 26.773 11.48C27.221 11.736 27.717 11.864 28.261 11.864C28.805 11.864 29.301 11.736 29.749 11.48C30.2077 11.2133 30.5703 10.8347 30.837 10.344C31.1037 9.84267 31.237 9.26133 31.237 8.6ZM38.2735 13.144C37.6015 13.144 36.9988 13.032 36.4655 12.808C35.9322 12.5733 35.5108 12.2533 35.2015 11.848C34.8922 11.432 34.7215 10.9573 34.6895 10.424H36.1935C36.2362 10.8613 36.4388 11.2187 36.8015 11.496C37.1748 11.7733 37.6602 11.912 38.2575 11.912C38.8122 11.912 39.2495 11.7893 39.5695 11.544C39.8895 11.2987 40.0495 10.9893 40.0495 10.616C40.0495 10.232 39.8788 9.94933 39.5375 9.768C39.1962 9.576 38.6682 9.38933 37.9535 9.208C37.3028 9.03733 36.7695 8.86667 36.3535 8.696C35.9482 8.51467 35.5962 8.25333 35.2975 7.912C35.0095 7.56 34.8655 7.10133 34.8655 6.536C34.8655 6.088 34.9988 5.67733 35.2655 5.304C35.5322 4.93067 35.9108 4.63733 36.4015 4.424C36.8922 4.2 37.4522 4.088 38.0815 4.088C39.0522 4.088 39.8362 4.33333 40.4335 4.824C41.0308 5.31467 41.3508 5.98667 41.3935 6.84H39.9375C39.9055 6.38133 39.7188 6.01333 39.3775 5.736C39.0468 5.45867 38.5988 5.32 38.0335 5.32C37.5108 5.32 37.0948 5.432 36.7855 5.656C36.4762 5.88 36.3215 6.17333 36.3215 6.536C36.3215 6.824 36.4122 7.064 36.5935 7.256C36.7855 7.43733 37.0202 7.58667 37.2975 7.704C37.5855 7.81067 37.9802 7.93333 38.4815 8.072C39.1108 8.24267 39.6228 8.41333 40.0175 8.584C40.4122 8.744 40.7482 8.98933 41.0255 9.32C41.3135 9.65067 41.4628 10.0827 41.4735 10.616C41.4735 11.096 41.3402 11.528 41.0735 11.912C40.8068 12.296 40.4282 12.6 39.9375 12.824C39.4575 13.0373 38.9028 13.144 38.2735 13.144ZM51.5289 8.28C51.5289 8.55733 51.5129 8.85067 51.4809 9.16H44.4729C44.5262 10.024 44.8195 10.7013 45.3529 11.192C45.8969 11.672 46.5529 11.912 47.3209 11.912C47.9502 11.912 48.4729 11.768 48.8889 11.48C49.3155 11.1813 49.6142 10.7867 49.7849 10.296H51.3529C51.1182 11.1387 50.6489 11.8267 49.9449 12.36C49.2409 12.8827 48.3662 13.144 47.3209 13.144C46.4889 13.144 45.7422 12.9573 45.0809 12.584C44.4302 12.2107 43.9182 11.6827 43.5449 11C43.1715 10.3067 42.9849 9.50667 42.9849 8.6C42.9849 7.69333 43.1662 6.89867 43.5289 6.216C43.8915 5.53333 44.3982 5.01067 45.0489 4.648C45.7102 4.27467 46.4675 4.088 47.3209 4.088C48.1529 4.088 48.8889 4.26933 49.5289 4.632C50.1689 4.99467 50.6595 5.496 51.0009 6.136C51.3529 6.76533 51.5289 7.48 51.5289 8.28ZM50.0249 7.976C50.0249 7.42133 49.9022 6.94667 49.6569 6.552C49.4115 6.14667 49.0755 5.84267 48.6489 5.64C48.2329 5.42667 47.7689 5.32 47.2569 5.32C46.5209 5.32 45.8915 5.55467 45.3689 6.024C44.8569 6.49333 44.5635 7.144 44.4889 7.976H50.0249ZM65.7164 8.28C65.7164 8.55733 65.7004 8.85067 65.6684 9.16H58.6604C58.7137 10.024 59.007 10.7013 59.5404 11.192C60.0844 11.672 60.7404 11.912 61.5084 11.912C62.1377 11.912 62.6604 11.768 63.0764 11.48C63.503 11.1813 63.8017 10.7867 63.9724 10.296H65.5404C65.3057 11.1387 64.8364 11.8267 64.1324 12.36C63.4284 12.8827 62.5537 13.144 61.5084 13.144C60.6764 13.144 59.9297 12.9573 59.2684 12.584C58.6177 12.2107 58.1057 11.6827 57.7324 11C57.359 10.3067 57.1724 9.50667 57.1724 8.6C57.1724 7.69333 57.3537 6.89867 57.7164 6.216C58.079 5.53333 58.5857 5.01067 59.2364 4.648C59.8977 4.27467 60.655 4.088 61.5084 4.088C62.3404 4.088 63.0764 4.26933 63.7164 4.632C64.3564 4.99467 64.847 5.496 65.1884 6.136C65.5404 6.76533 65.7164 7.48 65.7164 8.28ZM64.2124 7.976C64.2124 7.42133 64.0897 6.94667 63.8444 6.552C63.599 6.14667 63.263 5.84267 62.8364 5.64C62.4204 5.42667 61.9564 5.32 61.4444 5.32C60.7084 5.32 60.079 5.55467 59.5564 6.024C59.0444 6.49333 58.751 7.144 58.6764 7.976H64.2124ZM71.9103 4.072C72.9769 4.072 73.8409 4.39733 74.5023 5.048C75.1636 5.688 75.4943 6.616 75.4943 7.832V13H74.0543V8.04C74.0543 7.16533 73.8356 6.49867 73.3983 6.04C72.9609 5.57067 72.3636 5.336 71.6063 5.336C70.8383 5.336 70.2249 5.576 69.7663 6.056C69.3183 6.536 69.0943 7.23467 69.0943 8.152V13H67.6383V4.232H69.0943V5.48C69.3823 5.032 69.7716 4.68533 70.2623 4.44C70.7636 4.19467 71.3129 4.072 71.9103 4.072ZM79.6486 5.432V10.6C79.6486 11.0267 79.7393 11.3307 79.9206 11.512C80.102 11.6827 80.4166 11.768 80.8646 11.768H81.9366V13H80.6246C79.814 13 79.206 12.8133 78.8006 12.44C78.3953 12.0667 78.1926 11.4533 78.1926 10.6V5.432H77.0566V4.232H78.1926V2.024H79.6486V4.232H81.9366V5.432H79.6486ZM91.7008 8.28C91.7008 8.55733 91.6848 8.85067 91.6528 9.16H84.6448C84.6981 10.024 84.9914 10.7013 85.5248 11.192C86.0688 11.672 86.7248 11.912 87.4928 11.912C88.1221 11.912 88.6448 11.768 89.0608 11.48C89.4874 11.1813 89.7861 10.7867 89.9568 10.296H91.5248C91.2901 11.1387 90.8208 11.8267 90.1168 12.36C89.4128 12.8827 88.5381 13.144 87.4928 13.144C86.6608 13.144 85.9141 12.9573 85.2528 12.584C84.6021 12.2107 84.0901 11.6827 83.7168 11C83.3434 10.3067 83.1568 9.50667 83.1568 8.6C83.1568 7.69333 83.3381 6.89867 83.7008 6.216C84.0634 5.53333 84.5701 5.01067 85.2208 4.648C85.8821 4.27467 86.6394 4.088 87.4928 4.088C88.3248 4.088 89.0608 4.26933 89.7008 4.632C90.3408 4.99467 90.8314 5.496 91.1728 6.136C91.5248 6.76533 91.7008 7.48 91.7008 8.28ZM90.1968 7.976C90.1968 7.42133 90.0741 6.94667 89.8288 6.552C89.5834 6.14667 89.2474 5.84267 88.8208 5.64C88.4048 5.42667 87.9408 5.32 87.4288 5.32C86.6928 5.32 86.0634 5.55467 85.5408 6.024C85.0288 6.49333 84.7354 7.144 84.6608 7.976H90.1968ZM95.0786 5.656C95.3346 5.15467 95.6973 4.76533 96.1666 4.488C96.6466 4.21067 97.228 4.072 97.9106 4.072V5.576H97.5266C95.8946 5.576 95.0786 6.46133 95.0786 8.232V13H93.6226V4.232H95.0786V5.656ZM111.409 4.232L106.129 17.128H104.625L106.353 12.904L102.817 4.232H104.433L107.185 11.336L109.905 4.232H111.409ZM116.697 13.144C115.875 13.144 115.129 12.9573 114.457 12.584C113.795 12.2107 113.273 11.6827 112.889 11C112.515 10.3067 112.329 9.50667 112.329 8.6C112.329 7.704 112.521 6.91467 112.905 6.232C113.299 5.53867 113.833 5.01067 114.505 4.648C115.177 4.27467 115.929 4.088 116.761 4.088C117.593 4.088 118.345 4.27467 119.017 4.648C119.689 5.01067 120.217 5.53333 120.601 6.216C120.995 6.89867 121.193 7.69333 121.193 8.6C121.193 9.50667 120.99 10.3067 120.585 11C120.19 11.6827 119.651 12.2107 118.969 12.584C118.286 12.9573 117.529 13.144 116.697 13.144ZM116.697 11.864C117.219 11.864 117.71 11.7413 118.169 11.496C118.627 11.2507 118.995 10.8827 119.273 10.392C119.561 9.90133 119.705 9.304 119.705 8.6C119.705 7.896 119.566 7.29867 119.289 6.808C119.011 6.31733 118.649 5.95467 118.201 5.72C117.753 5.47467 117.267 5.352 116.745 5.352C116.211 5.352 115.721 5.47467 115.273 5.72C114.835 5.95467 114.483 6.31733 114.217 6.808C113.95 7.29867 113.817 7.896 113.817 8.6C113.817 9.31467 113.945 9.91733 114.201 10.408C114.467 10.8987 114.819 11.2667 115.257 11.512C115.694 11.7467 116.174 11.864 116.697 11.864ZM130.883 4.232V13H129.427V11.704C129.15 12.152 128.76 12.504 128.259 12.76C127.768 13.0053 127.224 13.128 126.627 13.128C125.944 13.128 125.331 12.9893 124.787 12.712C124.243 12.424 123.811 11.9973 123.491 11.432C123.182 10.8667 123.027 10.1787 123.027 9.368V4.232H124.467V9.176C124.467 10.04 124.686 10.7067 125.123 11.176C125.56 11.6347 126.158 11.864 126.915 11.864C127.694 11.864 128.307 11.624 128.755 11.144C129.203 10.664 129.427 9.96533 129.427 9.048V4.232H130.883ZM134.797 5.656C135.053 5.15467 135.416 4.76533 135.885 4.488C136.365 4.21067 136.947 4.072 137.629 4.072V5.576H137.245C135.613 5.576 134.797 6.46133 134.797 8.232V13H133.341V4.232H134.797V5.656ZM151.352 4.232V13H149.896V11.704C149.618 12.152 149.229 12.504 148.728 12.76C148.237 13.0053 147.693 13.128 147.096 13.128C146.413 13.128 145.8 12.9893 145.256 12.712C144.712 12.424 144.28 11.9973 143.96 11.432C143.65 10.8667 143.496 10.1787 143.496 9.368V4.232H144.936V9.176C144.936 10.04 145.154 10.7067 145.592 11.176C146.029 11.6347 146.626 11.864 147.384 11.864C148.162 11.864 148.776 11.624 149.224 11.144C149.672 10.664 149.896 9.96533 149.896 9.048V4.232H151.352ZM156.914 13.144C156.242 13.144 155.639 13.032 155.106 12.808C154.573 12.5733 154.151 12.2533 153.842 11.848C153.533 11.432 153.362 10.9573 153.33 10.424H154.834C154.877 10.8613 155.079 11.2187 155.442 11.496C155.815 11.7733 156.301 11.912 156.898 11.912C157.453 11.912 157.89 11.7893 158.21 11.544C158.53 11.2987 158.69 10.9893 158.69 10.616C158.69 10.232 158.519 9.94933 158.178 9.768C157.837 9.576 157.309 9.38933 156.594 9.208C155.943 9.03733 155.41 8.86667 154.994 8.696C154.589 8.51467 154.237 8.25333 153.938 7.912C153.65 7.56 153.506 7.10133 153.506 6.536C153.506 6.088 153.639 5.67733 153.906 5.304C154.173 4.93067 154.551 4.63733 155.042 4.424C155.533 4.2 156.093 4.088 156.722 4.088C157.693 4.088 158.477 4.33333 159.074 4.824C159.671 5.31467 159.991 5.98667 160.034 6.84H158.578C158.546 6.38133 158.359 6.01333 158.018 5.736C157.687 5.45867 157.239 5.32 156.674 5.32C156.151 5.32 155.735 5.432 155.426 5.656C155.117 5.88 154.962 6.17333 154.962 6.536C154.962 6.824 155.053 7.064 155.234 7.256C155.426 7.43733 155.661 7.58667 155.938 7.704C156.226 7.81067 156.621 7.93333 157.122 8.072C157.751 8.24267 158.263 8.41333 158.658 8.584C159.053 8.744 159.389 8.98933 159.666 9.32C159.954 9.65067 160.103 10.0827 160.114 10.616C160.114 11.096 159.981 11.528 159.714 11.912C159.447 12.296 159.069 12.6 158.578 12.824C158.098 13.0373 157.543 13.144 156.914 13.144ZM170.17 8.28C170.17 8.55733 170.154 8.85067 170.122 9.16H163.114C163.167 10.024 163.46 10.7013 163.994 11.192C164.538 11.672 165.194 11.912 165.962 11.912C166.591 11.912 167.114 11.768 167.53 11.48C167.956 11.1813 168.255 10.7867 168.426 10.296H169.994C169.759 11.1387 169.29 11.8267 168.586 12.36C167.882 12.8827 167.007 13.144 165.962 13.144C165.13 13.144 164.383 12.9573 163.722 12.584C163.071 12.2107 162.559 11.6827 162.186 11C161.812 10.3067 161.626 9.50667 161.626 8.6C161.626 7.69333 161.807 6.89867 162.17 6.216C162.532 5.53333 163.039 5.01067 163.69 4.648C164.351 4.27467 165.108 4.088 165.962 4.088C166.794 4.088 167.53 4.26933 168.17 4.632C168.81 4.99467 169.3 5.496 169.642 6.136C169.994 6.76533 170.17 7.48 170.17 8.28ZM168.666 7.976C168.666 7.42133 168.543 6.94667 168.298 6.552C168.052 6.14667 167.716 5.84267 167.29 5.64C166.874 5.42667 166.41 5.32 165.898 5.32C165.162 5.32 164.532 5.55467 164.01 6.024C163.498 6.49333 163.204 7.144 163.13 7.976H168.666ZM173.547 5.656C173.803 5.15467 174.166 4.76533 174.635 4.488C175.115 4.21067 175.697 4.072 176.379 4.072V5.576H175.995C174.363 5.576 173.547 6.46133 173.547 8.232V13H172.091V4.232H173.547V5.656ZM182.332 4.072C183.399 4.072 184.263 4.39733 184.924 5.048C185.585 5.688 185.916 6.616 185.916 7.832V13H184.476V8.04C184.476 7.16533 184.257 6.49867 183.82 6.04C183.383 5.57067 182.785 5.336 182.028 5.336C181.26 5.336 180.647 5.576 180.188 6.056C179.74 6.536 179.516 7.23467 179.516 8.152V13H178.06V4.232H179.516V5.48C179.804 5.032 180.193 4.68533 180.684 4.44C181.185 4.19467 181.735 4.072 182.332 4.072ZM187.751 8.584C187.751 7.688 187.932 6.904 188.295 6.232C188.657 5.54933 189.153 5.02133 189.783 4.648C190.423 4.27467 191.132 4.088 191.911 4.088C192.679 4.088 193.345 4.25333 193.911 4.584C194.476 4.91467 194.897 5.33067 195.175 5.832V4.232H196.647V13H195.175V11.368C194.887 11.88 194.455 12.3067 193.879 12.648C193.313 12.9787 192.652 13.144 191.895 13.144C191.116 13.144 190.412 12.952 189.783 12.568C189.153 12.184 188.657 11.6453 188.295 10.952C187.932 10.2587 187.751 9.46933 187.751 8.584ZM195.175 8.6C195.175 7.93867 195.041 7.36267 194.775 6.872C194.508 6.38133 194.145 6.008 193.687 5.752C193.239 5.48533 192.743 5.352 192.199 5.352C191.655 5.352 191.159 5.48 190.711 5.736C190.263 5.992 189.905 6.36533 189.639 6.856C189.372 7.34667 189.239 7.92267 189.239 8.584C189.239 9.256 189.372 9.84267 189.639 10.344C189.905 10.8347 190.263 11.2133 190.711 11.48C191.159 11.736 191.655 11.864 192.199 11.864C192.743 11.864 193.239 11.736 193.687 11.48C194.145 11.2133 194.508 10.8347 194.775 10.344C195.041 9.84267 195.175 9.26133 195.175 8.6ZM209.651 4.072C210.334 4.072 210.942 4.216 211.475 4.504C212.008 4.78133 212.43 5.20267 212.739 5.768C213.048 6.33333 213.203 7.02133 213.203 7.832V13H211.763V8.04C211.763 7.16533 211.544 6.49867 211.107 6.04C210.68 5.57067 210.099 5.336 209.363 5.336C208.606 5.336 208.003 5.58133 207.555 6.072C207.107 6.552 206.883 7.25067 206.883 8.168V13H205.443V8.04C205.443 7.16533 205.224 6.49867 204.787 6.04C204.36 5.57067 203.779 5.336 203.043 5.336C202.286 5.336 201.683 5.58133 201.235 6.072C200.787 6.552 200.563 7.25067 200.563 8.168V13H199.107V4.232H200.563V5.496C200.851 5.03733 201.235 4.68533 201.715 4.44C202.206 4.19467 202.744 4.072 203.331 4.072C204.067 4.072 204.718 4.23733 205.283 4.568C205.848 4.89867 206.27 5.384 206.547 6.024C206.792 5.40533 207.198 4.92533 207.763 4.584C208.328 4.24267 208.958 4.072 209.651 4.072ZM223.591 8.28C223.591 8.55733 223.575 8.85067 223.543 9.16H216.535C216.589 10.024 216.882 10.7013 217.415 11.192C217.959 11.672 218.615 11.912 219.383 11.912C220.013 11.912 220.535 11.768 220.951 11.48C221.378 11.1813 221.677 10.7867 221.847 10.296H223.415C223.181 11.1387 222.711 11.8267 222.007 12.36C221.303 12.8827 220.429 13.144 219.383 13.144C218.551 13.144 217.805 12.9573 217.143 12.584C216.493 12.2107 215.981 11.6827 215.607 11C215.234 10.3067 215.047 9.50667 215.047 8.6C215.047 7.69333 215.229 6.89867 215.591 6.216C215.954 5.53333 216.461 5.01067 217.111 4.648C217.773 4.27467 218.53 4.088 219.383 4.088C220.215 4.088 220.951 4.26933 221.591 4.632C222.231 4.99467 222.722 5.496 223.063 6.136C223.415 6.76533 223.591 7.48 223.591 8.28ZM222.087 7.976C222.087 7.42133 221.965 6.94667 221.719 6.552C221.474 6.14667 221.138 5.84267 220.711 5.64C220.295 5.42667 219.831 5.32 219.319 5.32C218.583 5.32 217.954 5.55467 217.431 6.024C216.919 6.49333 216.626 7.144 216.551 7.976H222.087ZM229.235 8.584C229.235 7.688 229.416 6.904 229.779 6.232C230.142 5.54933 230.638 5.02133 231.267 4.648C231.907 4.27467 232.616 4.088 233.395 4.088C234.163 4.088 234.83 4.25333 235.395 4.584C235.96 4.91467 236.382 5.33067 236.659 5.832V4.232H238.131V13H236.659V11.368C236.371 11.88 235.939 12.3067 235.363 12.648C234.798 12.9787 234.136 13.144 233.379 13.144C232.6 13.144 231.896 12.952 231.267 12.568C230.638 12.184 230.142 11.6453 229.779 10.952C229.416 10.2587 229.235 9.46933 229.235 8.584ZM236.659 8.6C236.659 7.93867 236.526 7.36267 236.259 6.872C235.992 6.38133 235.63 6.008 235.171 5.752C234.723 5.48533 234.227 5.352 233.683 5.352C233.139 5.352 232.643 5.48 232.195 5.736C231.747 5.992 231.39 6.36533 231.123 6.856C230.856 7.34667 230.723 7.92267 230.723 8.584C230.723 9.256 230.856 9.84267 231.123 10.344C231.39 10.8347 231.747 11.2133 232.195 11.48C232.643 11.736 233.139 11.864 233.683 11.864C234.227 11.864 234.723 11.736 235.171 11.48C235.63 11.2133 235.992 10.8347 236.259 10.344C236.526 9.84267 236.659 9.26133 236.659 8.6ZM244.863 4.072C245.93 4.072 246.794 4.39733 247.455 5.048C248.117 5.688 248.447 6.616 248.447 7.832V13H247.007V8.04C247.007 7.16533 246.789 6.49867 246.351 6.04C245.914 5.57067 245.317 5.336 244.559 5.336C243.791 5.336 243.178 5.576 242.719 6.056C242.271 6.536 242.047 7.23467 242.047 8.152V13H240.591V4.232H242.047V5.48C242.335 5.032 242.725 4.68533 243.215 4.44C243.717 4.19467 244.266 4.072 244.863 4.072ZM250.282 8.584C250.282 7.688 250.463 6.904 250.826 6.232C251.188 5.54933 251.684 5.02133 252.314 4.648C252.954 4.27467 253.668 4.088 254.458 4.088C255.14 4.088 255.775 4.248 256.362 4.568C256.948 4.87733 257.396 5.288 257.706 5.8V1.16H259.178V13H257.706V11.352C257.418 11.8747 256.991 12.3067 256.426 12.648C255.86 12.9787 255.199 13.144 254.442 13.144C253.663 13.144 252.954 12.952 252.314 12.568C251.684 12.184 251.188 11.6453 250.826 10.952C250.463 10.2587 250.282 9.46933 250.282 8.584ZM257.706 8.6C257.706 7.93867 257.572 7.36267 257.306 6.872C257.039 6.38133 256.676 6.008 256.218 5.752C255.77 5.48533 255.274 5.352 254.73 5.352C254.186 5.352 253.69 5.48 253.242 5.736C252.794 5.992 252.436 6.36533 252.17 6.856C251.903 7.34667 251.77 7.92267 251.77 8.584C251.77 9.256 251.903 9.84267 252.17 10.344C252.436 10.8347 252.794 11.2133 253.242 11.48C253.69 11.736 254.186 11.864 254.73 11.864C255.274 11.864 255.77 11.736 256.218 11.48C256.676 11.2133 257.039 10.8347 257.306 10.344C257.572 9.84267 257.706 9.26133 257.706 8.6ZM273.904 8.28C273.904 8.55733 273.888 8.85067 273.856 9.16H266.848C266.901 10.024 267.195 10.7013 267.728 11.192C268.272 11.672 268.928 11.912 269.696 11.912C270.325 11.912 270.848 11.768 271.264 11.48C271.691 11.1813 271.989 10.7867 272.16 10.296H273.728C273.493 11.1387 273.024 11.8267 272.32 12.36C271.616 12.8827 270.741 13.144 269.696 13.144C268.864 13.144 268.117 12.9573 267.456 12.584C266.805 12.2107 266.293 11.6827 265.92 11C265.547 10.3067 265.36 9.50667 265.36 8.6C265.36 7.69333 265.541 6.89867 265.904 6.216C266.267 5.53333 266.773 5.01067 267.424 4.648C268.085 4.27467 268.843 4.088 269.696 4.088C270.528 4.088 271.264 4.26933 271.904 4.632C272.544 4.99467 273.035 5.496 273.376 6.136C273.728 6.76533 273.904 7.48 273.904 8.28ZM272.4 7.976C272.4 7.42133 272.277 6.94667 272.032 6.552C271.787 6.14667 271.451 5.84267 271.024 5.64C270.608 5.42667 270.144 5.32 269.632 5.32C268.896 5.32 268.267 5.55467 267.744 6.024C267.232 6.49333 266.939 7.144 266.864 7.976H272.4ZM286.37 4.072C287.052 4.072 287.66 4.216 288.194 4.504C288.727 4.78133 289.148 5.20267 289.458 5.768C289.767 6.33333 289.922 7.02133 289.922 7.832V13H288.482V8.04C288.482 7.16533 288.263 6.49867 287.826 6.04C287.399 5.57067 286.818 5.336 286.082 5.336C285.324 5.336 284.722 5.58133 284.274 6.072C283.826 6.552 283.602 7.25067 283.602 8.168V13H282.162V8.04C282.162 7.16533 281.943 6.49867 281.506 6.04C281.079 5.57067 280.498 5.336 279.762 5.336C279.004 5.336 278.402 5.58133 277.954 6.072C277.506 6.552 277.282 7.25067 277.282 8.168V13H275.826V4.232H277.282V5.496C277.57 5.03733 277.954 4.68533 278.434 4.44C278.924 4.19467 279.463 4.072 280.05 4.072C280.786 4.072 281.436 4.23733 282.002 4.568C282.567 4.89867 282.988 5.384 283.266 6.024C283.511 5.40533 283.916 4.92533 284.482 4.584C285.047 4.24267 285.676 4.072 286.37 4.072ZM291.766 8.584C291.766 7.688 291.947 6.904 292.31 6.232C292.673 5.54933 293.169 5.02133 293.798 4.648C294.438 4.27467 295.147 4.088 295.926 4.088C296.694 4.088 297.361 4.25333 297.926 4.584C298.491 4.91467 298.913 5.33067 299.19 5.832V4.232H300.662V13H299.19V11.368C298.902 11.88 298.47 12.3067 297.894 12.648C297.329 12.9787 296.667 13.144 295.91 13.144C295.131 13.144 294.427 12.952 293.798 12.568C293.169 12.184 292.673 11.6453 292.31 10.952C291.947 10.2587 291.766 9.46933 291.766 8.584ZM299.19 8.6C299.19 7.93867 299.057 7.36267 298.79 6.872C298.523 6.38133 298.161 6.008 297.702 5.752C297.254 5.48533 296.758 5.352 296.214 5.352C295.67 5.352 295.174 5.48 294.726 5.736C294.278 5.992 293.921 6.36533 293.654 6.856C293.387 7.34667 293.254 7.92267 293.254 8.584C293.254 9.256 293.387 9.84267 293.654 10.344C293.921 10.8347 294.278 11.2133 294.726 11.48C295.174 11.736 295.67 11.864 296.214 11.864C296.758 11.864 297.254 11.736 297.702 11.48C298.161 11.2133 298.523 10.8347 298.79 10.344C299.057 9.84267 299.19 9.26133 299.19 8.6ZM303.875 2.808C303.597 2.808 303.363 2.712 303.171 2.52C302.979 2.328 302.883 2.09333 302.883 1.816C302.883 1.53867 302.979 1.304 303.171 1.112C303.363 0.919999 303.597 0.823999 303.875 0.823999C304.141 0.823999 304.365 0.919999 304.547 1.112C304.739 1.304 304.835 1.53867 304.835 1.816C304.835 2.09333 304.739 2.328 304.547 2.52C304.365 2.712 304.141 2.808 303.875 2.808ZM304.579 4.232V13H303.123V4.232H304.579ZM308.516 1.16V13H307.06V1.16H308.516ZM311.462 13.096C311.184 13.096 310.95 13 310.758 12.808C310.566 12.616 310.47 12.3813 310.47 12.104C310.47 11.8267 310.566 11.592 310.758 11.4C310.95 11.208 311.184 11.112 311.462 11.112C311.728 11.112 311.952 11.208 312.134 11.4C312.326 11.592 312.422 11.8267 312.422 12.104C312.422 12.3813 312.326 12.616 312.134 12.808C311.952 13 311.728 13.096 311.462 13.096ZM7.824 34.52H2.96L2.064 37H0.528L4.56 25.912H6.24L10.256 37H8.72L7.824 34.52ZM7.408 33.336L5.392 27.704L3.376 33.336H7.408ZM16.2853 28.072C17.3519 28.072 18.2159 28.3973 18.8773 29.048C19.5386 29.688 19.8693 30.616 19.8693 31.832V37H18.4293V32.04C18.4293 31.1653 18.2106 30.4987 17.7733 30.04C17.3359 29.5707 16.7386 29.336 15.9813 29.336C15.2133 29.336 14.5999 29.576 14.1413 30.056C13.6933 30.536 13.4693 31.2347 13.4693 32.152V37H12.0133V28.232H13.4693V29.48C13.7573 29.032 14.1466 28.6853 14.6373 28.44C15.1386 28.1947 15.6879 28.072 16.2853 28.072ZM34.5133 32.28C34.5133 32.5573 34.4973 32.8507 34.4653 33.16H27.4573C27.5106 34.024 27.8039 34.7013 28.3373 35.192C28.8813 35.672 29.5373 35.912 30.3053 35.912C30.9346 35.912 31.4573 35.768 31.8733 35.48C32.2999 35.1813 32.5986 34.7867 32.7693 34.296H34.3373C34.1026 35.1387 33.6333 35.8267 32.9293 36.36C32.2253 36.8827 31.3506 37.144 30.3053 37.144C29.4733 37.144 28.7266 36.9573 28.0653 36.584C27.4146 36.2107 26.9026 35.6827 26.5293 35C26.1559 34.3067 25.9693 33.5067 25.9693 32.6C25.9693 31.6933 26.1506 30.8987 26.5133 30.216C26.8759 29.5333 27.3826 29.0107 28.0333 28.648C28.6946 28.2747 29.4519 28.088 30.3053 28.088C31.1373 28.088 31.8733 28.2693 32.5133 28.632C33.1533 28.9947 33.6439 29.496 33.9853 30.136C34.3373 30.7653 34.5133 31.48 34.5133 32.28ZM33.0093 31.976C33.0093 31.4213 32.8866 30.9467 32.6413 30.552C32.3959 30.1467 32.0599 29.8427 31.6333 29.64C31.2173 29.4267 30.7533 29.32 30.2413 29.32C29.5053 29.32 28.8759 29.5547 28.3533 30.024C27.8413 30.4933 27.5479 31.144 27.4733 31.976H33.0093ZM46.9791 28.072C47.6618 28.072 48.2698 28.216 48.8031 28.504C49.3365 28.7813 49.7578 29.2027 50.0671 29.768C50.3765 30.3333 50.5311 31.0213 50.5311 31.832V37H49.0911V32.04C49.0911 31.1653 48.8725 30.4987 48.4351 30.04C48.0085 29.5707 47.4271 29.336 46.6911 29.336C45.9338 29.336 45.3311 29.5813 44.8831 30.072C44.4351 30.552 44.2111 31.2507 44.2111 32.168V37H42.7711V32.04C42.7711 31.1653 42.5525 30.4987 42.1151 30.04C41.6885 29.5707 41.1071 29.336 40.3711 29.336C39.6138 29.336 39.0111 29.5813 38.5631 30.072C38.1151 30.552 37.8911 31.2507 37.8911 32.168V37H36.4351V28.232H37.8911V29.496C38.1791 29.0373 38.5631 28.6853 39.0431 28.44C39.5338 28.1947 40.0725 28.072 40.6591 28.072C41.3951 28.072 42.0458 28.2373 42.6111 28.568C43.1765 28.8987 43.5978 29.384 43.8751 30.024C44.1205 29.4053 44.5258 28.9253 45.0911 28.584C45.6565 28.2427 46.2858 28.072 46.9791 28.072ZM52.3755 32.584C52.3755 31.688 52.5568 30.904 52.9195 30.232C53.2822 29.5493 53.7782 29.0213 54.4075 28.648C55.0475 28.2747 55.7568 28.088 56.5355 28.088C57.3035 28.088 57.9702 28.2533 58.5355 28.584C59.1008 28.9147 59.5222 29.3307 59.7995 29.832V28.232H61.2715V37H59.7995V35.368C59.5115 35.88 59.0795 36.3067 58.5035 36.648C57.9382 36.9787 57.2768 37.144 56.5195 37.144C55.7408 37.144 55.0368 36.952 54.4075 36.568C53.7782 36.184 53.2822 35.6453 52.9195 34.952C52.5568 34.2587 52.3755 33.4693 52.3755 32.584ZM59.7995 32.6C59.7995 31.9387 59.6662 31.3627 59.3995 30.872C59.1328 30.3813 58.7702 30.008 58.3115 29.752C57.8635 29.4853 57.3675 29.352 56.8235 29.352C56.2795 29.352 55.7835 29.48 55.3355 29.736C54.8875 29.992 54.5302 30.3653 54.2635 30.856C53.9968 31.3467 53.8635 31.9227 53.8635 32.584C53.8635 33.256 53.9968 33.8427 54.2635 34.344C54.5302 34.8347 54.8875 35.2133 55.3355 35.48C55.7835 35.736 56.2795 35.864 56.8235 35.864C57.3675 35.864 57.8635 35.736 58.3115 35.48C58.7702 35.2133 59.1328 34.8347 59.3995 34.344C59.6662 33.8427 59.7995 33.2613 59.7995 32.6ZM64.484 26.808C64.2067 26.808 63.972 26.712 63.78 26.52C63.588 26.328 63.492 26.0933 63.492 25.816C63.492 25.5387 63.588 25.304 63.78 25.112C63.972 24.92 64.2067 24.824 64.484 24.824C64.7507 24.824 64.9747 24.92 65.156 25.112C65.348 25.304 65.444 25.5387 65.444 25.816C65.444 26.0933 65.348 26.328 65.156 26.52C64.9747 26.712 64.7507 26.808 64.484 26.808ZM65.188 28.232V37H63.732V28.232H65.188ZM69.1255 25.16V37H67.6695V25.16H69.1255ZM87.5526 28.232L84.8166 37H83.3126L81.2006 30.04L79.0886 37H77.5846L74.8326 28.232H76.3206L78.3366 35.592L80.5126 28.232H82.0006L84.1286 35.608L86.1126 28.232H87.5526ZM89.7496 26.808C89.4723 26.808 89.2376 26.712 89.0456 26.52C88.8536 26.328 88.7576 26.0933 88.7576 25.816C88.7576 25.5387 88.8536 25.304 89.0456 25.112C89.2376 24.92 89.4723 24.824 89.7496 24.824C90.0163 24.824 90.2403 24.92 90.4216 25.112C90.6136 25.304 90.7096 25.5387 90.7096 25.816C90.7096 26.0933 90.6136 26.328 90.4216 26.52C90.2403 26.712 90.0163 26.808 89.7496 26.808ZM90.4536 28.232V37H88.9976V28.232H90.4536ZM94.7111 29.432V34.6C94.7111 35.0267 94.8018 35.3307 94.9831 35.512C95.1645 35.6827 95.4791 35.768 95.9271 35.768H96.9991V37H95.6871C94.8765 37 94.2685 36.8133 93.8631 36.44C93.4578 36.0667 93.2551 35.4533 93.2551 34.6V29.432H92.1191V28.232H93.2551V26.024H94.7111V28.232H96.9991V29.432H94.7111ZM103.115 28.072C103.777 28.072 104.374 28.216 104.907 28.504C105.441 28.7813 105.857 29.2027 106.155 29.768C106.465 30.3333 106.619 31.0213 106.619 31.832V37H105.179V32.04C105.179 31.1653 104.961 30.4987 104.523 30.04C104.086 29.5707 103.489 29.336 102.731 29.336C101.963 29.336 101.35 29.576 100.891 30.056C100.443 30.536 100.219 31.2347 100.219 32.152V37H98.7633V25.16H100.219V29.48C100.507 29.032 100.902 28.6853 101.403 28.44C101.915 28.1947 102.486 28.072 103.115 28.072ZM112.719 32.584C112.719 31.688 112.901 30.904 113.263 30.232C113.626 29.5493 114.122 29.0213 114.751 28.648C115.391 28.2747 116.101 28.088 116.879 28.088C117.647 28.088 118.314 28.2533 118.879 28.584C119.445 28.9147 119.866 29.3307 120.143 29.832V28.232H121.615V37H120.143V35.368C119.855 35.88 119.423 36.3067 118.847 36.648C118.282 36.9787 117.621 37.144 116.863 37.144C116.085 37.144 115.381 36.952 114.751 36.568C114.122 36.184 113.626 35.6453 113.263 34.952C112.901 34.2587 112.719 33.4693 112.719 32.584ZM120.143 32.6C120.143 31.9387 120.01 31.3627 119.743 30.872C119.477 30.3813 119.114 30.008 118.655 29.752C118.207 29.4853 117.711 29.352 117.167 29.352C116.623 29.352 116.127 29.48 115.679 29.736C115.231 29.992 114.874 30.3653 114.607 30.856C114.341 31.3467 114.207 31.9227 114.207 32.584C114.207 33.256 114.341 33.8427 114.607 34.344C114.874 34.8347 115.231 35.2133 115.679 35.48C116.127 35.736 116.623 35.864 117.167 35.864C117.711 35.864 118.207 35.736 118.655 35.48C119.114 35.2133 119.477 34.8347 119.743 34.344C120.01 33.8427 120.143 33.2613 120.143 32.6ZM132.613 28.072C133.68 28.072 134.544 28.3973 135.205 29.048C135.867 29.688 136.197 30.616 136.197 31.832V37H134.757V32.04C134.757 31.1653 134.539 30.4987 134.101 30.04C133.664 29.5707 133.067 29.336 132.309 29.336C131.541 29.336 130.928 29.576 130.469 30.056C130.021 30.536 129.797 31.2347 129.797 32.152V37H128.341V28.232H129.797V29.48C130.085 29.032 130.475 28.6853 130.965 28.44C131.467 28.1947 132.016 28.072 132.613 28.072ZM146.576 32.28C146.576 32.5573 146.56 32.8507 146.528 33.16H139.52C139.573 34.024 139.866 34.7013 140.4 35.192C140.944 35.672 141.6 35.912 142.368 35.912C142.997 35.912 143.52 35.768 143.936 35.48C144.362 35.1813 144.661 34.7867 144.832 34.296H146.4C146.165 35.1387 145.696 35.8267 144.992 36.36C144.288 36.8827 143.413 37.144 142.368 37.144C141.536 37.144 140.789 36.9573 140.128 36.584C139.477 36.2107 138.965 35.6827 138.592 35C138.218 34.3067 138.032 33.5067 138.032 32.6C138.032 31.6933 138.213 30.8987 138.576 30.216C138.938 29.5333 139.445 29.0107 140.096 28.648C140.757 28.2747 141.514 28.088 142.368 28.088C143.2 28.088 143.936 28.2693 144.576 28.632C145.216 28.9947 145.706 29.496 146.048 30.136C146.4 30.7653 146.576 31.48 146.576 32.28ZM145.072 31.976C145.072 31.4213 144.949 30.9467 144.704 30.552C144.458 30.1467 144.122 29.8427 143.696 29.64C143.28 29.4267 142.816 29.32 142.304 29.32C141.568 29.32 140.938 29.5547 140.416 30.024C139.904 30.4933 139.61 31.144 139.536 31.976H145.072ZM160.178 28.232L157.442 37H155.938L153.826 30.04L151.714 37H150.21L147.458 28.232H148.946L150.962 35.592L153.138 28.232H154.626L156.754 35.608L158.738 28.232H160.178ZM167.344 29.848C167.632 29.3467 168.059 28.9307 168.624 28.6C169.2 28.2587 169.867 28.088 170.624 28.088C171.403 28.088 172.107 28.2747 172.736 28.648C173.376 29.0213 173.878 29.5493 174.24 30.232C174.603 30.904 174.784 31.688 174.784 32.584C174.784 33.4693 174.603 34.2587 174.24 34.952C173.878 35.6453 173.376 36.184 172.736 36.568C172.107 36.952 171.403 37.144 170.624 37.144C169.878 37.144 169.216 36.9787 168.64 36.648C168.075 36.3067 167.643 35.8853 167.344 35.384V41.16H165.888V28.232H167.344V29.848ZM173.296 32.584C173.296 31.9227 173.163 31.3467 172.896 30.856C172.63 30.3653 172.267 29.992 171.808 29.736C171.36 29.48 170.864 29.352 170.32 29.352C169.787 29.352 169.291 29.4853 168.832 29.752C168.384 30.008 168.022 30.3867 167.744 30.888C167.478 31.3787 167.344 31.9493 167.344 32.6C167.344 33.2613 167.478 33.8427 167.744 34.344C168.022 34.8347 168.384 35.2133 168.832 35.48C169.291 35.736 169.787 35.864 170.32 35.864C170.864 35.864 171.36 35.736 171.808 35.48C172.267 35.2133 172.63 34.8347 172.896 34.344C173.163 33.8427 173.296 33.256 173.296 32.584ZM176.157 32.584C176.157 31.688 176.338 30.904 176.701 30.232C177.063 29.5493 177.559 29.0213 178.189 28.648C178.829 28.2747 179.538 28.088 180.317 28.088C181.085 28.088 181.751 28.2533 182.317 28.584C182.882 28.9147 183.303 29.3307 183.581 29.832V28.232H185.053V37H183.581V35.368C183.293 35.88 182.861 36.3067 182.285 36.648C181.719 36.9787 181.058 37.144 180.301 37.144C179.522 37.144 178.818 36.952 178.189 36.568C177.559 36.184 177.063 35.6453 176.701 34.952C176.338 34.2587 176.157 33.4693 176.157 32.584ZM183.581 32.6C183.581 31.9387 183.447 31.3627 183.181 30.872C182.914 30.3813 182.551 30.008 182.093 29.752C181.645 29.4853 181.149 29.352 180.605 29.352C180.061 29.352 179.565 29.48 179.117 29.736C178.669 29.992 178.311 30.3653 178.045 30.856C177.778 31.3467 177.645 31.9227 177.645 32.584C177.645 33.256 177.778 33.8427 178.045 34.344C178.311 34.8347 178.669 35.2133 179.117 35.48C179.565 35.736 180.061 35.864 180.605 35.864C181.149 35.864 181.645 35.736 182.093 35.48C182.551 35.2133 182.914 34.8347 183.181 34.344C183.447 33.8427 183.581 33.2613 183.581 32.6ZM190.617 37.144C189.945 37.144 189.343 37.032 188.809 36.808C188.276 36.5733 187.855 36.2533 187.545 35.848C187.236 35.432 187.065 34.9573 187.033 34.424H188.537C188.58 34.8613 188.783 35.2187 189.145 35.496C189.519 35.7733 190.004 35.912 190.601 35.912C191.156 35.912 191.593 35.7893 191.913 35.544C192.233 35.2987 192.393 34.9893 192.393 34.616C192.393 34.232 192.223 33.9493 191.881 33.768C191.54 33.576 191.012 33.3893 190.297 33.208C189.647 33.0373 189.113 32.8667 188.697 32.696C188.292 32.5147 187.94 32.2533 187.641 31.912C187.353 31.56 187.209 31.1013 187.209 30.536C187.209 30.088 187.343 29.6773 187.609 29.304C187.876 28.9307 188.255 28.6373 188.745 28.424C189.236 28.2 189.796 28.088 190.425 28.088C191.396 28.088 192.18 28.3333 192.777 28.824C193.375 29.3147 193.695 29.9867 193.737 30.84H192.281C192.249 30.3813 192.063 30.0133 191.721 29.736C191.391 29.4587 190.943 29.32 190.377 29.32C189.855 29.32 189.439 29.432 189.129 29.656C188.82 29.88 188.665 30.1733 188.665 30.536C188.665 30.824 188.756 31.064 188.937 31.256C189.129 31.4373 189.364 31.5867 189.641 31.704C189.929 31.8107 190.324 31.9333 190.825 32.072C191.455 32.2427 191.967 32.4133 192.361 32.584C192.756 32.744 193.092 32.9893 193.369 33.32C193.657 33.6507 193.807 34.0827 193.817 34.616C193.817 35.096 193.684 35.528 193.417 35.912C193.151 36.296 192.772 36.6 192.281 36.824C191.801 37.0373 191.247 37.144 190.617 37.144ZM198.977 37.144C198.305 37.144 197.702 37.032 197.169 36.808C196.635 36.5733 196.214 36.2533 195.905 35.848C195.595 35.432 195.425 34.9573 195.393 34.424H196.897C196.939 34.8613 197.142 35.2187 197.505 35.496C197.878 35.7733 198.363 35.912 198.961 35.912C199.515 35.912 199.953 35.7893 200.273 35.544C200.593 35.2987 200.753 34.9893 200.753 34.616C200.753 34.232 200.582 33.9493 200.241 33.768C199.899 33.576 199.371 33.3893 198.657 33.208C198.006 33.0373 197.473 32.8667 197.057 32.696C196.651 32.5147 196.299 32.2533 196.001 31.912C195.713 31.56 195.569 31.1013 195.569 30.536C195.569 30.088 195.702 29.6773 195.969 29.304C196.235 28.9307 196.614 28.6373 197.105 28.424C197.595 28.2 198.155 28.088 198.785 28.088C199.755 28.088 200.539 28.3333 201.137 28.824C201.734 29.3147 202.054 29.9867 202.097 30.84H200.641C200.609 30.3813 200.422 30.0133 200.081 29.736C199.75 29.4587 199.302 29.32 198.737 29.32C198.214 29.32 197.798 29.432 197.489 29.656C197.179 29.88 197.025 30.1733 197.025 30.536C197.025 30.824 197.115 31.064 197.297 31.256C197.489 31.4373 197.723 31.5867 198.001 31.704C198.289 31.8107 198.683 31.9333 199.185 32.072C199.814 32.2427 200.326 32.4133 200.721 32.584C201.115 32.744 201.451 32.9893 201.729 33.32C202.017 33.6507 202.166 34.0827 202.177 34.616C202.177 35.096 202.043 35.528 201.777 35.912C201.51 36.296 201.131 36.6 200.641 36.824C200.161 37.0373 199.606 37.144 198.977 37.144ZM215.912 28.232L213.176 37H211.672L209.56 30.04L207.448 37H205.944L203.192 28.232H204.68L206.696 35.592L208.872 28.232H210.36L212.488 35.608L214.472 28.232H215.912ZM221.181 37.144C220.36 37.144 219.613 36.9573 218.941 36.584C218.28 36.2107 217.757 35.6827 217.373 35C217 34.3067 216.813 33.5067 216.813 32.6C216.813 31.704 217.005 30.9147 217.389 30.232C217.784 29.5387 218.317 29.0107 218.989 28.648C219.661 28.2747 220.413 28.088 221.245 28.088C222.077 28.088 222.829 28.2747 223.501 28.648C224.173 29.0107 224.701 29.5333 225.085 30.216C225.48 30.8987 225.677 31.6933 225.677 32.6C225.677 33.5067 225.474 34.3067 225.069 35C224.674 35.6827 224.136 36.2107 223.453 36.584C222.77 36.9573 222.013 37.144 221.181 37.144ZM221.181 35.864C221.704 35.864 222.194 35.7413 222.653 35.496C223.112 35.2507 223.48 34.8827 223.757 34.392C224.045 33.9013 224.189 33.304 224.189 32.6C224.189 31.896 224.05 31.2987 223.773 30.808C223.496 30.3173 223.133 29.9547 222.685 29.72C222.237 29.4747 221.752 29.352 221.229 29.352C220.696 29.352 220.205 29.4747 219.757 29.72C219.32 29.9547 218.968 30.3173 218.701 30.808C218.434 31.2987 218.301 31.896 218.301 32.6C218.301 33.3147 218.429 33.9173 218.685 34.408C218.952 34.8987 219.304 35.2667 219.741 35.512C220.178 35.7467 220.658 35.864 221.181 35.864ZM229.047 29.656C229.303 29.1547 229.666 28.7653 230.135 28.488C230.615 28.2107 231.197 28.072 231.879 28.072V29.576H231.495C229.863 29.576 229.047 30.4613 229.047 32.232V37H227.591V28.232H229.047V29.656ZM233.016 32.584C233.016 31.688 233.197 30.904 233.56 30.232C233.923 29.5493 234.419 29.0213 235.048 28.648C235.688 28.2747 236.403 28.088 237.192 28.088C237.875 28.088 238.509 28.248 239.096 28.568C239.683 28.8773 240.131 29.288 240.44 29.8V25.16H241.912V37H240.44V35.352C240.152 35.8747 239.725 36.3067 239.16 36.648C238.595 36.9787 237.933 37.144 237.176 37.144C236.397 37.144 235.688 36.952 235.048 36.568C234.419 36.184 233.923 35.6453 233.56 34.952C233.197 34.2587 233.016 33.4693 233.016 32.584ZM240.44 32.6C240.44 31.9387 240.307 31.3627 240.04 30.872C239.773 30.3813 239.411 30.008 238.952 29.752C238.504 29.4853 238.008 29.352 237.464 29.352C236.92 29.352 236.424 29.48 235.976 29.736C235.528 29.992 235.171 30.3653 234.904 30.856C234.637 31.3467 234.504 31.9227 234.504 32.584C234.504 33.256 234.637 33.8427 234.904 34.344C235.171 34.8347 235.528 35.2133 235.976 35.48C236.424 35.736 236.92 35.864 237.464 35.864C238.008 35.864 238.504 35.736 238.952 35.48C239.411 35.2133 239.773 34.8347 240.04 34.344C240.307 33.8427 240.44 33.2613 240.44 32.6ZM260.318 28.232L257.582 37H256.078L253.966 30.04L251.854 37H250.35L247.598 28.232H249.086L251.102 35.592L253.278 28.232H254.766L256.894 35.608L258.878 28.232H260.318ZM262.515 26.808C262.238 26.808 262.003 26.712 261.811 26.52C261.619 26.328 261.523 26.0933 261.523 25.816C261.523 25.5387 261.619 25.304 261.811 25.112C262.003 24.92 262.238 24.824 262.515 24.824C262.782 24.824 263.006 24.92 263.187 25.112C263.379 25.304 263.475 25.5387 263.475 25.816C263.475 26.0933 263.379 26.328 263.187 26.52C263.006 26.712 262.782 26.808 262.515 26.808ZM263.219 28.232V37H261.763V28.232H263.219ZM267.157 25.16V37H265.701V25.16H267.157ZM271.094 25.16V37H269.638V25.16H271.094ZM279.297 29.864C279.596 29.3413 280.033 28.9147 280.609 28.584C281.185 28.2533 281.841 28.088 282.577 28.088C283.367 28.088 284.076 28.2747 284.705 28.648C285.335 29.0213 285.831 29.5493 286.193 30.232C286.556 30.904 286.737 31.688 286.737 32.584C286.737 33.4693 286.556 34.2587 286.193 34.952C285.831 35.6453 285.329 36.184 284.689 36.568C284.06 36.952 283.356 37.144 282.577 37.144C281.82 37.144 281.153 36.9787 280.577 36.648C280.012 36.3173 279.585 35.896 279.297 35.384V37H277.841V25.16H279.297V29.864ZM285.249 32.584C285.249 31.9227 285.116 31.3467 284.849 30.856C284.583 30.3653 284.22 29.992 283.761 29.736C283.313 29.48 282.817 29.352 282.273 29.352C281.74 29.352 281.244 29.4853 280.785 29.752C280.337 30.008 279.975 30.3867 279.697 30.888C279.431 31.3787 279.297 31.9493 279.297 32.6C279.297 33.2613 279.431 33.8427 279.697 34.344C279.975 34.8347 280.337 35.2133 280.785 35.48C281.244 35.736 281.74 35.864 282.273 35.864C282.817 35.864 283.313 35.736 283.761 35.48C284.22 35.2133 284.583 34.8347 284.849 34.344C285.116 33.8427 285.249 33.256 285.249 32.584ZM296.654 32.28C296.654 32.5573 296.638 32.8507 296.606 33.16H289.598C289.651 34.024 289.945 34.7013 290.478 35.192C291.022 35.672 291.678 35.912 292.446 35.912C293.075 35.912 293.598 35.768 294.014 35.48C294.441 35.1813 294.739 34.7867 294.91 34.296H296.478C296.243 35.1387 295.774 35.8267 295.07 36.36C294.366 36.8827 293.491 37.144 292.446 37.144C291.614 37.144 290.867 36.9573 290.206 36.584C289.555 36.2107 289.043 35.6827 288.67 35C288.297 34.3067 288.11 33.5067 288.11 32.6C288.11 31.6933 288.291 30.8987 288.654 30.216C289.017 29.5333 289.523 29.0107 290.174 28.648C290.835 28.2747 291.593 28.088 292.446 28.088C293.278 28.088 294.014 28.2693 294.654 28.632C295.294 28.9947 295.785 29.496 296.126 30.136C296.478 30.7653 296.654 31.48 296.654 32.28ZM295.15 31.976C295.15 31.4213 295.027 30.9467 294.782 30.552C294.537 30.1467 294.201 29.8427 293.774 29.64C293.358 29.4267 292.894 29.32 292.382 29.32C291.646 29.32 291.017 29.5547 290.494 30.024C289.982 30.4933 289.689 31.144 289.614 31.976H295.15ZM305.945 37.144C305.273 37.144 304.671 37.032 304.137 36.808C303.604 36.5733 303.183 36.2533 302.873 35.848C302.564 35.432 302.393 34.9573 302.361 34.424H303.865C303.908 34.8613 304.111 35.2187 304.473 35.496C304.847 35.7733 305.332 35.912 305.929 35.912C306.484 35.912 306.921 35.7893 307.241 35.544C307.561 35.2987 307.721 34.9893 307.721 34.616C307.721 34.232 307.551 33.9493 307.209 33.768C306.868 33.576 306.34 33.3893 305.625 33.208C304.975 33.0373 304.441 32.8667 304.025 32.696C303.62 32.5147 303.268 32.2533 302.969 31.912C302.681 31.56 302.537 31.1013 302.537 30.536C302.537 30.088 302.671 29.6773 302.937 29.304C303.204 28.9307 303.583 28.6373 304.073 28.424C304.564 28.2 305.124 28.088 305.753 28.088C306.724 28.088 307.508 28.3333 308.105 28.824C308.703 29.3147 309.023 29.9867 309.065 30.84H307.609C307.577 30.3813 307.391 30.0133 307.049 29.736C306.719 29.4587 306.271 29.32 305.705 29.32C305.183 29.32 304.767 29.432 304.457 29.656C304.148 29.88 303.993 30.1733 303.993 30.536C303.993 30.824 304.084 31.064 304.265 31.256C304.457 31.4373 304.692 31.5867 304.969 31.704C305.257 31.8107 305.652 31.9333 306.153 32.072C306.783 32.2427 307.295 32.4133 307.689 32.584C308.084 32.744 308.42 32.9893 308.697 33.32C308.985 33.6507 309.135 34.0827 309.145 34.616C309.145 35.096 309.012 35.528 308.745 35.912C308.479 36.296 308.1 36.6 307.609 36.824C307.129 37.0373 306.575 37.144 305.945 37.144ZM319.201 32.28C319.201 32.5573 319.185 32.8507 319.153 33.16H312.145C312.198 34.024 312.491 34.7013 313.025 35.192C313.569 35.672 314.225 35.912 314.993 35.912C315.622 35.912 316.145 35.768 316.561 35.48C316.987 35.1813 317.286 34.7867 317.457 34.296H319.025C318.79 35.1387 318.321 35.8267 317.617 36.36C316.913 36.8827 316.038 37.144 314.993 37.144C314.161 37.144 313.414 36.9573 312.753 36.584C312.102 36.2107 311.59 35.6827 311.217 35C310.843 34.3067 310.657 33.5067 310.657 32.6C310.657 31.6933 310.838 30.8987 311.201 30.216C311.563 29.5333 312.07 29.0107 312.721 28.648C313.382 28.2747 314.139 28.088 314.993 28.088C315.825 28.088 316.561 28.2693 317.201 28.632C317.841 28.9947 318.331 29.496 318.673 30.136C319.025 30.7653 319.201 31.48 319.201 32.28ZM317.697 31.976C317.697 31.4213 317.574 30.9467 317.329 30.552C317.083 30.1467 316.747 29.8427 316.321 29.64C315.905 29.4267 315.441 29.32 314.929 29.32C314.193 29.32 313.563 29.5547 313.041 30.024C312.529 30.4933 312.235 31.144 312.161 31.976H317.697ZM325.395 28.072C326.461 28.072 327.325 28.3973 327.987 29.048C328.648 29.688 328.979 30.616 328.979 31.832V37H327.539V32.04C327.539 31.1653 327.32 30.4987 326.883 30.04C326.445 29.5707 325.848 29.336 325.091 29.336C324.323 29.336 323.709 29.576 323.251 30.056C322.803 30.536 322.579 31.2347 322.579 32.152V37H321.123V28.232H322.579V29.48C322.867 29.032 323.256 28.6853 323.747 28.44C324.248 28.1947 324.797 28.072 325.395 28.072ZM333.133 29.432V34.6C333.133 35.0267 333.224 35.3307 333.405 35.512C333.586 35.6827 333.901 35.768 334.349 35.768H335.421V37H334.109C333.298 37 332.69 36.8133 332.285 36.44C331.88 36.0667 331.677 35.4533 331.677 34.6V29.432H330.541V28.232H331.677V26.024H333.133V28.232H335.421V29.432H333.133ZM343.227 29.432V34.6C343.227 35.0267 343.317 35.3307 343.499 35.512C343.68 35.6827 343.995 35.768 344.443 35.768H345.515V37H344.203C343.392 37 342.784 36.8133 342.379 36.44C341.973 36.0667 341.771 35.4533 341.771 34.6V29.432H340.635V28.232H341.771V26.024H343.227V28.232H345.515V29.432H343.227ZM351.103 37.144C350.282 37.144 349.535 36.9573 348.863 36.584C348.202 36.2107 347.679 35.6827 347.295 35C346.922 34.3067 346.735 33.5067 346.735 32.6C346.735 31.704 346.927 30.9147 347.311 30.232C347.706 29.5387 348.239 29.0107 348.911 28.648C349.583 28.2747 350.335 28.088 351.167 28.088C351.999 28.088 352.751 28.2747 353.423 28.648C354.095 29.0107 354.623 29.5333 355.007 30.216C355.402 30.8987 355.599 31.6933 355.599 32.6C355.599 33.5067 355.396 34.3067 354.991 35C354.596 35.6827 354.058 36.2107 353.375 36.584C352.692 36.9573 351.935 37.144 351.103 37.144ZM351.103 35.864C351.626 35.864 352.116 35.7413 352.575 35.496C353.034 35.2507 353.402 34.8827 353.679 34.392C353.967 33.9013 354.111 33.304 354.111 32.6C354.111 31.896 353.972 31.2987 353.695 30.808C353.418 30.3173 353.055 29.9547 352.607 29.72C352.159 29.4747 351.674 29.352 351.151 29.352C350.618 29.352 350.127 29.4747 349.679 29.72C349.242 29.9547 348.89 30.3173 348.623 30.808C348.356 31.2987 348.223 31.896 348.223 32.6C348.223 33.3147 348.351 33.9173 348.607 34.408C348.874 34.8987 349.226 35.2667 349.663 35.512C350.1 35.7467 350.58 35.864 351.103 35.864ZM363.555 29.432V34.6C363.555 35.0267 363.646 35.3307 363.827 35.512C364.008 35.6827 364.323 35.768 364.771 35.768H365.843V37H364.531C363.72 37 363.112 36.8133 362.707 36.44C362.302 36.0667 362.099 35.4533 362.099 34.6V29.432H360.963V28.232H362.099V26.024H363.555V28.232H365.843V29.432H363.555ZM371.959 28.072C372.62 28.072 373.218 28.216 373.751 28.504C374.284 28.7813 374.7 29.2027 374.999 29.768C375.308 30.3333 375.463 31.0213 375.463 31.832V37H374.023V32.04C374.023 31.1653 373.804 30.4987 373.367 30.04C372.93 29.5707 372.332 29.336 371.575 29.336C370.807 29.336 370.194 29.576 369.735 30.056C369.287 30.536 369.063 31.2347 369.063 32.152V37H367.607V25.16H369.063V29.48C369.351 29.032 369.746 28.6853 370.247 28.44C370.759 28.1947 371.33 28.072 371.959 28.072ZM385.841 32.28C385.841 32.5573 385.825 32.8507 385.793 33.16H378.785C378.839 34.024 379.132 34.7013 379.665 35.192C380.209 35.672 380.865 35.912 381.633 35.912C382.263 35.912 382.785 35.768 383.201 35.48C383.628 35.1813 383.927 34.7867 384.097 34.296H385.665C385.431 35.1387 384.961 35.8267 384.257 36.36C383.553 36.8827 382.679 37.144 381.633 37.144C380.801 37.144 380.055 36.9573 379.393 36.584C378.743 36.2107 378.231 35.6827 377.857 35C377.484 34.3067 377.297 33.5067 377.297 32.6C377.297 31.6933 377.479 30.8987 377.841 30.216C378.204 29.5333 378.711 29.0107 379.361 28.648C380.023 28.2747 380.78 28.088 381.633 28.088C382.465 28.088 383.201 28.2693 383.841 28.632C384.481 28.9947 384.972 29.496 385.313 30.136C385.665 30.7653 385.841 31.48 385.841 32.28ZM384.337 31.976C384.337 31.4213 384.215 30.9467 383.969 30.552C383.724 30.1467 383.388 29.8427 382.961 29.64C382.545 29.4267 382.081 29.32 381.569 29.32C380.833 29.32 380.204 29.5547 379.681 30.024C379.169 30.4933 378.876 31.144 378.801 31.976H384.337ZM0.688 56.584C0.688 55.688 0.869333 54.904 1.232 54.232C1.59467 53.5493 2.09067 53.0213 2.72 52.648C3.36 52.2747 4.06933 52.088 4.848 52.088C5.616 52.088 6.28267 52.2533 6.848 52.584C7.41333 52.9147 7.83467 53.3307 8.112 53.832V52.232H9.584V61H8.112V59.368C7.824 59.88 7.392 60.3067 6.816 60.648C6.25067 60.9787 5.58933 61.144 4.832 61.144C4.05333 61.144 3.34933 60.952 2.72 60.568C2.09067 60.184 1.59467 59.6453 1.232 58.952C0.869333 58.2587 0.688 57.4693 0.688 56.584ZM8.112 56.6C8.112 55.9387 7.97867 55.3627 7.712 54.872C7.44533 54.3813 7.08267 54.008 6.624 53.752C6.176 53.4853 5.68 53.352 5.136 53.352C4.592 53.352 4.096 53.48 3.648 53.736C3.2 53.992 2.84267 54.3653 2.576 54.856C2.30933 55.3467 2.176 55.9227 2.176 56.584C2.176 57.256 2.30933 57.8427 2.576 58.344C2.84267 58.8347 3.2 59.2133 3.648 59.48C4.096 59.736 4.592 59.864 5.136 59.864C5.68 59.864 6.176 59.736 6.624 59.48C7.08267 59.2133 7.44533 58.8347 7.712 58.344C7.97867 57.8427 8.112 57.2613 8.112 56.6ZM11.5005 56.584C11.5005 55.688 11.6818 54.904 12.0445 54.232C12.4072 53.5493 12.9032 53.0213 13.5325 52.648C14.1725 52.2747 14.8872 52.088 15.6765 52.088C16.3592 52.088 16.9938 52.248 17.5805 52.568C18.1672 52.8773 18.6152 53.288 18.9245 53.8V49.16H20.3965V61H18.9245V59.352C18.6365 59.8747 18.2098 60.3067 17.6445 60.648C17.0792 60.9787 16.4178 61.144 15.6605 61.144C14.8818 61.144 14.1725 60.952 13.5325 60.568C12.9032 60.184 12.4072 59.6453 12.0445 58.952C11.6818 58.2587 11.5005 57.4693 11.5005 56.584ZM18.9245 56.6C18.9245 55.9387 18.7912 55.3627 18.5245 54.872C18.2578 54.3813 17.8952 54.008 17.4365 53.752C16.9885 53.4853 16.4925 53.352 15.9485 53.352C15.4045 53.352 14.9085 53.48 14.4605 53.736C14.0125 53.992 13.6552 54.3653 13.3885 54.856C13.1218 55.3467 12.9885 55.9227 12.9885 56.584C12.9885 57.256 13.1218 57.8427 13.3885 58.344C13.6552 58.8347 14.0125 59.2133 14.4605 59.48C14.9085 59.736 15.4045 59.864 15.9485 59.864C16.4925 59.864 16.9885 59.736 17.4365 59.48C17.8952 59.2133 18.2578 58.8347 18.5245 58.344C18.7912 57.8427 18.9245 57.2613 18.9245 56.6ZM22.313 56.584C22.313 55.688 22.4943 54.904 22.857 54.232C23.2197 53.5493 23.7157 53.0213 24.345 52.648C24.985 52.2747 25.6997 52.088 26.489 52.088C27.1717 52.088 27.8063 52.248 28.393 52.568C28.9797 52.8773 29.4277 53.288 29.737 53.8V49.16H31.209V61H29.737V59.352C29.449 59.8747 29.0223 60.3067 28.457 60.648C27.8917 60.9787 27.2303 61.144 26.473 61.144C25.6943 61.144 24.985 60.952 24.345 60.568C23.7157 60.184 23.2197 59.6453 22.857 58.952C22.4943 58.2587 22.313 57.4693 22.313 56.584ZM29.737 56.6C29.737 55.9387 29.6037 55.3627 29.337 54.872C29.0703 54.3813 28.7077 54.008 28.249 53.752C27.801 53.4853 27.305 53.352 26.761 53.352C26.217 53.352 25.721 53.48 25.273 53.736C24.825 53.992 24.4677 54.3653 24.201 54.856C23.9343 55.3467 23.801 55.9227 23.801 56.584C23.801 57.256 23.9343 57.8427 24.201 58.344C24.4677 58.8347 24.825 59.2133 25.273 59.48C25.721 59.736 26.217 59.864 26.761 59.864C27.305 59.864 27.801 59.736 28.249 59.48C28.7077 59.2133 29.0703 58.8347 29.337 58.344C29.6037 57.8427 29.737 57.2613 29.737 56.6ZM35.1255 53.656C35.3815 53.1547 35.7442 52.7653 36.2135 52.488C36.6935 52.2107 37.2748 52.072 37.9575 52.072V53.576H37.5735C35.9415 53.576 35.1255 54.4613 35.1255 56.232V61H33.6695V52.232H35.1255V53.656ZM47.6383 56.28C47.6383 56.5573 47.6223 56.8507 47.5903 57.16H40.5823C40.6356 58.024 40.9289 58.7013 41.4623 59.192C42.0063 59.672 42.6623 59.912 43.4303 59.912C44.0596 59.912 44.5823 59.768 44.9983 59.48C45.4249 59.1813 45.7236 58.7867 45.8943 58.296H47.4623C47.2276 59.1387 46.7583 59.8267 46.0543 60.36C45.3503 60.8827 44.4756 61.144 43.4303 61.144C42.5983 61.144 41.8516 60.9573 41.1903 60.584C40.5396 60.2107 40.0276 59.6827 39.6543 59C39.2809 58.3067 39.0943 57.5067 39.0943 56.6C39.0943 55.6933 39.2756 54.8987 39.6383 54.216C40.0009 53.5333 40.5076 53.0107 41.1583 52.648C41.8196 52.2747 42.5769 52.088 43.4303 52.088C44.2623 52.088 44.9983 52.2693 45.6383 52.632C46.2783 52.9947 46.7689 53.496 47.1103 54.136C47.4623 54.7653 47.6383 55.48 47.6383 56.28ZM46.1343 55.976C46.1343 55.4213 46.0116 54.9467 45.7663 54.552C45.5209 54.1467 45.1849 53.8427 44.7583 53.64C44.3423 53.4267 43.8783 53.32 43.3663 53.32C42.6303 53.32 42.0009 53.5547 41.4783 54.024C40.9663 54.4933 40.6729 55.144 40.5983 55.976H46.1343ZM52.6641 61.144C51.9921 61.144 51.3895 61.032 50.8561 60.808C50.3228 60.5733 49.9015 60.2533 49.5921 59.848C49.2828 59.432 49.1121 58.9573 49.0801 58.424H50.5841C50.6268 58.8613 50.8295 59.2187 51.1921 59.496C51.5655 59.7733 52.0508 59.912 52.6481 59.912C53.2028 59.912 53.6401 59.7893 53.9601 59.544C54.2801 59.2987 54.4401 58.9893 54.4401 58.616C54.4401 58.232 54.2695 57.9493 53.9281 57.768C53.5868 57.576 53.0588 57.3893 52.3441 57.208C51.6935 57.0373 51.1601 56.8667 50.7441 56.696C50.3388 56.5147 49.9868 56.2533 49.6881 55.912C49.4001 55.56 49.2561 55.1013 49.2561 54.536C49.2561 54.088 49.3895 53.6773 49.6561 53.304C49.9228 52.9307 50.3015 52.6373 50.7921 52.424C51.2828 52.2 51.8428 52.088 52.4721 52.088C53.4428 52.088 54.2268 52.3333 54.8241 52.824C55.4215 53.3147 55.7415 53.9867 55.7841 54.84H54.3281C54.2961 54.3813 54.1095 54.0133 53.7681 53.736C53.4375 53.4587 52.9895 53.32 52.4241 53.32C51.9015 53.32 51.4855 53.432 51.1761 53.656C50.8668 53.88 50.7121 54.1733 50.7121 54.536C50.7121 54.824 50.8028 55.064 50.9841 55.256C51.1761 55.4373 51.4108 55.5867 51.6881 55.704C51.9761 55.8107 52.3708 55.9333 52.8721 56.072C53.5015 56.2427 54.0135 56.4133 54.4081 56.584C54.8028 56.744 55.1388 56.9893 55.4161 57.32C55.7041 57.6507 55.8535 58.0827 55.8641 58.616C55.8641 59.096 55.7308 59.528 55.4641 59.912C55.1975 60.296 54.8188 60.6 54.3281 60.824C53.8481 61.0373 53.2935 61.144 52.6641 61.144ZM61.0235 61.144C60.3515 61.144 59.7488 61.032 59.2155 60.808C58.6822 60.5733 58.2608 60.2533 57.9515 59.848C57.6422 59.432 57.4715 58.9573 57.4395 58.424H58.9435C58.9862 58.8613 59.1888 59.2187 59.5515 59.496C59.9248 59.7733 60.4102 59.912 61.0075 59.912C61.5622 59.912 61.9995 59.7893 62.3195 59.544C62.6395 59.2987 62.7995 58.9893 62.7995 58.616C62.7995 58.232 62.6288 57.9493 62.2875 57.768C61.9462 57.576 61.4182 57.3893 60.7035 57.208C60.0528 57.0373 59.5195 56.8667 59.1035 56.696C58.6982 56.5147 58.3462 56.2533 58.0475 55.912C57.7595 55.56 57.6155 55.1013 57.6155 54.536C57.6155 54.088 57.7488 53.6773 58.0155 53.304C58.2822 52.9307 58.6608 52.6373 59.1515 52.424C59.6422 52.2 60.2022 52.088 60.8315 52.088C61.8022 52.088 62.5862 52.3333 63.1835 52.824C63.7808 53.3147 64.1008 53.9867 64.1435 54.84H62.6875C62.6555 54.3813 62.4688 54.0133 62.1275 53.736C61.7968 53.4587 61.3488 53.32 60.7835 53.32C60.2608 53.32 59.8448 53.432 59.5355 53.656C59.2262 53.88 59.0715 54.1733 59.0715 54.536C59.0715 54.824 59.1622 55.064 59.3435 55.256C59.5355 55.4373 59.7702 55.5867 60.0475 55.704C60.3355 55.8107 60.7302 55.9333 61.2315 56.072C61.8608 56.2427 62.3728 56.4133 62.7675 56.584C63.1622 56.744 63.4982 56.9893 63.7755 57.32C64.0635 57.6507 64.2128 58.0827 64.2235 58.616C64.2235 59.096 64.0902 59.528 63.8235 59.912C63.5568 60.296 63.1782 60.6 62.6875 60.824C62.2075 61.0373 61.6528 61.144 61.0235 61.144ZM66.7429 61.096C66.4655 61.096 66.2309 61 66.0389 60.808C65.8469 60.616 65.7509 60.3813 65.7509 60.104C65.7509 59.8267 65.8469 59.592 66.0389 59.4C66.2309 59.208 66.4655 59.112 66.7429 59.112C67.0095 59.112 67.2335 59.208 67.4149 59.4C67.6069 59.592 67.7029 59.8267 67.7029 60.104C67.7029 60.3813 67.6069 60.616 67.4149 60.808C67.2335 61 67.0095 61.096 66.7429 61.096Z" fill="black"/>
</svg>
