<svg width="423" height="57" viewBox="0 0 423 57" fill="none" xmlns="http://www.w3.org/2000/svg">
<rect width="423" height="57" rx="6" fill="#505050"/>
<path d="M194.864 35.112C194.117 35.112 193.445 34.984 192.848 34.728C192.251 34.4613 191.781 34.088 191.44 33.608C191.099 33.128 190.928 32.568 190.928 31.928H192.88C192.923 32.408 193.109 32.8027 193.44 33.112C193.781 33.4213 194.256 33.576 194.864 33.576C195.493 33.576 195.984 33.4267 196.336 33.128C196.688 32.8187 196.864 32.424 196.864 31.944C196.864 31.5707 196.752 31.2667 196.528 31.032C196.315 30.7973 196.043 30.616 195.712 30.488C195.392 30.36 194.944 30.2213 194.368 30.072C193.643 29.88 193.051 29.688 192.592 29.496C192.144 29.2933 191.76 28.984 191.44 28.568C191.12 28.152 190.96 27.5973 190.96 26.904C190.96 26.264 191.12 25.704 191.44 25.224C191.76 24.744 192.208 24.376 192.784 24.12C193.36 23.864 194.027 23.736 194.784 23.736C195.861 23.736 196.741 24.008 197.424 24.552C198.117 25.0853 198.501 25.8213 198.576 26.76H196.56C196.528 26.3547 196.336 26.008 195.984 25.72C195.632 25.432 195.168 25.288 194.592 25.288C194.069 25.288 193.643 25.4213 193.312 25.688C192.981 25.9547 192.816 26.3387 192.816 26.84C192.816 27.1813 192.917 27.464 193.12 27.688C193.333 27.9013 193.6 28.072 193.92 28.2C194.24 28.328 194.677 28.4667 195.232 28.616C195.968 28.8187 196.565 29.0213 197.024 29.224C197.493 29.4267 197.888 29.7413 198.208 30.168C198.539 30.584 198.704 31.144 198.704 31.848C198.704 32.4133 198.549 32.9467 198.24 33.448C197.941 33.9493 197.499 34.3547 196.912 34.664C196.336 34.9627 195.653 35.112 194.864 35.112ZM208.84 26.184V35H207.016V33.96C206.728 34.3227 206.35 34.6107 205.88 34.824C205.422 35.0267 204.931 35.128 204.408 35.128C203.715 35.128 203.091 34.984 202.536 34.696C201.992 34.408 201.56 33.9813 201.24 33.416C200.931 32.8507 200.776 32.168 200.776 31.368V26.184H202.584V31.096C202.584 31.8853 202.782 32.4933 203.176 32.92C203.571 33.336 204.11 33.544 204.792 33.544C205.475 33.544 206.014 33.336 206.408 32.92C206.814 32.4933 207.016 31.8853 207.016 31.096V26.184H208.84ZM213.071 27.496C213.38 27.0693 213.802 26.7227 214.335 26.456C214.879 26.1787 215.482 26.04 216.143 26.04C216.922 26.04 217.626 26.2267 218.255 26.6C218.884 26.9733 219.38 27.5067 219.743 28.2C220.106 28.8827 220.287 29.6667 220.287 30.552C220.287 31.4373 220.106 32.232 219.743 32.936C219.38 33.6293 218.879 34.1733 218.239 34.568C217.61 34.952 216.911 35.144 216.143 35.144C215.46 35.144 214.852 35.0107 214.319 34.744C213.796 34.4773 213.38 34.136 213.071 33.72V35H211.247V23.16H213.071V27.496ZM218.431 30.552C218.431 29.944 218.303 29.4213 218.047 28.984C217.802 28.536 217.471 28.2 217.055 27.976C216.65 27.7413 216.212 27.624 215.743 27.624C215.284 27.624 214.847 27.7413 214.431 27.976C214.026 28.2107 213.695 28.552 213.439 29C213.194 29.448 213.071 29.976 213.071 30.584C213.071 31.192 213.194 31.7253 213.439 32.184C213.695 32.632 214.026 32.9733 214.431 33.208C214.847 33.4427 215.284 33.56 215.743 33.56C216.212 33.56 216.65 33.4427 217.055 33.208C217.471 32.9627 217.802 32.6107 218.047 32.152C218.303 31.6933 218.431 31.16 218.431 30.552ZM232.763 26.04C233.456 26.04 234.075 26.184 234.619 26.472C235.173 26.76 235.605 27.1867 235.915 27.752C236.235 28.3173 236.395 29 236.395 29.8V35H234.587V30.072C234.587 29.2827 234.389 28.68 233.995 28.264C233.6 27.8373 233.061 27.624 232.379 27.624C231.696 27.624 231.152 27.8373 230.747 28.264C230.352 28.68 230.155 29.2827 230.155 30.072V35H228.347V30.072C228.347 29.2827 228.149 28.68 227.755 28.264C227.36 27.8373 226.821 27.624 226.139 27.624C225.456 27.624 224.912 27.8373 224.507 28.264C224.112 28.68 223.915 29.2827 223.915 30.072V35H222.091V26.184H223.915V27.192C224.213 26.8293 224.592 26.5467 225.051 26.344C225.509 26.1413 226 26.04 226.523 26.04C227.227 26.04 227.856 26.1893 228.411 26.488C228.965 26.7867 229.392 27.2187 229.691 27.784C229.957 27.2507 230.373 26.8293 230.939 26.52C231.504 26.2 232.112 26.04 232.763 26.04ZM239.644 25.016C239.313 25.016 239.036 24.904 238.812 24.68C238.588 24.456 238.476 24.1787 238.476 23.848C238.476 23.5173 238.588 23.24 238.812 23.016C239.036 22.792 239.313 22.68 239.644 22.68C239.964 22.68 240.236 22.792 240.46 23.016C240.684 23.24 240.796 23.5173 240.796 23.848C240.796 24.1787 240.684 24.456 240.46 24.68C240.236 24.904 239.964 25.016 239.644 25.016ZM240.54 26.184V35H238.716V26.184H240.54ZM245.062 27.672V32.552C245.062 32.8827 245.137 33.1227 245.286 33.272C245.446 33.4107 245.713 33.48 246.086 33.48H247.206V35H245.766C244.945 35 244.316 34.808 243.878 34.424C243.441 34.04 243.222 33.416 243.222 32.552V27.672H242.182V26.184H243.222V23.992H245.062V26.184H247.206V27.672H245.062Z" fill="white"/>
</svg>
