<svg width="423" height="57" viewBox="0 0 423 57" fill="none" xmlns="http://www.w3.org/2000/svg">
<rect width="423" height="57" rx="6" fill="#303030"/>
<path d="M169.032 28.624C169.032 26.992 169.4 25.528 170.136 24.232C170.872 22.92 171.872 21.896 173.136 21.16C174.416 20.424 175.832 20.056 177.384 20.056C179.208 20.056 180.8 20.496 182.16 21.376C183.52 22.256 184.512 23.504 185.136 25.12H182.52C182.056 24.112 181.384 23.336 180.504 22.792C179.64 22.248 178.6 21.976 177.384 21.976C176.216 21.976 175.168 22.248 174.24 22.792C173.312 23.336 172.584 24.112 172.056 25.12C171.528 26.112 171.264 27.28 171.264 28.624C171.264 29.952 171.528 31.12 172.056 32.128C172.584 33.12 173.312 33.888 174.24 34.432C175.168 34.976 176.216 35.248 177.384 35.248C178.6 35.248 179.64 34.984 180.504 34.456C181.384 33.912 182.056 33.136 182.52 32.128H185.136C184.512 33.728 183.52 34.968 182.16 35.848C180.8 36.712 179.208 37.144 177.384 37.144C175.832 37.144 174.416 36.784 173.136 36.064C171.872 35.328 170.872 34.312 170.136 33.016C169.4 31.72 169.032 30.256 169.032 28.624ZM187.571 30.376C187.571 29.032 187.843 27.856 188.387 26.848C188.931 25.824 189.675 25.032 190.619 24.472C191.579 23.912 192.643 23.632 193.811 23.632C194.963 23.632 195.963 23.88 196.811 24.376C197.659 24.872 198.291 25.496 198.707 26.248V23.848H200.915V37H198.707V34.552C198.275 35.32 197.627 35.96 196.763 36.472C195.915 36.968 194.923 37.216 193.787 37.216C192.619 37.216 191.563 36.928 190.619 36.352C189.675 35.776 188.931 34.968 188.387 33.928C187.843 32.888 187.571 31.704 187.571 30.376ZM198.707 30.4C198.707 29.408 198.507 28.544 198.107 27.808C197.707 27.072 197.163 26.512 196.475 26.128C195.803 25.728 195.059 25.528 194.243 25.528C193.427 25.528 192.683 25.72 192.011 26.104C191.339 26.488 190.803 27.048 190.403 27.784C190.003 28.52 189.803 29.384 189.803 30.376C189.803 31.384 190.003 32.264 190.403 33.016C190.803 33.752 191.339 34.32 192.011 34.72C192.683 35.104 193.427 35.296 194.243 35.296C195.059 35.296 195.803 35.104 196.475 34.72C197.163 34.32 197.707 33.752 198.107 33.016C198.507 32.264 198.707 31.392 198.707 30.4ZM211.014 23.608C212.614 23.608 213.91 24.096 214.902 25.072C215.894 26.032 216.39 27.424 216.39 29.248V37H214.23V29.56C214.23 28.248 213.902 27.248 213.246 26.56C212.59 25.856 211.694 25.504 210.558 25.504C209.406 25.504 208.486 25.864 207.798 26.584C207.126 27.304 206.79 28.352 206.79 29.728V37H204.606V23.848H206.79V25.72C207.222 25.048 207.806 24.528 208.542 24.16C209.294 23.792 210.118 23.608 211.014 23.608ZM219.141 30.4C219.141 29.04 219.413 27.856 219.957 26.848C220.501 25.824 221.253 25.032 222.213 24.472C223.189 23.912 224.301 23.632 225.549 23.632C227.165 23.632 228.493 24.024 229.533 24.808C230.589 25.592 231.285 26.68 231.621 28.072H229.269C229.045 27.272 228.605 26.64 227.949 26.176C227.309 25.712 226.509 25.48 225.549 25.48C224.301 25.48 223.293 25.912 222.525 26.776C221.757 27.624 221.373 28.832 221.373 30.4C221.373 31.984 221.757 33.208 222.525 34.072C223.293 34.936 224.301 35.368 225.549 35.368C226.509 35.368 227.309 35.144 227.949 34.696C228.589 34.248 229.029 33.608 229.269 32.776H231.621C231.269 34.12 230.565 35.2 229.509 36.016C228.453 36.816 227.133 37.216 225.549 37.216C224.301 37.216 223.189 36.936 222.213 36.376C221.253 35.816 220.501 35.024 219.957 34C219.413 32.976 219.141 31.776 219.141 30.4ZM246.536 29.92C246.536 30.336 246.512 30.776 246.464 31.24H235.952C236.032 32.536 236.472 33.552 237.272 34.288C238.088 35.008 239.072 35.368 240.224 35.368C241.168 35.368 241.952 35.152 242.576 34.72C243.216 34.272 243.664 33.68 243.92 32.944H246.272C245.92 34.208 245.216 35.24 244.16 36.04C243.104 36.824 241.792 37.216 240.224 37.216C238.976 37.216 237.856 36.936 236.864 36.376C235.888 35.816 235.12 35.024 234.56 34C234 32.96 233.72 31.76 233.72 30.4C233.72 29.04 233.992 27.848 234.536 26.824C235.08 25.8 235.84 25.016 236.816 24.472C237.808 23.912 238.944 23.632 240.224 23.632C241.472 23.632 242.576 23.904 243.536 24.448C244.496 24.992 245.232 25.744 245.744 26.704C246.272 27.648 246.536 28.72 246.536 29.92ZM244.28 29.464C244.28 28.632 244.096 27.92 243.728 27.328C243.36 26.72 242.856 26.264 242.216 25.96C241.592 25.64 240.896 25.48 240.128 25.48C239.024 25.48 238.08 25.832 237.296 26.536C236.528 27.24 236.088 28.216 235.976 29.464H244.28ZM251.602 19.24V37H249.418V19.24H251.602Z" fill="white"/>
</svg>
