<svg width="195" height="17" viewBox="0 0 195 17" fill="none" xmlns="http://www.w3.org/2000/svg">
<path d="M3.592 0.815999C4.82933 0.815999 5.89067 1.04 6.776 1.488C7.66133 1.936 8.33867 2.58133 8.808 3.424C9.27733 4.26667 9.512 5.26933 9.512 6.432C9.512 7.584 9.27733 8.58133 8.808 9.424C8.33867 10.256 7.66133 10.896 6.776 11.344C5.89067 11.7813 4.82933 12 3.592 12H0.28V0.815999H3.592ZM3.592 11.072C5.14933 11.072 6.33333 10.6667 7.144 9.856C7.96533 9.03467 8.376 7.89333 8.376 6.432C8.376 4.96 7.96533 3.81333 7.144 2.992C6.33333 2.16 5.14933 1.744 3.592 1.744H1.4V11.072H3.592ZM15.4009 12.128C14.5795 12.128 13.8382 11.9467 13.1769 11.584C12.5262 11.2107 12.0089 10.688 11.6249 10.016C11.2515 9.33333 11.0649 8.53867 11.0649 7.632C11.0649 6.72533 11.2569 5.936 11.6409 5.264C12.0249 4.58133 12.5475 4.05867 13.2089 3.696C13.8702 3.32267 14.6115 3.136 15.4329 3.136C16.2542 3.136 16.9955 3.32267 17.6569 3.696C18.3289 4.05867 18.8515 4.58133 19.2249 5.264C19.6089 5.936 19.8009 6.72533 19.8009 7.632C19.8009 8.528 19.6089 9.31733 19.2249 10C18.8409 10.6827 18.3129 11.2107 17.6409 11.584C16.9689 11.9467 16.2222 12.128 15.4009 12.128ZM15.4009 11.152C15.9769 11.152 16.5102 11.024 17.0009 10.768C17.4915 10.5013 17.8862 10.1067 18.1849 9.584C18.4942 9.05067 18.6489 8.4 18.6489 7.632C18.6489 6.864 18.4995 6.21867 18.2009 5.696C17.9022 5.16267 17.5075 4.768 17.0169 4.512C16.5262 4.24533 15.9929 4.112 15.4169 4.112C14.8409 4.112 14.3075 4.24533 13.8169 4.512C13.3262 4.768 12.9315 5.16267 12.6329 5.696C12.3449 6.21867 12.2009 6.864 12.2009 7.632C12.2009 8.4 12.3449 9.05067 12.6329 9.584C12.9315 10.1067 13.3209 10.5013 13.8009 10.768C14.2915 11.024 14.8249 11.152 15.4009 11.152ZM25.9385 3.104C26.9838 3.104 27.8372 3.42933 28.4985 4.08C29.1598 4.72 29.4905 5.65333 29.4905 6.88V12H28.3865V7.008C28.3865 6.05867 28.1465 5.33333 27.6665 4.832C27.1972 4.33067 26.5518 4.08 25.7305 4.08C24.8878 4.08 24.2158 4.34667 23.7145 4.88C23.2132 5.41333 22.9625 6.19733 22.9625 7.232V12H21.8425V3.264H22.9625V4.752C23.2398 4.21867 23.6398 3.81333 24.1625 3.536C24.6852 3.248 25.2772 3.104 25.9385 3.104ZM32.1115 0.815999H33.4075L31.9995 4.272H31.1835L32.1115 0.815999ZM42.3238 3.264L37.1398 16.112H35.9718L37.6678 11.952L34.0838 3.264H35.3158L38.2918 10.72L41.1718 3.264H42.3238ZM52.3931 3.104C53.0545 3.104 53.6465 3.24267 54.1691 3.52C54.7025 3.79733 55.1185 4.224 55.4171 4.8C55.7265 5.36533 55.8811 6.05867 55.8811 6.88V12H54.7771V7.008C54.7771 6.05867 54.5371 5.33333 54.0571 4.832C53.5878 4.33067 52.9425 4.08 52.1211 4.08C51.2785 4.08 50.6065 4.34667 50.1051 4.88C49.6038 5.41333 49.3531 6.19733 49.3531 7.232V12H48.2331V0.16H49.3531V4.752C49.6305 4.22933 50.0358 3.824 50.5691 3.536C51.1131 3.248 51.7211 3.104 52.3931 3.104ZM57.8461 7.616C57.8461 6.72 58.0221 5.936 58.3741 5.264C58.7368 4.58133 59.2328 4.05867 59.8621 3.696C60.5021 3.32267 61.2221 3.136 62.0221 3.136C62.8541 3.136 63.5688 3.328 64.1661 3.712C64.7741 4.096 65.2115 4.58667 65.4781 5.184V3.264H66.5981V12H65.4781V10.064C65.2008 10.6613 64.7581 11.1573 64.1501 11.552C63.5528 11.936 62.8381 12.128 62.0061 12.128C61.2168 12.128 60.5021 11.9413 59.8621 11.568C59.2328 11.1947 58.7368 10.6667 58.3741 9.984C58.0221 9.30133 57.8461 8.512 57.8461 7.616ZM65.4781 7.632C65.4781 6.928 65.3341 6.30933 65.0461 5.776C64.7581 5.24267 64.3635 4.832 63.8621 4.544C63.3715 4.256 62.8275 4.112 62.2301 4.112C61.6115 4.112 61.0568 4.25067 60.5661 4.528C60.0755 4.80533 59.6861 5.21067 59.3981 5.744C59.1208 6.26667 58.9821 6.89067 58.9821 7.616C58.9821 8.33067 59.1208 8.96 59.3981 9.504C59.6861 10.0373 60.0755 10.448 60.5661 10.736C61.0568 11.0133 61.6115 11.152 62.2301 11.152C62.8275 11.152 63.3715 11.008 63.8621 10.72C64.3635 10.432 64.7581 10.0213 65.0461 9.488C65.3341 8.95467 65.4781 8.336 65.4781 7.632ZM72.259 10.912L75.203 3.264H76.387L72.883 12H71.619L68.115 3.264H69.315L72.259 10.912ZM85.809 7.184C85.809 7.568 85.7983 7.86133 85.777 8.064H78.529C78.561 8.72533 78.721 9.29067 79.009 9.76C79.297 10.2293 79.6757 10.5867 80.145 10.832C80.6143 11.0667 81.1263 11.184 81.681 11.184C82.4063 11.184 83.0143 11.008 83.505 10.656C84.0063 10.304 84.337 9.82933 84.497 9.232H85.681C85.4677 10.0853 85.009 10.784 84.305 11.328C83.6117 11.8613 82.737 12.128 81.681 12.128C80.8597 12.128 80.1237 11.9467 79.473 11.584C78.8223 11.2107 78.3103 10.688 77.937 10.016C77.5743 9.33333 77.393 8.53867 77.393 7.632C77.393 6.72533 77.5743 5.93067 77.937 5.248C78.2997 4.56533 78.8063 4.04267 79.457 3.68C80.1077 3.31733 80.849 3.136 81.681 3.136C82.513 3.136 83.2383 3.31733 83.857 3.68C84.4863 4.04267 84.9663 4.53333 85.297 5.152C85.6383 5.76 85.809 6.43733 85.809 7.184ZM84.673 7.152C84.6837 6.50133 84.5503 5.94667 84.273 5.488C84.0063 5.02933 83.6383 4.68267 83.169 4.448C82.6997 4.21333 82.1877 4.096 81.633 4.096C80.801 4.096 80.0917 4.36267 79.505 4.896C78.9183 5.42933 78.593 6.18133 78.529 7.152H84.673ZM91.7368 7.616C91.7368 6.72 91.9128 5.936 92.2648 5.264C92.6274 4.58133 93.1234 4.05867 93.7528 3.696C94.3928 3.32267 95.1128 3.136 95.9128 3.136C96.7448 3.136 97.4594 3.328 98.0568 3.712C98.6648 4.096 99.1021 4.58667 99.3688 5.184V3.264H100.489V12H99.3688V10.064C99.0914 10.6613 98.6488 11.1573 98.0408 11.552C97.4434 11.936 96.7288 12.128 95.8968 12.128C95.1074 12.128 94.3928 11.9413 93.7528 11.568C93.1234 11.1947 92.6274 10.6667 92.2648 9.984C91.9128 9.30133 91.7368 8.512 91.7368 7.616ZM99.3688 7.632C99.3688 6.928 99.2248 6.30933 98.9368 5.776C98.6488 5.24267 98.2541 4.832 97.7528 4.544C97.2621 4.256 96.7181 4.112 96.1208 4.112C95.5021 4.112 94.9474 4.25067 94.4568 4.528C93.9661 4.80533 93.5768 5.21067 93.2888 5.744C93.0114 6.26667 92.8728 6.89067 92.8728 7.616C92.8728 8.33067 93.0114 8.96 93.2888 9.504C93.5768 10.0373 93.9661 10.448 94.4568 10.736C94.9474 11.0133 95.5021 11.152 96.1208 11.152C96.7181 11.152 97.2621 11.008 97.7528 10.72C98.2541 10.432 98.6488 10.0213 98.9368 9.488C99.2248 8.95467 99.3688 8.336 99.3688 7.632ZM107.142 3.104C108.187 3.104 109.04 3.42933 109.702 4.08C110.363 4.72 110.694 5.65333 110.694 6.88V12H109.59V7.008C109.59 6.05867 109.35 5.33333 108.87 4.832C108.4 4.33067 107.755 4.08 106.934 4.08C106.091 4.08 105.419 4.34667 104.918 4.88C104.416 5.41333 104.166 6.19733 104.166 7.232V12H103.046V3.264H104.166V4.752C104.443 4.21867 104.843 3.81333 105.366 3.536C105.888 3.248 106.48 3.104 107.142 3.104ZM124.041 9.344H118.953L117.977 12H116.793L120.873 0.959999H122.137L126.201 12H125.017L124.041 9.344ZM123.705 8.416L121.497 2.368L119.289 8.416H123.705ZM127.487 7.632C127.487 6.72533 127.668 5.936 128.031 5.264C128.393 4.58133 128.895 4.05867 129.535 3.696C130.175 3.32267 130.905 3.136 131.727 3.136C132.804 3.136 133.689 3.40267 134.383 3.936C135.087 4.46933 135.54 5.19467 135.743 6.112H134.543C134.393 5.48267 134.068 4.992 133.567 4.64C133.076 4.27733 132.463 4.096 131.727 4.096C131.14 4.096 130.612 4.22933 130.143 4.496C129.673 4.76267 129.3 5.16267 129.023 5.696C128.756 6.21867 128.623 6.864 128.623 7.632C128.623 8.4 128.756 9.05067 129.023 9.584C129.3 10.1173 129.673 10.5173 130.143 10.784C130.612 11.0507 131.14 11.184 131.727 11.184C132.463 11.184 133.076 11.008 133.567 10.656C134.068 10.2933 134.393 9.792 134.543 9.152H135.743C135.54 10.048 135.087 10.768 134.383 11.312C133.679 11.856 132.793 12.128 131.727 12.128C130.905 12.128 130.175 11.9467 129.535 11.584C128.895 11.2107 128.393 10.688 128.031 10.016C127.668 9.33333 127.487 8.53867 127.487 7.632ZM137.299 7.632C137.299 6.72533 137.481 5.936 137.843 5.264C138.206 4.58133 138.707 4.05867 139.347 3.696C139.987 3.32267 140.718 3.136 141.539 3.136C142.617 3.136 143.502 3.40267 144.195 3.936C144.899 4.46933 145.353 5.19467 145.555 6.112H144.355C144.206 5.48267 143.881 4.992 143.379 4.64C142.889 4.27733 142.275 4.096 141.539 4.096C140.953 4.096 140.425 4.22933 139.955 4.496C139.486 4.76267 139.113 5.16267 138.835 5.696C138.569 6.21867 138.435 6.864 138.435 7.632C138.435 8.4 138.569 9.05067 138.835 9.584C139.113 10.1173 139.486 10.5173 139.955 10.784C140.425 11.0507 140.953 11.184 141.539 11.184C142.275 11.184 142.889 11.008 143.379 10.656C143.881 10.2933 144.206 9.792 144.355 9.152H145.555C145.353 10.048 144.899 10.768 144.195 11.312C143.491 11.856 142.606 12.128 141.539 12.128C140.718 12.128 139.987 11.9467 139.347 11.584C138.707 11.2107 138.206 10.688 137.843 10.016C137.481 9.33333 137.299 8.53867 137.299 7.632ZM151.448 12.128C150.626 12.128 149.885 11.9467 149.224 11.584C148.573 11.2107 148.056 10.688 147.672 10.016C147.298 9.33333 147.112 8.53867 147.112 7.632C147.112 6.72533 147.304 5.936 147.688 5.264C148.072 4.58133 148.594 4.05867 149.256 3.696C149.917 3.32267 150.658 3.136 151.48 3.136C152.301 3.136 153.042 3.32267 153.704 3.696C154.376 4.05867 154.898 4.58133 155.272 5.264C155.656 5.936 155.848 6.72533 155.848 7.632C155.848 8.528 155.656 9.31733 155.272 10C154.888 10.6827 154.36 11.2107 153.688 11.584C153.016 11.9467 152.269 12.128 151.448 12.128ZM151.448 11.152C152.024 11.152 152.557 11.024 153.048 10.768C153.538 10.5013 153.933 10.1067 154.232 9.584C154.541 9.05067 154.696 8.4 154.696 7.632C154.696 6.864 154.546 6.21867 154.248 5.696C153.949 5.16267 153.554 4.768 153.064 4.512C152.573 4.24533 152.04 4.112 151.464 4.112C150.888 4.112 150.354 4.24533 149.864 4.512C149.373 4.768 148.978 5.16267 148.68 5.696C148.392 6.21867 148.248 6.864 148.248 7.632C148.248 8.4 148.392 9.05067 148.68 9.584C148.978 10.1067 149.368 10.5013 149.848 10.768C150.338 11.024 150.872 11.152 151.448 11.152ZM165.457 3.264V12H164.337V10.464C164.081 11.008 163.687 11.424 163.153 11.712C162.62 12 162.023 12.144 161.361 12.144C160.316 12.144 159.463 11.824 158.801 11.184C158.14 10.5333 157.809 9.59467 157.809 8.368V3.264H158.913V8.24C158.913 9.18933 159.148 9.91467 159.617 10.416C160.097 10.9173 160.748 11.168 161.569 11.168C162.412 11.168 163.084 10.9013 163.585 10.368C164.087 9.83467 164.337 9.05067 164.337 8.016V3.264H165.457ZM172.11 3.104C173.156 3.104 174.009 3.42933 174.67 4.08C175.332 4.72 175.662 5.65333 175.662 6.88V12H174.558V7.008C174.558 6.05867 174.318 5.33333 173.838 4.832C173.369 4.33067 172.724 4.08 171.902 4.08C171.06 4.08 170.388 4.34667 169.886 4.88C169.385 5.41333 169.134 6.19733 169.134 7.232V12H168.014V3.264H169.134V4.752C169.412 4.21867 169.812 3.81333 170.334 3.536C170.857 3.248 171.449 3.104 172.11 3.104ZM179.595 4.208V9.632C179.595 10.1653 179.697 10.5333 179.899 10.736C180.102 10.9387 180.459 11.04 180.971 11.04H181.995V12H180.795C180.006 12 179.419 11.8187 179.035 11.456C178.651 11.0827 178.459 10.4747 178.459 9.632V4.208H177.243V3.264H178.459V1.072H179.595V3.264H181.995V4.208H179.595ZM190.937 0.672C191.62 0.672 192.222 0.805333 192.745 1.072C193.278 1.33867 193.689 1.72267 193.977 2.224C194.276 2.71467 194.425 3.28533 194.425 3.936C194.425 5.088 194.068 5.936 193.353 6.48C192.649 7.01333 191.684 7.28 190.457 7.28L190.409 9.04H189.449L189.385 6.48H189.801C190.9 6.48 191.764 6.30933 192.393 5.968C193.033 5.616 193.353 4.93867 193.353 3.936C193.353 3.232 193.129 2.672 192.681 2.256C192.244 1.84 191.662 1.632 190.937 1.632C190.212 1.632 189.636 1.82933 189.209 2.224C188.782 2.61867 188.569 3.15733 188.569 3.84H187.497C187.497 3.2 187.641 2.64533 187.929 2.176C188.228 1.696 188.633 1.328 189.145 1.072C189.668 0.805333 190.265 0.672 190.937 0.672ZM189.929 12.08C189.694 12.08 189.497 12 189.337 11.84C189.188 11.68 189.113 11.4827 189.113 11.248C189.113 11.0133 189.188 10.8213 189.337 10.672C189.497 10.512 189.694 10.432 189.929 10.432C190.153 10.432 190.34 10.512 190.489 10.672C190.649 10.8213 190.729 11.0133 190.729 11.248C190.729 11.4827 190.649 11.68 190.489 11.84C190.34 12 190.153 12.08 189.929 12.08Z" fill="#7D7D7D"/>
</svg>
