<svg width="423" height="57" viewBox="0 0 423 57" fill="none" xmlns="http://www.w3.org/2000/svg">
<rect width="423" height="57" rx="6" fill="#505050"/>
<path d="M188.032 24.048V29.64H194.128V31.44H188.032V37.2H194.848V39H185.848V22.248H194.848V24.048H188.032ZM197.337 32.376C197.337 31.032 197.609 29.856 198.153 28.848C198.697 27.824 199.441 27.032 200.385 26.472C201.345 25.912 202.417 25.632 203.601 25.632C204.625 25.632 205.577 25.872 206.457 26.352C207.337 26.816 208.009 27.432 208.473 28.2V21.24H210.681V39H208.473V36.528C208.041 37.312 207.401 37.96 206.553 38.472C205.705 38.968 204.713 39.216 203.577 39.216C202.409 39.216 201.345 38.928 200.385 38.352C199.441 37.776 198.697 36.968 198.153 35.928C197.609 34.888 197.337 33.704 197.337 32.376ZM208.473 32.4C208.473 31.408 208.273 30.544 207.873 29.808C207.473 29.072 206.929 28.512 206.241 28.128C205.569 27.728 204.825 27.528 204.009 27.528C203.193 27.528 202.449 27.72 201.777 28.104C201.105 28.488 200.569 29.048 200.169 29.784C199.769 30.52 199.569 31.384 199.569 32.376C199.569 33.384 199.769 34.264 200.169 35.016C200.569 35.752 201.105 36.32 201.777 36.72C202.449 37.104 203.193 37.296 204.009 37.296C204.825 37.296 205.569 37.104 206.241 36.72C206.929 36.32 207.473 35.752 207.873 35.016C208.273 34.264 208.473 33.392 208.473 32.4ZM215.499 23.712C215.083 23.712 214.731 23.568 214.443 23.28C214.155 22.992 214.011 22.64 214.011 22.224C214.011 21.808 214.155 21.456 214.443 21.168C214.731 20.88 215.083 20.736 215.499 20.736C215.899 20.736 216.235 20.88 216.507 21.168C216.795 21.456 216.939 21.808 216.939 22.224C216.939 22.64 216.795 22.992 216.507 23.28C216.235 23.568 215.899 23.712 215.499 23.712ZM216.555 25.848V39H214.371V25.848H216.555ZM222.942 27.648V35.4C222.942 36.04 223.078 36.496 223.35 36.768C223.622 37.024 224.094 37.152 224.766 37.152H226.374V39H224.406C223.19 39 222.278 38.72 221.67 38.16C221.062 37.6 220.758 36.68 220.758 35.4V27.648H219.054V25.848H220.758V22.536H222.942V25.848H226.374V27.648H222.942Z" fill="white"/>
</svg>
