<svg width="163" height="57" viewBox="0 0 163 57" fill="none" xmlns="http://www.w3.org/2000/svg">
<rect width="163" height="57" rx="6" fill="#303030"/>
<path d="M14.008 23.88V30.968C14.008 31.8107 14.2267 32.4453 14.664 32.872C15.112 33.2987 15.7307 33.512 16.52 33.512C17.32 33.512 17.9387 33.2987 18.376 32.872C18.824 32.4453 19.048 31.8107 19.048 30.968V23.88H20.872V30.936C20.872 31.8427 20.6747 32.6107 20.28 33.24C19.8853 33.8693 19.3573 34.3387 18.696 34.648C18.0347 34.9573 17.304 35.112 16.504 35.112C15.704 35.112 14.9733 34.9573 14.312 34.648C13.6613 34.3387 13.144 33.8693 12.76 33.24C12.376 32.6107 12.184 31.8427 12.184 30.936V23.88H14.008ZM25.0709 27.48C25.3802 27.0747 25.8015 26.7333 26.3349 26.456C26.8682 26.1787 27.4709 26.04 28.1429 26.04C28.9109 26.04 29.6095 26.232 30.2389 26.616C30.8789 26.9893 31.3802 27.5173 31.7429 28.2C32.1055 28.8827 32.2869 29.6667 32.2869 30.552C32.2869 31.4373 32.1055 32.232 31.7429 32.936C31.3802 33.6293 30.8789 34.1733 30.2389 34.568C29.6095 34.952 28.9109 35.144 28.1429 35.144C27.4709 35.144 26.8735 35.0107 26.3509 34.744C25.8282 34.4667 25.4015 34.1253 25.0709 33.72V39.192H23.2469V26.184H25.0709V27.48ZM30.4309 30.552C30.4309 29.944 30.3029 29.4213 30.0469 28.984C29.8015 28.536 29.4709 28.2 29.0549 27.976C28.6495 27.7413 28.2122 27.624 27.7429 27.624C27.2842 27.624 26.8469 27.7413 26.4309 27.976C26.0255 28.2107 25.6949 28.552 25.4389 29C25.1935 29.448 25.0709 29.976 25.0709 30.584C25.0709 31.192 25.1935 31.7253 25.4389 32.184C25.6949 32.632 26.0255 32.9733 26.4309 33.208C26.8469 33.4427 27.2842 33.56 27.7429 33.56C28.2122 33.56 28.6495 33.4427 29.0549 33.208C29.4709 32.9627 29.8015 32.6107 30.0469 32.152C30.3029 31.6933 30.4309 31.16 30.4309 30.552ZM33.4826 30.552C33.4826 29.6667 33.664 28.8827 34.0266 28.2C34.4 27.5173 34.9013 26.9893 35.5306 26.616C36.1706 26.232 36.88 26.04 37.6586 26.04C38.2346 26.04 38.8 26.168 39.3546 26.424C39.92 26.6693 40.368 27 40.6986 27.416V23.16H42.5386V35H40.6986V33.672C40.4 34.0987 39.984 34.4507 39.4506 34.728C38.928 35.0053 38.3253 35.144 37.6426 35.144C36.8746 35.144 36.1706 34.952 35.5306 34.568C34.9013 34.1733 34.4 33.6293 34.0266 32.936C33.664 32.232 33.4826 31.4373 33.4826 30.552ZM40.6986 30.584C40.6986 29.976 40.5706 29.448 40.3146 29C40.0693 28.552 39.744 28.2107 39.3386 27.976C38.9333 27.7413 38.496 27.624 38.0266 27.624C37.5573 27.624 37.12 27.7413 36.7146 27.976C36.3093 28.2 35.9786 28.536 35.7226 28.984C35.4773 29.4213 35.3546 29.944 35.3546 30.552C35.3546 31.16 35.4773 31.6933 35.7226 32.152C35.9786 32.6107 36.3093 32.9627 36.7146 33.208C37.1306 33.4427 37.568 33.56 38.0266 33.56C38.496 33.56 38.9333 33.4427 39.3386 33.208C39.744 32.9733 40.0693 32.632 40.3146 32.184C40.5706 31.7253 40.6986 31.192 40.6986 30.584ZM44.3264 30.552C44.3264 29.6667 44.5077 28.8827 44.8704 28.2C45.2437 27.5173 45.745 26.9893 46.3744 26.616C47.0144 26.232 47.7184 26.04 48.4864 26.04C49.1797 26.04 49.7824 26.1787 50.2944 26.456C50.817 26.7227 51.233 27.0587 51.5424 27.464V26.184H53.3824V35H51.5424V33.688C51.233 34.104 50.8117 34.4507 50.2784 34.728C49.745 35.0053 49.137 35.144 48.4544 35.144C47.697 35.144 47.0037 34.952 46.3744 34.568C45.745 34.1733 45.2437 33.6293 44.8704 32.936C44.5077 32.232 44.3264 31.4373 44.3264 30.552ZM51.5424 30.584C51.5424 29.976 51.4144 29.448 51.1584 29C50.913 28.552 50.5877 28.2107 50.1824 27.976C49.777 27.7413 49.3397 27.624 48.8704 27.624C48.401 27.624 47.9637 27.7413 47.5584 27.976C47.153 28.2 46.8224 28.536 46.5664 28.984C46.321 29.4213 46.1984 29.944 46.1984 30.552C46.1984 31.16 46.321 31.6933 46.5664 32.152C46.8224 32.6107 47.153 32.9627 47.5584 33.208C47.9744 33.4427 48.4117 33.56 48.8704 33.56C49.3397 33.56 49.777 33.4427 50.1824 33.208C50.5877 32.9733 50.913 32.632 51.1584 32.184C51.4144 31.7253 51.5424 31.192 51.5424 30.584ZM57.9061 27.672V32.552C57.9061 32.8827 57.9808 33.1227 58.1301 33.272C58.2901 33.4107 58.5568 33.48 58.9301 33.48H60.0501V35H58.6101C57.7888 35 57.1595 34.808 56.7221 34.424C56.2848 34.04 56.0661 33.416 56.0661 32.552V27.672H55.0261V26.184H56.0661V23.992H57.9061V26.184H60.0501V27.672H57.9061ZM69.8113 30.376C69.8113 30.7067 69.7899 31.0053 69.7473 31.272H63.0113C63.0646 31.976 63.3259 32.5413 63.7953 32.968C64.2646 33.3947 64.8406 33.608 65.5233 33.608C66.5046 33.608 67.1979 33.1973 67.6033 32.376H69.5712C69.3046 33.1867 68.8193 33.8533 68.1153 34.376C67.4219 34.888 66.5579 35.144 65.5233 35.144C64.6806 35.144 63.9233 34.9573 63.2513 34.584C62.5899 34.2 62.0673 33.6667 61.6833 32.984C61.3099 32.2907 61.1233 31.4907 61.1233 30.584C61.1233 29.6773 61.3046 28.8827 61.6673 28.2C62.0406 27.5067 62.5579 26.9733 63.2193 26.6C63.8913 26.2267 64.6593 26.04 65.5233 26.04C66.3553 26.04 67.0966 26.2213 67.7473 26.584C68.3979 26.9467 68.9046 27.4587 69.2673 28.12C69.6299 28.7707 69.8113 29.5227 69.8113 30.376ZM67.9073 29.8C67.8966 29.128 67.6566 28.5893 67.1873 28.184C66.7179 27.7787 66.1366 27.576 65.4433 27.576C64.8139 27.576 64.2753 27.7787 63.8273 28.184C63.3793 28.5787 63.1126 29.1173 63.0273 29.8H67.9073ZM83.5385 27.192C83.5385 27.7573 83.4052 28.2907 83.1385 28.792C82.8718 29.2933 82.4452 29.704 81.8585 30.024C81.2718 30.3333 80.5198 30.488 79.6025 30.488H77.5865V35H75.7625V23.88H79.6025C80.4558 23.88 81.1758 24.0293 81.7625 24.328C82.3598 24.616 82.8025 25.0107 83.0905 25.512C83.3892 26.0133 83.5385 26.5733 83.5385 27.192ZM79.6025 29C80.2958 29 80.8132 28.8453 81.1545 28.536C81.4958 28.216 81.6665 27.768 81.6665 27.192C81.6665 25.976 80.9785 25.368 79.6025 25.368H77.5865V29H79.6025ZM84.6701 30.552C84.6701 29.6667 84.8515 28.8827 85.2141 28.2C85.5875 27.5173 86.0888 26.9893 86.7181 26.616C87.3581 26.232 88.0621 26.04 88.8301 26.04C89.5235 26.04 90.1261 26.1787 90.6381 26.456C91.1608 26.7227 91.5768 27.0587 91.8861 27.464V26.184H93.7261V35H91.8861V33.688C91.5768 34.104 91.1555 34.4507 90.6221 34.728C90.0888 35.0053 89.4808 35.144 88.7981 35.144C88.0408 35.144 87.3475 34.952 86.7181 34.568C86.0888 34.1733 85.5875 33.6293 85.2141 32.936C84.8515 32.232 84.6701 31.4373 84.6701 30.552ZM91.8861 30.584C91.8861 29.976 91.7581 29.448 91.5021 29C91.2568 28.552 90.9315 28.2107 90.5261 27.976C90.1208 27.7413 89.6835 27.624 89.2141 27.624C88.7448 27.624 88.3075 27.7413 87.9021 27.976C87.4968 28.2 87.1661 28.536 86.9101 28.984C86.6648 29.4213 86.5421 29.944 86.5421 30.552C86.5421 31.16 86.6648 31.6933 86.9101 32.152C87.1661 32.6107 87.4968 32.9627 87.9021 33.208C88.3181 33.4427 88.7555 33.56 89.2141 33.56C89.6835 33.56 90.1208 33.4427 90.5261 33.208C90.9315 32.9733 91.2568 32.632 91.5021 32.184C91.7581 31.7253 91.8861 31.192 91.8861 30.584ZM99.3219 35.144C98.6285 35.144 98.0045 35.0213 97.4499 34.776C96.9059 34.52 96.4739 34.1787 96.1539 33.752C95.8339 33.3147 95.6632 32.8293 95.6419 32.296H97.5299C97.5619 32.6693 97.7379 32.984 98.0579 33.24C98.3885 33.4853 98.7992 33.608 99.2899 33.608C99.8019 33.608 100.197 33.512 100.474 33.32C100.762 33.1173 100.906 32.8613 100.906 32.552C100.906 32.2213 100.746 31.976 100.426 31.816C100.117 31.656 99.6205 31.48 98.9379 31.288C98.2765 31.1067 97.7379 30.9307 97.3219 30.76C96.9059 30.5893 96.5432 30.328 96.2339 29.976C95.9352 29.624 95.7859 29.16 95.7859 28.584C95.7859 28.1147 95.9245 27.688 96.2019 27.304C96.4792 26.9093 96.8739 26.6 97.3859 26.376C97.9085 26.152 98.5059 26.04 99.1779 26.04C100.181 26.04 100.986 26.296 101.594 26.808C102.213 27.3093 102.543 27.9973 102.586 28.872H100.762C100.73 28.4773 100.57 28.1627 100.282 27.928C99.9939 27.6933 99.6045 27.576 99.1139 27.576C98.6339 27.576 98.2659 27.6667 98.0099 27.848C97.7539 28.0293 97.6259 28.2693 97.6259 28.568C97.6259 28.8027 97.7112 29 97.8819 29.16C98.0525 29.32 98.2605 29.448 98.5059 29.544C98.7512 29.6293 99.1139 29.7413 99.5939 29.88C100.234 30.0507 100.757 30.2267 101.162 30.408C101.578 30.5787 101.935 30.8347 102.234 31.176C102.533 31.5173 102.687 31.9707 102.698 32.536C102.698 33.0373 102.559 33.4853 102.282 33.88C102.005 34.2747 101.61 34.584 101.098 34.808C100.597 35.032 100.005 35.144 99.3219 35.144ZM107.869 35.144C107.175 35.144 106.551 35.0213 105.997 34.776C105.453 34.52 105.021 34.1787 104.701 33.752C104.381 33.3147 104.21 32.8293 104.189 32.296H106.077C106.109 32.6693 106.285 32.984 106.605 33.24C106.935 33.4853 107.346 33.608 107.837 33.608C108.349 33.608 108.743 33.512 109.021 33.32C109.309 33.1173 109.453 32.8613 109.453 32.552C109.453 32.2213 109.293 31.976 108.973 31.816C108.663 31.656 108.167 31.48 107.485 31.288C106.823 31.1067 106.285 30.9307 105.869 30.76C105.453 30.5893 105.09 30.328 104.781 29.976C104.482 29.624 104.333 29.16 104.333 28.584C104.333 28.1147 104.471 27.688 104.749 27.304C105.026 26.9093 105.421 26.6 105.933 26.376C106.455 26.152 107.053 26.04 107.725 26.04C108.727 26.04 109.533 26.296 110.141 26.808C110.759 27.3093 111.09 27.9973 111.133 28.872H109.309C109.277 28.4773 109.117 28.1627 108.829 27.928C108.541 27.6933 108.151 27.576 107.661 27.576C107.181 27.576 106.813 27.6667 106.557 27.848C106.301 28.0293 106.173 28.2693 106.173 28.568C106.173 28.8027 106.258 29 106.429 29.16C106.599 29.32 106.807 29.448 107.053 29.544C107.298 29.6293 107.661 29.7413 108.141 29.88C108.781 30.0507 109.303 30.2267 109.709 30.408C110.125 30.5787 110.482 30.8347 110.781 31.176C111.079 31.5173 111.234 31.9707 111.245 32.536C111.245 33.0373 111.106 33.4853 110.829 33.88C110.551 34.2747 110.157 34.584 109.645 34.808C109.143 35.032 108.551 35.144 107.869 35.144ZM125.056 26.184L122.32 35H120.4L118.624 28.488L116.848 35H114.928L112.176 26.184H114.032L115.872 33.272L117.744 26.184H119.648L121.44 33.24L123.264 26.184H125.056ZM130.243 35.144C129.411 35.144 128.659 34.9573 127.987 34.584C127.315 34.2 126.787 33.6667 126.403 32.984C126.019 32.2907 125.827 31.4907 125.827 30.584C125.827 29.688 126.024 28.8933 126.419 28.2C126.813 27.5067 127.352 26.9733 128.035 26.6C128.717 26.2267 129.48 26.04 130.323 26.04C131.165 26.04 131.928 26.2267 132.611 26.6C133.293 26.9733 133.832 27.5067 134.227 28.2C134.621 28.8933 134.819 29.688 134.819 30.584C134.819 31.48 134.616 32.2747 134.211 32.968C133.805 33.6613 133.251 34.2 132.547 34.584C131.853 34.9573 131.085 35.144 130.243 35.144ZM130.243 33.56C130.712 33.56 131.149 33.448 131.555 33.224C131.971 33 132.307 32.664 132.563 32.216C132.819 31.768 132.947 31.224 132.947 30.584C132.947 29.944 132.824 29.4053 132.579 28.968C132.333 28.52 132.008 28.184 131.603 27.96C131.197 27.736 130.76 27.624 130.291 27.624C129.821 27.624 129.384 27.736 128.979 27.96C128.584 28.184 128.269 28.52 128.035 28.968C127.8 29.4053 127.683 29.944 127.683 30.584C127.683 31.5333 127.923 32.2693 128.403 32.792C128.893 33.304 129.507 33.56 130.243 33.56ZM138.446 27.464C138.713 27.016 139.065 26.6693 139.502 26.424C139.95 26.168 140.478 26.04 141.086 26.04V27.928H140.622C139.907 27.928 139.363 28.1093 138.99 28.472C138.627 28.8347 138.446 29.464 138.446 30.36V35H136.622V26.184H138.446V27.464ZM142.155 30.552C142.155 29.6667 142.336 28.8827 142.699 28.2C143.072 27.5173 143.573 26.9893 144.203 26.616C144.843 26.232 145.552 26.04 146.331 26.04C146.907 26.04 147.472 26.168 148.027 26.424C148.592 26.6693 149.04 27 149.371 27.416V23.16H151.211V35H149.371V33.672C149.072 34.0987 148.656 34.4507 148.123 34.728C147.6 35.0053 146.997 35.144 146.315 35.144C145.547 35.144 144.843 34.952 144.203 34.568C143.573 34.1733 143.072 33.6293 142.699 32.936C142.336 32.232 142.155 31.4373 142.155 30.552ZM149.371 30.584C149.371 29.976 149.243 29.448 148.987 29C148.741 28.552 148.416 28.2107 148.011 27.976C147.605 27.7413 147.168 27.624 146.699 27.624C146.229 27.624 145.792 27.7413 145.387 27.976C144.981 28.2 144.651 28.536 144.395 28.984C144.149 29.4213 144.027 29.944 144.027 30.552C144.027 31.16 144.149 31.6933 144.395 32.152C144.651 32.6107 144.981 32.9627 145.387 33.208C145.803 33.4427 146.24 33.56 146.699 33.56C147.168 33.56 147.605 33.4427 148.011 33.208C148.416 32.9733 148.741 32.632 148.987 32.184C149.243 31.7253 149.371 31.192 149.371 30.584Z" fill="white"/>
</svg>
