<svg width="423" height="57" viewBox="0 0 423 57" fill="none" xmlns="http://www.w3.org/2000/svg">
<rect width="423" height="57" rx="6" fill="black"/>
<path d="M193.024 33.528H196.784V35H191.2V23.88H193.024V33.528ZM202.133 35.144C201.301 35.144 200.549 34.9573 199.877 34.584C199.205 34.2 198.677 33.6667 198.293 32.984C197.909 32.2907 197.717 31.4907 197.717 30.584C197.717 29.688 197.915 28.8933 198.309 28.2C198.704 27.5067 199.243 26.9733 199.925 26.6C200.608 26.2267 201.371 26.04 202.213 26.04C203.056 26.04 203.819 26.2267 204.501 26.6C205.184 26.9733 205.723 27.5067 206.117 28.2C206.512 28.8933 206.709 29.688 206.709 30.584C206.709 31.48 206.507 32.2747 206.101 32.968C205.696 33.6613 205.141 34.2 204.437 34.584C203.744 34.9573 202.976 35.144 202.133 35.144ZM202.133 33.56C202.603 33.56 203.04 33.448 203.445 33.224C203.861 33 204.197 32.664 204.453 32.216C204.709 31.768 204.837 31.224 204.837 30.584C204.837 29.944 204.715 29.4053 204.469 28.968C204.224 28.52 203.899 28.184 203.493 27.96C203.088 27.736 202.651 27.624 202.181 27.624C201.712 27.624 201.275 27.736 200.869 27.96C200.475 28.184 200.16 28.52 199.925 28.968C199.691 29.4053 199.573 29.944 199.573 30.584C199.573 31.5333 199.813 32.2693 200.293 32.792C200.784 33.304 201.397 33.56 202.133 33.56ZM212.065 26.04C212.747 26.04 213.35 26.1787 213.873 26.456C214.406 26.7227 214.822 27.0587 215.121 27.464V26.184H216.961V35.144C216.961 35.9547 216.79 36.6747 216.449 37.304C216.107 37.944 215.611 38.4453 214.961 38.808C214.321 39.1707 213.553 39.352 212.657 39.352C211.462 39.352 210.47 39.0693 209.681 38.504C208.891 37.9493 208.443 37.192 208.337 36.232H210.145C210.283 36.6907 210.577 37.0587 211.025 37.336C211.483 37.624 212.027 37.768 212.657 37.768C213.393 37.768 213.985 37.544 214.433 37.096C214.891 36.648 215.121 35.9973 215.121 35.144V33.672C214.811 34.088 214.39 34.44 213.857 34.728C213.334 35.0053 212.737 35.144 212.065 35.144C211.297 35.144 210.593 34.952 209.953 34.568C209.323 34.1733 208.822 33.6293 208.449 32.936C208.086 32.232 207.905 31.4373 207.905 30.552C207.905 29.6667 208.086 28.8827 208.449 28.2C208.822 27.5173 209.323 26.9893 209.953 26.616C210.593 26.232 211.297 26.04 212.065 26.04ZM215.121 30.584C215.121 29.976 214.993 29.448 214.737 29C214.491 28.552 214.166 28.2107 213.761 27.976C213.355 27.7413 212.918 27.624 212.449 27.624C211.979 27.624 211.542 27.7413 211.137 27.976C210.731 28.2 210.401 28.536 210.145 28.984C209.899 29.4213 209.777 29.944 209.777 30.552C209.777 31.16 209.899 31.6933 210.145 32.152C210.401 32.6107 210.731 32.9627 211.137 33.208C211.553 33.4427 211.99 33.56 212.449 33.56C212.918 33.56 213.355 33.4427 213.761 33.208C214.166 32.9733 214.491 32.632 214.737 32.184C214.993 31.7253 215.121 31.192 215.121 30.584ZM220.284 25.016C219.954 25.016 219.676 24.904 219.452 24.68C219.228 24.456 219.116 24.1787 219.116 23.848C219.116 23.5173 219.228 23.24 219.452 23.016C219.676 22.792 219.954 22.68 220.284 22.68C220.604 22.68 220.876 22.792 221.1 23.016C221.324 23.24 221.436 23.5173 221.436 23.848C221.436 24.1787 221.324 24.456 221.1 24.68C220.876 24.904 220.604 25.016 220.284 25.016ZM221.18 26.184V35H219.356V26.184H221.18ZM228.023 26.04C228.716 26.04 229.335 26.184 229.879 26.472C230.434 26.76 230.866 27.1867 231.175 27.752C231.484 28.3173 231.639 29 231.639 29.8V35H229.831V30.072C229.831 29.2827 229.634 28.68 229.239 28.264C228.844 27.8373 228.306 27.624 227.623 27.624C226.94 27.624 226.396 27.8373 225.991 28.264C225.596 28.68 225.399 29.2827 225.399 30.072V35H223.575V26.184H225.399V27.192C225.698 26.8293 226.076 26.5467 226.535 26.344C227.004 26.1413 227.5 26.04 228.023 26.04Z" fill="white"/>
</svg>
