<svg width="60" height="21" viewBox="0 0 60 21" fill="none" xmlns="http://www.w3.org/2000/svg">
<path d="M2.8 0.349999V17.75H10.6V20H0.25V0.349999H2.8ZM19.2377 -0.0100017C21.4777 -0.0100017 23.1277 0.549999 24.1877 1.67C25.2477 2.79 25.7777 4.38 25.7777 6.44V13.91C25.7777 15.97 25.2477 17.56 24.1877 18.68C23.1277 19.8 21.4777 20.36 19.2377 20.36C16.9977 20.36 15.3477 19.8 14.2877 18.68C13.2277 17.56 12.6977 15.97 12.6977 13.91V6.44C12.6977 4.38 13.2277 2.79 14.2877 1.67C15.3477 0.549999 16.9977 -0.0100017 19.2377 -0.0100017ZM19.2377 2.24C17.9177 2.24 16.9177 2.57 16.2377 3.23C15.5777 3.89 15.2477 4.86 15.2477 6.14V14.18C15.2477 15.46 15.5777 16.44 16.2377 17.12C16.9177 17.78 17.9177 18.11 19.2377 18.11C20.5577 18.11 21.5477 17.78 22.2077 17.12C22.8877 16.44 23.2277 15.46 23.2277 14.18V6.17C23.2277 4.89 22.8877 3.92 22.2077 3.26C21.5477 2.58 20.5577 2.24 19.2377 2.24ZM36.3728 -0.0100017C37.1128 -0.0100017 37.9628 0.0599986 38.9228 0.199999C39.8828 0.319999 40.7628 0.459999 41.5628 0.619999L41.5028 2.87C39.2428 2.43 37.5328 2.21 36.3728 2.21C34.9928 2.21 34.0028 2.49 33.4028 3.05C32.8228 3.59 32.5328 4.5 32.5328 5.78V14.48C32.5328 15.76 32.8228 16.69 33.4028 17.27C34.0028 17.83 34.9928 18.11 36.3728 18.11C37.2728 18.11 38.4428 17.97 39.8828 17.69V11.06H36.1328V8.66H42.4328V19.25C40.0328 19.99 38.0128 20.36 36.3728 20.36C34.0728 20.36 32.4328 19.87 31.4528 18.89C30.4728 17.91 29.9828 16.38 29.9828 14.3V6.05C29.9828 3.93 30.4828 2.39 31.4828 1.43C32.4828 0.469999 34.1128 -0.0100017 36.3728 -0.0100017ZM53.1634 -0.0100017C55.4034 -0.0100017 57.0534 0.549999 58.1134 1.67C59.1734 2.79 59.7034 4.38 59.7034 6.44V13.91C59.7034 15.97 59.1734 17.56 58.1134 18.68C57.0534 19.8 55.4034 20.36 53.1634 20.36C50.9234 20.36 49.2734 19.8 48.2134 18.68C47.1534 17.56 46.6234 15.97 46.6234 13.91V6.44C46.6234 4.38 47.1534 2.79 48.2134 1.67C49.2734 0.549999 50.9234 -0.0100017 53.1634 -0.0100017ZM53.1634 2.24C51.8434 2.24 50.8434 2.57 50.1634 3.23C49.5034 3.89 49.1734 4.86 49.1734 6.14V14.18C49.1734 15.46 49.5034 16.44 50.1634 17.12C50.8434 17.78 51.8434 18.11 53.1634 18.11C54.4834 18.11 55.4734 17.78 56.1334 17.12C56.8134 16.44 57.1534 15.46 57.1534 14.18V6.17C57.1534 4.89 56.8134 3.92 56.1334 3.26C55.4734 2.58 54.4834 2.24 53.1634 2.24Z" fill="black"/>
</svg>
