<svg width="423" height="57" viewBox="0 0 423 57" fill="none" xmlns="http://www.w3.org/2000/svg">
<rect width="423" height="57" rx="6" fill="#303030"/>
<path d="M191.152 39.168C190.048 39.168 189.056 38.976 188.176 38.592C187.312 38.192 186.632 37.648 186.136 36.96C185.64 36.256 185.384 35.448 185.368 34.536H187.696C187.776 35.32 188.096 35.984 188.656 36.528C189.232 37.056 190.064 37.32 191.152 37.32C192.192 37.32 193.008 37.064 193.6 36.552C194.208 36.024 194.512 35.352 194.512 34.536C194.512 33.896 194.336 33.376 193.984 32.976C193.632 32.576 193.192 32.272 192.664 32.064C192.136 31.856 191.424 31.632 190.528 31.392C189.424 31.104 188.536 30.816 187.864 30.528C187.208 30.24 186.64 29.792 186.16 29.184C185.696 28.56 185.464 27.728 185.464 26.688C185.464 25.776 185.696 24.968 186.16 24.264C186.624 23.56 187.272 23.016 188.104 22.632C188.952 22.248 189.92 22.056 191.008 22.056C192.576 22.056 193.856 22.448 194.848 23.232C195.856 24.016 196.424 25.056 196.552 26.352H194.152C194.072 25.712 193.736 25.152 193.144 24.672C192.552 24.176 191.768 23.928 190.792 23.928C189.88 23.928 189.136 24.168 188.56 24.648C187.984 25.112 187.696 25.768 187.696 26.616C187.696 27.224 187.864 27.72 188.2 28.104C188.552 28.488 188.976 28.784 189.472 28.992C189.984 29.184 190.696 29.408 191.608 29.664C192.712 29.968 193.6 30.272 194.272 30.576C194.944 30.864 195.52 31.32 196 31.944C196.48 32.552 196.72 33.384 196.72 34.44C196.72 35.256 196.504 36.024 196.072 36.744C195.64 37.464 195 38.048 194.152 38.496C193.304 38.944 192.304 39.168 191.152 39.168ZM199.118 32.376C199.118 31.032 199.39 29.856 199.934 28.848C200.478 27.824 201.222 27.032 202.166 26.472C203.126 25.912 204.19 25.632 205.358 25.632C206.51 25.632 207.51 25.88 208.358 26.376C209.206 26.872 209.838 27.496 210.254 28.248V25.848H212.462V39H210.254V36.552C209.822 37.32 209.174 37.96 208.31 38.472C207.462 38.968 206.47 39.216 205.334 39.216C204.166 39.216 203.11 38.928 202.166 38.352C201.222 37.776 200.478 36.968 199.934 35.928C199.39 34.888 199.118 33.704 199.118 32.376ZM210.254 32.4C210.254 31.408 210.054 30.544 209.654 29.808C209.254 29.072 208.71 28.512 208.022 28.128C207.35 27.728 206.606 27.528 205.79 27.528C204.974 27.528 204.23 27.72 203.558 28.104C202.886 28.488 202.35 29.048 201.95 29.784C201.55 30.52 201.35 31.384 201.35 32.376C201.35 33.384 201.55 34.264 201.95 35.016C202.35 35.752 202.886 36.32 203.558 36.72C204.23 37.104 204.974 37.296 205.79 37.296C206.606 37.296 207.35 37.104 208.022 36.72C208.71 36.32 209.254 35.752 209.654 35.016C210.054 34.264 210.254 33.392 210.254 32.4ZM221.049 36.984L225.129 25.848H227.457L222.297 39H219.753L214.593 25.848H216.945L221.049 36.984ZM241.606 31.92C241.606 32.336 241.582 32.776 241.534 33.24H231.022C231.102 34.536 231.542 35.552 232.342 36.288C233.158 37.008 234.142 37.368 235.294 37.368C236.238 37.368 237.022 37.152 237.646 36.72C238.286 36.272 238.734 35.68 238.99 34.944H241.342C240.99 36.208 240.286 37.24 239.23 38.04C238.174 38.824 236.862 39.216 235.294 39.216C234.046 39.216 232.926 38.936 231.934 38.376C230.958 37.816 230.19 37.024 229.63 36C229.07 34.96 228.79 33.76 228.79 32.4C228.79 31.04 229.062 29.848 229.606 28.824C230.15 27.8 230.91 27.016 231.886 26.472C232.878 25.912 234.014 25.632 235.294 25.632C236.542 25.632 237.646 25.904 238.606 26.448C239.566 26.992 240.302 27.744 240.814 28.704C241.342 29.648 241.606 30.72 241.606 31.92ZM239.35 31.464C239.35 30.632 239.166 29.92 238.798 29.328C238.43 28.72 237.926 28.264 237.286 27.96C236.662 27.64 235.966 27.48 235.198 27.48C234.094 27.48 233.15 27.832 232.366 28.536C231.598 29.24 231.158 30.216 231.046 31.464H239.35Z" fill="white"/>
</svg>
