<svg width="86" height="13" viewBox="0 0 86 13" fill="none" xmlns="http://www.w3.org/2000/svg">
<path d="M1.656 0.848V7.904C1.656 8.896 1.896 9.632 2.376 10.112C2.86667 10.592 3.544 10.832 4.408 10.832C5.26133 10.832 5.928 10.592 6.408 10.112C6.89867 9.632 7.144 8.896 7.144 7.904V0.848H8.6V7.888C8.6 8.816 8.41333 9.6 8.04 10.24C7.66667 10.8693 7.16 11.3387 6.52 11.648C5.89067 11.9573 5.18133 12.112 4.392 12.112C3.60267 12.112 2.888 11.9573 2.248 11.648C1.61867 11.3387 1.11733 10.8693 0.744 10.24C0.381333 9.6 0.2 8.816 0.2 7.888V0.848H1.656ZM14.1329 12.144C13.4609 12.144 12.8582 12.032 12.3249 11.808C11.7915 11.5733 11.3702 11.2533 11.0609 10.848C10.7515 10.432 10.5809 9.95733 10.5489 9.424H12.0529C12.0955 9.86133 12.2982 10.2187 12.6609 10.496C13.0342 10.7733 13.5195 10.912 14.1169 10.912C14.6715 10.912 15.1089 10.7893 15.4289 10.544C15.7489 10.2987 15.9089 9.98933 15.9089 9.616C15.9089 9.232 15.7382 8.94933 15.3969 8.768C15.0555 8.576 14.5275 8.38933 13.8129 8.208C13.1622 8.03733 12.6289 7.86667 12.2129 7.696C11.8075 7.51467 11.4555 7.25333 11.1569 6.912C10.8689 6.56 10.7249 6.10133 10.7249 5.536C10.7249 5.088 10.8582 4.67733 11.1249 4.304C11.3915 3.93067 11.7702 3.63733 12.2609 3.424C12.7515 3.2 13.3115 3.088 13.9409 3.088C14.9115 3.088 15.6955 3.33333 16.2929 3.824C16.8902 4.31467 17.2102 4.98667 17.2529 5.84H15.7969C15.7649 5.38133 15.5782 5.01333 15.2369 4.736C14.9062 4.45867 14.4582 4.32 13.8929 4.32C13.3702 4.32 12.9542 4.432 12.6449 4.656C12.3355 4.88 12.1809 5.17333 12.1809 5.536C12.1809 5.824 12.2715 6.064 12.4529 6.256C12.6449 6.43733 12.8795 6.58667 13.1569 6.704C13.4449 6.81067 13.8395 6.93333 14.3409 7.072C14.9702 7.24267 15.4822 7.41333 15.8769 7.584C16.2715 7.744 16.6075 7.98933 16.8849 8.32C17.1729 8.65067 17.3222 9.08267 17.3329 9.616C17.3329 10.096 17.1995 10.528 16.9329 10.912C16.6662 11.296 16.2875 11.6 15.7969 11.824C15.3169 12.0373 14.7622 12.144 14.1329 12.144ZM27.3883 7.28C27.3883 7.55733 27.3723 7.85067 27.3403 8.16H20.3323C20.3856 9.024 20.6789 9.70133 21.2123 10.192C21.7563 10.672 22.4123 10.912 23.1803 10.912C23.8096 10.912 24.3323 10.768 24.7483 10.48C25.1749 10.1813 25.4736 9.78667 25.6443 9.296H27.2123C26.9776 10.1387 26.5083 10.8267 25.8043 11.36C25.1003 11.8827 24.2256 12.144 23.1803 12.144C22.3483 12.144 21.6016 11.9573 20.9403 11.584C20.2896 11.2107 19.7776 10.6827 19.4043 10C19.0309 9.30667 18.8443 8.50667 18.8443 7.6C18.8443 6.69333 19.0256 5.89867 19.3883 5.216C19.7509 4.53333 20.2576 4.01067 20.9083 3.648C21.5696 3.27467 22.3269 3.088 23.1803 3.088C24.0123 3.088 24.7483 3.26933 25.3883 3.632C26.0283 3.99467 26.5189 4.496 26.8603 5.136C27.2123 5.76533 27.3883 6.48 27.3883 7.28ZM25.8843 6.976C25.8843 6.42133 25.7616 5.94667 25.5163 5.552C25.2709 5.14667 24.9349 4.84267 24.5083 4.64C24.0923 4.42667 23.6283 4.32 23.1163 4.32C22.3803 4.32 21.7509 4.55467 21.2283 5.024C20.7163 5.49333 20.4229 6.144 20.3483 6.976H25.8843ZM30.7661 4.656C31.0221 4.15467 31.3848 3.76533 31.8541 3.488C32.3341 3.21067 32.9155 3.072 33.5981 3.072V4.576H33.2141C31.5821 4.576 30.7661 5.46133 30.7661 7.232V12H29.3101V3.232H30.7661V4.656ZM43.8165 3.072C44.8832 3.072 45.7472 3.39733 46.4085 4.048C47.0698 4.688 47.4005 5.616 47.4005 6.832V12H45.9605V7.04C45.9605 6.16533 45.7418 5.49867 45.3045 5.04C44.8672 4.57067 44.2698 4.336 43.5125 4.336C42.7445 4.336 42.1312 4.576 41.6725 5.056C41.2245 5.536 41.0005 6.23467 41.0005 7.152V12H39.5445V3.232H41.0005V4.48C41.2885 4.032 41.6778 3.68533 42.1685 3.44C42.6698 3.19467 43.2192 3.072 43.8165 3.072ZM49.2349 7.584C49.2349 6.688 49.4162 5.904 49.7789 5.232C50.1415 4.54933 50.6375 4.02133 51.2669 3.648C51.9069 3.27467 52.6162 3.088 53.3949 3.088C54.1629 3.088 54.8295 3.25333 55.3949 3.584C55.9602 3.91467 56.3815 4.33067 56.6589 4.832V3.232H58.1309V12H56.6589V10.368C56.3709 10.88 55.9389 11.3067 55.3629 11.648C54.7975 11.9787 54.1362 12.144 53.3789 12.144C52.6002 12.144 51.8962 11.952 51.2669 11.568C50.6375 11.184 50.1415 10.6453 49.7789 9.952C49.4162 9.25867 49.2349 8.46933 49.2349 7.584ZM56.6589 7.6C56.6589 6.93867 56.5255 6.36267 56.2589 5.872C55.9922 5.38133 55.6295 5.008 55.1709 4.752C54.7229 4.48533 54.2269 4.352 53.6829 4.352C53.1389 4.352 52.6429 4.48 52.1949 4.736C51.7469 4.992 51.3895 5.36533 51.1229 5.856C50.8562 6.34667 50.7229 6.92267 50.7229 7.584C50.7229 8.256 50.8562 8.84267 51.1229 9.344C51.3895 9.83467 51.7469 10.2133 52.1949 10.48C52.6429 10.736 53.1389 10.864 53.6829 10.864C54.2269 10.864 54.7229 10.736 55.1709 10.48C55.6295 10.2133 55.9922 9.83467 56.2589 9.344C56.5255 8.84267 56.6589 8.26133 56.6589 7.6ZM71.1354 3.072C71.818 3.072 72.426 3.216 72.9594 3.504C73.4927 3.78133 73.914 4.20267 74.2234 4.768C74.5327 5.33333 74.6874 6.02133 74.6874 6.832V12H73.2474V7.04C73.2474 6.16533 73.0287 5.49867 72.5914 5.04C72.1647 4.57067 71.5834 4.336 70.8474 4.336C70.09 4.336 69.4874 4.58133 69.0394 5.072C68.5914 5.552 68.3674 6.25067 68.3674 7.168V12H66.9274V7.04C66.9274 6.16533 66.7087 5.49867 66.2714 5.04C65.8447 4.57067 65.2634 4.336 64.5274 4.336C63.77 4.336 63.1674 4.58133 62.7194 5.072C62.2714 5.552 62.0474 6.25067 62.0474 7.168V12H60.5914V3.232H62.0474V4.496C62.3354 4.03733 62.7194 3.68533 63.1994 3.44C63.69 3.19467 64.2287 3.072 64.8154 3.072C65.5514 3.072 66.202 3.23733 66.7674 3.568C67.3327 3.89867 67.754 4.384 68.0314 5.024C68.2767 4.40533 68.682 3.92533 69.2474 3.584C69.8127 3.24267 70.442 3.072 71.1354 3.072ZM85.0758 7.28C85.0758 7.55733 85.0598 7.85067 85.0278 8.16H78.0198C78.0731 9.024 78.3664 9.70133 78.8998 10.192C79.4438 10.672 80.0998 10.912 80.8678 10.912C81.4971 10.912 82.0198 10.768 82.4358 10.48C82.8624 10.1813 83.1611 9.78667 83.3318 9.296H84.8998C84.6651 10.1387 84.1958 10.8267 83.4918 11.36C82.7878 11.8827 81.9131 12.144 80.8678 12.144C80.0358 12.144 79.2891 11.9573 78.6278 11.584C77.9771 11.2107 77.4651 10.6827 77.0918 10C76.7184 9.30667 76.5318 8.50667 76.5318 7.6C76.5318 6.69333 76.7131 5.89867 77.0758 5.216C77.4384 4.53333 77.9451 4.01067 78.5958 3.648C79.2571 3.27467 80.0144 3.088 80.8678 3.088C81.6998 3.088 82.4358 3.26933 83.0758 3.632C83.7158 3.99467 84.2064 4.496 84.5478 5.136C84.8998 5.76533 85.0758 6.48 85.0758 7.28ZM83.5718 6.976C83.5718 6.42133 83.4491 5.94667 83.2038 5.552C82.9584 5.14667 82.6224 4.84267 82.1958 4.64C81.7798 4.42667 81.3158 4.32 80.8038 4.32C80.0678 4.32 79.4384 4.55467 78.9158 5.024C78.4038 5.49333 78.1104 6.144 78.0358 6.976H83.5718Z" fill="black"/>
</svg>
