<svg width="130" height="20" viewBox="0 0 130 20" fill="none" xmlns="http://www.w3.org/2000/svg">
<path d="M23.2 1.525L18.25 19H16.3L11.9 4.1L7.4 19L5.5 19.025L0.65 1.525H2.525L6.525 16.85L11 1.525H12.95L17.3 16.85L21.325 1.525H23.2ZM38.227 11.475C38.227 12.075 38.2103 12.5333 38.177 12.85H26.852C26.902 13.8833 27.152 14.7667 27.602 15.5C28.052 16.2333 28.6436 16.7917 29.377 17.175C30.1103 17.5417 30.9103 17.725 31.777 17.725C32.9103 17.725 33.8603 17.45 34.627 16.9C35.4103 16.35 35.927 15.6083 36.177 14.675H38.027C37.6936 16.0083 36.977 17.1 35.877 17.95C34.7936 18.7833 33.427 19.2 31.777 19.2C30.4936 19.2 29.3436 18.9167 28.327 18.35C27.3103 17.7667 26.5103 16.95 25.927 15.9C25.3603 14.8333 25.077 13.5917 25.077 12.175C25.077 10.7583 25.3603 9.51667 25.927 8.45C26.4936 7.38333 27.2853 6.56667 28.302 6C29.3186 5.43333 30.477 5.15 31.777 5.15C33.077 5.15 34.2103 5.43333 35.177 6C36.1603 6.56667 36.9103 7.33333 37.427 8.3C37.9603 9.25 38.227 10.3083 38.227 11.475ZM36.452 11.425C36.4686 10.4083 36.2603 9.54167 35.827 8.825C35.4103 8.10833 34.8353 7.56667 34.102 7.2C33.3686 6.83333 32.5686 6.65 31.702 6.65C30.402 6.65 29.2936 7.06667 28.377 7.9C27.4603 8.73333 26.952 9.90833 26.852 11.425H36.452ZM43.1787 0.5V19H41.4287V0.5H43.1787ZM46.3416 12.175C46.3416 10.7583 46.6249 9.525 47.1916 8.475C47.7583 7.40833 48.5416 6.59167 49.5416 6.025C50.5416 5.44167 51.6833 5.15 52.9666 5.15C54.6499 5.15 56.0333 5.56667 57.1166 6.4C58.2166 7.23333 58.9249 8.36667 59.2416 9.8H57.3666C57.1333 8.81667 56.6249 8.05 55.8416 7.5C55.0749 6.93333 54.1166 6.65 52.9666 6.65C52.0499 6.65 51.2249 6.85833 50.4916 7.275C49.7583 7.69167 49.1749 8.31667 48.7416 9.15C48.3249 9.96667 48.1166 10.975 48.1166 12.175C48.1166 13.375 48.3249 14.3917 48.7416 15.225C49.1749 16.0583 49.7583 16.6833 50.4916 17.1C51.2249 17.5167 52.0499 17.725 52.9666 17.725C54.1166 17.725 55.0749 17.45 55.8416 16.9C56.6249 16.3333 57.1333 15.55 57.3666 14.55H59.2416C58.9249 15.95 58.2166 17.075 57.1166 17.925C56.0166 18.775 54.6333 19.2 52.9666 19.2C51.6833 19.2 50.5416 18.9167 49.5416 18.35C48.5416 17.7667 47.7583 16.95 47.1916 15.9C46.6249 14.8333 46.3416 13.5917 46.3416 12.175ZM68.4486 19.2C67.1653 19.2 66.007 18.9167 64.9736 18.35C63.957 17.7667 63.1486 16.95 62.5486 15.9C61.9653 14.8333 61.6736 13.5917 61.6736 12.175C61.6736 10.7583 61.9736 9.525 62.5736 8.475C63.1736 7.40833 63.9903 6.59167 65.0236 6.025C66.057 5.44167 67.2153 5.15 68.4986 5.15C69.782 5.15 70.9403 5.44167 71.9736 6.025C73.0236 6.59167 73.8403 7.40833 74.4236 8.475C75.0236 9.525 75.3236 10.7583 75.3236 12.175C75.3236 13.575 75.0236 14.8083 74.4236 15.875C73.8236 16.9417 72.9986 17.7667 71.9486 18.35C70.8986 18.9167 69.732 19.2 68.4486 19.2ZM68.4486 17.675C69.3486 17.675 70.182 17.475 70.9486 17.075C71.7153 16.6583 72.332 16.0417 72.7986 15.225C73.282 14.3917 73.5236 13.375 73.5236 12.175C73.5236 10.975 73.2903 9.96667 72.8236 9.15C72.357 8.31667 71.7403 7.7 70.9736 7.3C70.207 6.88333 69.3736 6.675 68.4736 6.675C67.5736 6.675 66.7403 6.88333 65.9736 7.3C65.207 7.7 64.5903 8.31667 64.1236 9.15C63.6736 9.96667 63.4486 10.975 63.4486 12.175C63.4486 13.375 63.6736 14.3917 64.1236 15.225C64.5903 16.0417 65.1986 16.6583 65.9486 17.075C66.7153 17.475 67.5486 17.675 68.4486 17.675ZM94.7637 5.1C96.3637 5.1 97.6637 5.60833 98.6637 6.625C99.6803 7.625 100.189 9.08333 100.189 11V19H98.4637V11.2C98.4637 9.71667 98.1053 8.58333 97.3887 7.8C96.672 7.01667 95.697 6.625 94.4637 6.625C93.1803 6.625 92.1553 7.05 91.3887 7.9C90.622 8.75 90.2387 9.98333 90.2387 11.6V19H88.5137V11.2C88.5137 9.71667 88.1553 8.58333 87.4387 7.8C86.722 7.01667 85.7387 6.625 84.4887 6.625C83.2053 6.625 82.1803 7.05 81.4137 7.9C80.647 8.75 80.2637 9.98333 80.2637 11.6V19H78.5137V5.35H80.2637V7.7C80.697 6.85 81.3137 6.20833 82.1137 5.775C82.9137 5.325 83.8053 5.1 84.7887 5.1C85.972 5.1 87.0053 5.38333 87.8887 5.95C88.7887 6.51667 89.4387 7.35 89.8387 8.45C90.2053 7.36667 90.8303 6.54167 91.7137 5.975C92.6137 5.39167 93.6303 5.1 94.7637 5.1ZM116.425 11.475C116.425 12.075 116.409 12.5333 116.375 12.85H105.05C105.1 13.8833 105.35 14.7667 105.8 15.5C106.25 16.2333 106.842 16.7917 107.575 17.175C108.309 17.5417 109.109 17.725 109.975 17.725C111.109 17.725 112.059 17.45 112.825 16.9C113.609 16.35 114.125 15.6083 114.375 14.675H116.225C115.892 16.0083 115.175 17.1 114.075 17.95C112.992 18.7833 111.625 19.2 109.975 19.2C108.692 19.2 107.542 18.9167 106.525 18.35C105.509 17.7667 104.709 16.95 104.125 15.9C103.559 14.8333 103.275 13.5917 103.275 12.175C103.275 10.7583 103.559 9.51667 104.125 8.45C104.692 7.38333 105.484 6.56667 106.5 6C107.517 5.43333 108.675 5.15 109.975 5.15C111.275 5.15 112.409 5.43333 113.375 6C114.359 6.56667 115.109 7.33333 115.625 8.3C116.159 9.25 116.425 10.3083 116.425 11.475ZM114.65 11.425C114.667 10.4083 114.459 9.54167 114.025 8.825C113.609 8.10833 113.034 7.56667 112.3 7.2C111.567 6.83333 110.767 6.65 109.9 6.65C108.6 6.65 107.492 7.06667 106.575 7.9C105.659 8.73333 105.15 9.90833 105.05 11.425H114.65ZM128.837 1.525L128.612 14.375H127.137L126.937 1.525H128.837ZM127.962 19.125C127.596 19.125 127.287 19 127.037 18.75C126.804 18.5 126.687 18.1917 126.687 17.825C126.687 17.4583 126.804 17.1583 127.037 16.925C127.287 16.675 127.596 16.55 127.962 16.55C128.312 16.55 128.604 16.675 128.837 16.925C129.087 17.1583 129.212 17.4583 129.212 17.825C129.212 18.1917 129.087 18.5 128.837 18.75C128.604 19 128.312 19.125 127.962 19.125Z" fill="black"/>
</svg>
